SplineFontDB: 1.0
FontName: ArundinaSansMono-Oblique
FullName: Arundina Sans Mono Oblique
FamilyName: Arundina Sans Mono
Weight: Book
Copyright: Copyright (c) 2003 by Bitstream, Inc. All Rights Reserved.\nCopyright (c) 2007 by Software Industry Promotion Agency (Public Organization). All Rights Reserved.
Version: 1.20
ItalicAngle: -12
UnderlinePosition: -213
UnderlineWidth: 141
Ascent: 800
Descent: 200
Order2: 1
XUID: [1021 375 425136265 10294789]
FSType: 4
OS2Version: 2
OS2_WeightWidthSlopeOnly: 0
OS2_UseTypoMetrics: 1
CreationTime: -25200
ModificationTime: 1171885137
PfmFamily: 49
TTFWeight: 400
TTFWidth: 5
LineGap: 12
VLineGap: 0
Panose: 2 11 3 0 2 2 2 2 2 4
OS2TypoAscent: 0
OS2TypoAOffset: 1
OS2TypoDescent: -200
OS2TypoDOffset: 1
OS2TypoLinegap: 0
OS2WinAscent: -185
OS2WinAOffset: 1
OS2WinDescent: 47
OS2WinDOffset: 1
HheadAscent: -185
HheadAOffset: 1
HheadDescent: -47
HheadDOffset: 1
OS2SubXSize: 700
OS2SubYSize: 650
OS2SubXOff: 0
OS2SubYOff: 140
OS2SupXSize: 700
OS2SupYSize: 650
OS2SupXOff: 0
OS2SupYOff: 477
OS2StrikeYSize: 50
OS2StrikeYPos: 250
OS2FamilyClass: 1285
OS2Vendor: 'Bits'
ScriptLang: 2
 1 latn 1 dflt 
 0 
ChainSub: coverage 0 0 'liga' 0 0 0 1
 1 1 0
  Coverage: 7 uni0E47
  BCoverage: 12 uni0E2C.alt1
 1
  SeqLookup: 0 'L019'
EndFPST
ChainSub: coverage 0 0 'liga' 0 0 0 1
 1 0 1
  Coverage: 7 uni0E2C
  FCoverage: 39 uni0E34 uni0E35 uni0E36 uni0E37 uni0E47
 1
  SeqLookup: 0 'L019'
EndFPST
ChainSub: coverage 0 0 'liga' 0 0 0 1
 1 0 1
  Coverage: 15 uni0E0E uni0E0F
  FCoverage: 38 uni0E38.alt1 uni0E39.alt1 uni0E3A.alt1
 1
  SeqLookup: 0 'L019'
EndFPST
ChainSub: coverage 0 0 'liga' 0 0 0 1
 1 1 0
  Coverage: 5 a b c
  BCoverage: 23 uni0E1B uni0E1D uni0E1F
 1
  SeqLookup: 0 'L019'
EndFPST
ChainSub: coverage 0 0 'liga' 0 0 0 1
 1 0 1
  Coverage: 5 a b c
  FCoverage: 64 uni0E48.alt1 uni0E49.alt1 uni0E4A.alt1 uni0E4B.alt1 uni0E4C.alt1
 1
  SeqLookup: 0 'L019'
EndFPST
ChainSub: coverage 0 0 'liga' 0 0 0 1
 1 1 0

StartChar: .notdef
Encoding: 65536 -1 0
Width: 364
Flags: W
Fore
31 426 m 1,0,-1
 333 426 l 1,1,-1
 333 -107 l 1,2,-1
 31 -107 l 1,3,-1
 31 426 l 1,0,-1
299 -73 m 1,4,-1
 299 392 l 1,5,-1
 65 392 l 1,6,-1
 65 -73 l 1,7,-1
 299 -73 l 1,4,-1
EndSplineSet
EndChar
StartChar: exclam
Encoding: 33 33 4
Width: 364
Flags: W
Fore
255 440 m 1,0,-1
 217 247 l 1,1,-1
 191 142 l 1,2,-1
 143 142 l 1,3,-1
 158 247 l 1,4,-1
 195 440 l 1,5,-1
 255 440 l 1,0,-1
184 75 m 1,6,-1
 169 0 l 1,7,-1
 109 0 l 1,8,-1
 124 75 l 1,9,-1
 184 75 l 1,6,-1
EndSplineSet
EndChar
StartChar: quotedbl
Encoding: 34 34 5
Width: 364
Flags: W
Fore
264 277 m 1,0,-1
 213 277 l 1,1,-1
 213 440 l 1,2,-1
 264 440 l 1,3,-1
 264 277 l 1,0,-1
151 277 m 1,4,-1
 100 277 l 1,5,-1
 100 440 l 1,6,-1
 151 440 l 1,7,-1
 151 277 l 1,4,-1
EndSplineSet
EndChar
StartChar: numbersign
Encoding: 35 35 6
Width: 364
Flags: W
Fore
157 266 m 1,0,-1
 132 167 l 1,1,-1
 205 167 l 1,2,-1
 230 266 l 1,3,-1
 157 266 l 1,0,-1
168 311 m 1,4,-1
 241 311 l 1,5,-1
 272 434 l 1,6,-1
 319 434 l 1,7,-1
 288 311 l 1,8,-1
 364 311 l 1,9,-1
 352 266 l 1,10,-1
 277 266 l 1,11,-1
 252 167 l 1,12,-1
 328 167 l 1,13,-1
 317 122 l 1,14,-1
 240 122 l 1,15,-1
 210 0 l 1,16,-1
 163 0 l 1,17,-1
 193 122 l 1,18,-1
 121 122 l 1,19,-1
 90 0 l 1,20,-1
 43 0 l 1,21,-1
 74 122 l 1,22,-1
 -2 122 l 1,23,-1
 10 167 l 1,24,-1
 85 167 l 1,25,-1
 110 266 l 1,26,-1
 34 266 l 1,27,-1
 45 311 l 1,28,-1
 122 311 l 1,29,-1
 152 434 l 1,30,-1
 199 434 l 1,31,-1
 168 311 l 1,4,-1
EndSplineSet
EndChar
StartChar: dollar
Encoding: 36 36 7
Width: 364
Flags: W
Fore
160 43 m 1,0,1
 198 43 198 43 222 64 c 0,2,3
 245 85 245 85 245 120 c 0,4,5
 245 143 245 143 231.5 155.5 c 128,-1,6
 218 168 218 168 186 173 c 1,7,-1
 160 43 l 1,0,1
190 349 m 1,8,9
 156 348 156 348 132 327 c 0,10,11
 110 306 110 306 110 277 c 0,12,13
 110 257 110 257 122 246 c 0,14,15
 136 235 136 235 166 228 c 1,16,-1
 190 349 l 1,8,9
104 -89 m 1,17,-1
 122 0 l 1,18,19
 66 1 66 1 9 27 c 1,20,-1
 19 80 l 1,21,22
 68 45 68 45 130 42 c 1,23,-1
 156 179 l 1,24,25
 104 190 104 190 81 210.5 c 128,-1,26
 58 231 58 231 58 269 c 0,27,28
 58 319 58 319 96 354 c 0,29,30
 137 387 137 387 197 390 c 1,31,-1
 212 459 l 1,32,-1
 241 459 l 1,33,-1
 227 390 l 1,34,35
 277 385 277 385 319 372 c 1,36,-1
 310 321 l 1,37,38
 272 343 272 343 219 349 c 1,39,-1
 195 223 l 1,40,41
 299 203 299 203 299 126 c 0,42,43
 299 72 299 72 259 36 c 0,44,45
 220 1 220 1 155 1 c 2,46,-1
 152 1 l 1,47,-1
 134 -89 l 1,48,-1
 104 -89 l 1,17,-1
EndSplineSet
EndChar
StartChar: percent
Encoding: 37 37 8
Width: 364
Flags: W
Fore
205 94 m 0,0,1
 205 71 205 71 221 55 c 0,2,3
 236 40 236 40 259 40 c 256,4,5
 282 40 282 40 298 55 c 0,6,7
 314 73 314 73 314 94 c 256,8,9
 314 115 314 115 298 133 c 0,10,11
 280 149 280 149 259 149 c 0,12,13
 237 149 237 149 221 133 c 0,14,15
 205 118 205 118 205 94 c 0,0,1
165 94 m 0,16,17
 165 133 165 133 193 161 c 256,18,19
 221 189 221 189 259 189 c 0,20,21
 298 189 298 189 326 161 c 0,22,23
 354 131 354 131 354 94 c 0,24,25
 354 56 354 56 327 27 c 0,26,27
 299 0 299 0 259 0 c 256,28,29
 219 0 219 0 192 27 c 256,30,31
 165 54 165 54 165 94 c 0,16,17
25 165 m 1,32,-1
 333 289 l 1,33,-1
 345 260 l 1,34,-1
 36 137 l 1,35,-1
 25 165 l 1,32,-1
50 328 m 0,36,37
 50 304 50 304 65 289 c 256,38,39
 80 274 80 274 104 274 c 0,40,41
 127 274 127 274 142 289 c 0,42,43
 158 305 158 305 158 328 c 256,44,45
 158 351 158 351 142 366 c 0,46,47
 127 382 127 382 104 382 c 0,48,49
 82 382 82 382 65 367 c 0,50,51
 50 351 50 351 50 328 c 0,36,37
10 328 m 256,52,53
 10 368 10 368 37 395 c 256,54,55
 64 422 64 422 104 422 c 256,56,57
 144 422 144 422 171 395 c 0,58,59
 198 366 198 366 198 328 c 0,60,61
 198 288 198 288 171 261 c 256,62,63
 144 234 144 234 104 234 c 256,64,65
 64 234 64 234 37 261 c 256,66,67
 10 288 10 288 10 328 c 256,52,53
EndSplineSet
EndChar
StartChar: ampersand
Encoding: 38 38 9
Width: 364
Flags: W
Fore
258 103 m 1,0,1
 295 143 295 143 301 224 c 1,2,-1
 351 224 l 1,3,4
 346 174 346 174 328 134.5 c 128,-1,5
 310 95 310 95 278 65 c 1,6,-1
 315 0 l 1,7,-1
 256 0 l 1,8,-1
 239 33 l 1,9,10
 182 -9 182 -9 121 -9 c 0,11,12
 64 -9 64 -9 29 23 c 256,13,14
 -6 55 -6 55 -6 106 c 0,15,16
 -6 156 -6 156 23 198.5 c 128,-1,17
 52 241 52 241 108 271 c 1,18,19
 91 303 91 303 91 335 c 0,20,21
 91 386 91 386 127 417 c 0,22,23
 164 448 164 448 225 448 c 0,24,25
 265 448 265 448 297 435 c 1,26,-1
 287 381 l 1,27,28
 275 392 275 392 257 397.5 c 128,-1,29
 239 403 239 403 216 403 c 0,30,31
 183 403 183 403 163 386 c 0,32,33
 142 370 142 370 142 341 c 0,34,35
 142 327 142 327 149 308 c 128,-1,36
 156 289 156 289 167 268 c 2,37,-1
 258 103 l 1,0,1
127 235 m 1,38,39
 47 191 47 191 47 120 c 0,40,41
 47 84 47 84 72 62 c 0,42,43
 98 38 98 38 135 38 c 0,44,45
 175 38 175 38 219 71 c 1,46,-1
 127 235 l 1,47,-1
 127 235 l 1,38,39
EndSplineSet
EndChar
StartChar: quotesingle
Encoding: 39 39 10
Width: 364
Flags: W
Fore
207 277 m 1,0,-1
 156 277 l 1,1,-1
 156 440 l 1,2,-1
 207 440 l 1,3,-1
 207 277 l 1,0,-1
EndSplineSet
EndChar
StartChar: parenleft
Encoding: 40 40 11
Width: 364
Flags: W
Fore
307 458 m 1,0,1
 167 280 167 280 167 100 c 0,2,3
 167 17 167 17 202 -80 c 1,4,-1
 155 -80 l 1,5,6
 132 -23 132 -23 121 23 c 128,-1,7
 110 69 110 69 110 111 c 0,8,9
 110 201 110 201 147.5 289 c 128,-1,10
 185 377 185 377 260 458 c 1,11,-1
 307 458 l 1,12,-1
 307 458 l 1,0,1
EndSplineSet
EndChar
StartChar: parenright
Encoding: 41 41 12
Width: 364
Flags: W
Fore
44 -80 m 1,0,1
 184 98 184 98 184 278 c 0,2,3
 184 366 184 366 149 458 c 1,4,-1
 196 458 l 1,5,6
 219 402 219 402 230.5 356 c 128,-1,7
 242 310 242 310 242 268 c 0,8,9
 242 178 242 178 204 90 c 128,-1,10
 166 2 166 2 91 -80 c 1,11,-1
 44 -80 l 1,12,-1
 44 -80 l 1,0,1
EndSplineSet
EndChar
StartChar: asterisk
Encoding: 42 42 13
Width: 364
Flags: W
Fore
209 311 m 1,0,-1
 315 253 l 1,1,-1
 298 224 l 1,2,-1
 199 284 l 1,3,-1
 199 173 l 1,4,-1
 165 173 l 1,5,-1
 165 284 l 1,6,-1
 66 224 l 1,7,-1
 49 253 l 1,8,-1
 155 311 l 1,9,-1
 49 368 l 1,10,-1
 66 397 l 1,11,-1
 165 337 l 1,12,-1
 165 448 l 1,13,-1
 199 448 l 1,14,-1
 199 337 l 1,15,-1
 298 397 l 1,16,-1
 315 368 l 1,17,-1
 209 311 l 1,0,-1
EndSplineSet
EndChar
StartChar: plus
Encoding: 43 43 14
Width: 364
Flags: W
Fore
207 214 m 1,0,-1
 338 214 l 1,1,-1
 338 164 l 1,2,-1
 207 164 l 1,3,-1
 207 33 l 1,4,-1
 157 33 l 1,5,-1
 157 164 l 1,6,-1
 26 164 l 1,7,-1
 26 214 l 1,8,-1
 157 214 l 1,9,-1
 157 345 l 1,10,-1
 207 345 l 1,11,-1
 207 214 l 1,0,-1
EndSplineSet
EndChar
StartChar: comma
Encoding: 44 44 15
Width: 364
Flags: W
Fore
197 89 m 1,0,-1
 185 28 l 1,1,-1
 105 -85 l 1,2,-1
 60 -85 l 1,3,-1
 111 28 l 1,4,-1
 123 89 l 1,5,-1
 197 89 l 1,0,-1
EndSplineSet
EndChar
StartChar: hyphen
Encoding: 45 45 16
Width: 364
Flags: W
Fore
253 190 m 1,0,-1
 243 141 l 1,1,-1
 89 141 l 1,2,-1
 99 190 l 1,3,-1
 253 190 l 1,0,-1
EndSplineSet
EndChar
StartChar: period
Encoding: 46 46 17
Width: 364
Flags: W
Fore
196 89 m 1,0,-1
 179 0 l 1,1,-1
 104 0 l 1,2,-1
 122 89 l 1,3,-1
 196 89 l 1,0,-1
EndSplineSet
EndChar
StartChar: slash
Encoding: 47 47 18
Width: 364
Flags: W
Fore
256 440 m 1,0,-1
 312 440 l 1,1,-1
 60 -56 l 1,2,-1
 5 -56 l 1,3,-1
 256 440 l 1,0,-1
EndSplineSet
EndChar
StartChar: zero
Encoding: 48 48 19
Width: 364
Flags: W
Fore
142 221 m 256,0,1
 142 237 142 237 154 249 c 256,2,3
 166 261 166 261 182 261 c 0,4,5
 199 261 199 261 209 249 c 0,6,7
 221 237 221 237 221 221 c 0,8,9
 221 206 221 206 210 193 c 1,10,11
 197 182 197 182 182 182 c 256,12,13
 167 182 167 182 154 193 c 0,14,15
 142 205 142 205 142 221 c 256,0,1
335 301 m 0,16,17
 335 272 335 272 330.5 242 c 128,-1,18
 326 212 326 212 318 179 c 0,19,20
 301 113 301 113 276 73 c 0,21,22
 227 -9 227 -9 142 -9 c 0,23,24
 29 -9 29 -9 29 140 c 0,25,26
 29 195 29 195 46 261 c 256,27,28
 63 327 63 327 88 367 c 0,29,30
 113 409 113 409 145 428.5 c 128,-1,31
 177 448 177 448 221 448 c 0,32,33
 279 448 279 448 307 412 c 128,-1,34
 335 376 335 376 335 301 c 0,16,17
149 40 m 0,35,36
 199 40 199 40 227 99 c 0,37,38
 247 138 247 138 261 201 c 0,39,40
 275 263 275 263 275 314 c 0,41,42
 275 359 275 359 260.5 379.5 c 128,-1,43
 246 400 246 400 214 400 c 0,44,45
 191 400 191 400 170.5 385 c 128,-1,46
 150 370 150 370 136 342 c 0,47,48
 116 301 116 301 102 239 c 0,49,50
 88 175 88 175 88 122 c 0,51,52
 88 40 88 40 149 40 c 0,35,36
EndSplineSet
EndChar
StartChar: one
Encoding: 49 49 20
Width: 364
Flags: W
Fore
138 50 m 1,0,-1
 204 387 l 1,1,-1
 100 364 l 1,2,-1
 110 419 l 1,3,-1
 214 440 l 1,4,-1
 274 440 l 1,5,-1
 198 50 l 1,6,-1
 289 50 l 1,7,-1
 279 0 l 1,8,-1
 36 0 l 1,9,-1
 46 50 l 1,10,-1
 138 50 l 1,0,-1
EndSplineSet
EndChar
StartChar: two
Encoding: 50 50 21
Width: 364
Flags: W
Fore
281 50 m 1,0,-1
 271 0 l 1,1,-1
 2 0 l 1,2,-1
 12 50 l 1,3,-1
 103 131 l 1,4,-1
 115 141 l 2,5,6
 273 281 273 281 273 340 c 0,7,8
 273 368 273 368 254.5 383.5 c 128,-1,9
 236 399 236 399 202 399 c 0,10,11
 148 399 148 399 75 359 c 1,12,-1
 87 419 l 1,13,14
 154 448 154 448 210 448 c 0,15,16
 265 448 265 448 299 420 c 0,17,18
 332 392 332 392 332 345 c 0,19,20
 332 317 332 317 322 291 c 0,21,22
 311 266 311 266 287 236 c 0,23,24
 282 229 282 229 273.5 220.5 c 128,-1,25
 265 212 265 212 252 200 c 256,26,27
 239 188 239 188 219.5 171 c 128,-1,28
 200 154 200 154 173 131 c 2,29,-1
 79 50 l 1,30,-1
 281 50 l 1,0,-1
EndSplineSet
EndChar
StartChar: three
Encoding: 51 51 22
Width: 364
Flags: W
Fore
225 236 m 1,0,1
 259 230 259 230 277.5 206 c 128,-1,2
 296 182 296 182 296 144 c 0,3,4
 296 75 296 75 247 33 c 256,5,6
 198 -9 198 -9 115 -9 c 0,7,8
 53 -9 53 -9 -5 13 c 1,9,-1
 6 73 l 1,10,11
 59 42 59 42 118 42 c 0,12,13
 171 42 171 42 204 69 c 256,14,15
 237 96 237 96 237 141 c 0,16,17
 237 211 237 211 155 211 c 2,18,-1
 109 211 l 1,19,-1
 119 260 l 1,20,-1
 164 260 l 2,21,22
 212 260 212 260 238 282 c 0,23,24
 266 304 266 304 266 341 c 0,25,26
 266 398 266 398 191 398 c 0,27,28
 144 398 144 398 77 375 c 1,29,-1
 88 430 l 1,30,31
 124 440 124 440 152.5 444 c 128,-1,32
 181 448 181 448 206 448 c 0,33,34
 263 448 263 448 293 422 c 0,35,36
 325 396 325 396 325 352 c 0,37,38
 325 307 325 307 299 276 c 256,39,40
 273 245 273 245 225 236 c 1,0,1
EndSplineSet
EndChar
StartChar: four
Encoding: 52 52 23
Width: 364
Flags: W
Fore
64 153 m 1,0,-1
 204 153 l 1,1,-1
 248 378 l 1,2,-1
 64 153 l 1,0,-1
318 440 m 1,3,-1
 262 153 l 1,4,-1
 321 153 l 1,5,-1
 312 105 l 1,6,-1
 253 105 l 1,7,-1
 232 0 l 1,8,-1
 174 0 l 1,9,-1
 194 105 l 1,10,-1
 7 105 l 1,11,-1
 18 161 l 1,12,-1
 250 440 l 1,13,-1
 318 440 l 1,3,-1
EndSplineSet
EndChar
StartChar: five
Encoding: 53 53 24
Width: 364
Flags: W
Fore
327 440 m 1,0,-1
 317 390 l 1,1,-1
 149 390 l 1,2,-1
 127 282 l 1,3,4
 156 291 156 291 181 291 c 0,5,6
 236 291 236 291 270 258 c 0,7,8
 304 224 304 224 304 170 c 0,9,10
 304 132 304 132 288 99 c 0,11,12
 273 64 273 64 245 39 c 0,13,14
 193 -9 193 -9 109 -9 c 0,15,16
 47 -9 47 -9 1 10 c 1,17,-1
 13 71 l 1,18,19
 63 41 63 41 118 41 c 0,20,21
 172 41 172 41 209 76 c 0,22,23
 245 112 245 112 245 161 c 0,24,25
 245 199 245 199 221 221 c 0,26,27
 197 242 197 242 155 242 c 0,28,29
 107 242 107 242 61 219 c 1,30,-1
 104 440 l 1,31,-1
 327 440 l 1,0,-1
EndSplineSet
EndChar
StartChar: six
Encoding: 54 54 25
Width: 364
Flags: W
Fore
254 175 m 0,0,1
 254 209 254 209 237 227 c 128,-1,2
 220 245 220 245 188 245 c 0,3,4
 145 245 145 245 116 207 c 0,5,6
 86 171 86 171 86 114 c 0,7,8
 86 79 86 79 104 58.5 c 128,-1,9
 122 38 122 38 154 38 c 0,10,11
 197 38 197 38 225 78 c 0,12,13
 254 118 254 118 254 175 c 0,0,1
322 376 m 1,14,15
 286 398 286 398 243 398 c 0,16,17
 128 398 128 398 96 230 c 1,18,19
 136 291 136 291 204 291 c 0,20,21
 257 291 257 291 285.5 261.5 c 128,-1,22
 314 232 314 232 314 178 c 0,23,24
 314 143 314 143 302 108 c 0,25,26
 290 75 290 75 270 48 c 0,27,28
 224 -9 224 -9 152 -9 c 0,29,30
 92 -9 92 -9 59.5 25.5 c 128,-1,31
 27 60 27 60 27 124 c 0,32,33
 27 174 27 174 39 226 c 0,34,35
 44 252 44 252 52 276 c 128,-1,36
 60 300 60 300 70 322 c 0,37,38
 129 448 129 448 250 448 c 0,39,40
 294 448 294 448 333 431 c 1,41,-1
 322 376 l 1,14,15
EndSplineSet
EndChar
StartChar: seven
Encoding: 55 55 26
Width: 364
Flags: W
Fore
358 440 m 1,0,-1
 353 413 l 1,1,-1
 115 0 l 1,2,-1
 51 0 l 1,3,-1
 281 390 l 1,4,-1
 72 390 l 1,5,-1
 81 440 l 1,6,-1
 358 440 l 1,0,-1
EndSplineSet
EndChar
StartChar: eight
Encoding: 56 56 27
Width: 364
Flags: W
Fore
242 136 m 0,0,1
 242 171 242 171 222.5 190 c 128,-1,2
 203 209 203 209 168 209 c 0,3,4
 126 209 126 209 99 180 c 0,5,6
 73 153 73 153 73 106 c 0,7,8
 73 74 73 74 92 56 c 0,9,10
 114 37 114 37 145 37 c 0,11,12
 189 37 189 37 215 65 c 0,13,14
 242 92 242 92 242 136 c 0,0,1
127 234 m 1,15,16
 63 257 63 257 63 319 c 0,17,18
 63 372 63 372 107 410 c 0,19,20
 149 448 149 448 214 448 c 0,21,22
 267 448 267 448 299 422 c 0,23,24
 332 395 332 395 332 352 c 0,25,26
 332 310 332 310 304 276 c 0,27,28
 274 243 274 243 228 231 c 1,29,30
 303 213 303 213 303 134 c 0,31,32
 303 71 303 71 258 32 c 0,33,34
 212 -9 212 -9 143 -9 c 0,35,36
 81 -9 81 -9 47 22 c 0,37,38
 12 52 12 52 12 104 c 0,39,40
 12 154 12 154 43 188 c 0,41,42
 73 223 73 223 127 234 c 1,15,16
209 402 m 0,43,44
 171 402 171 402 147 378 c 0,45,46
 123 356 123 356 123 318 c 0,47,48
 123 289 123 289 140 272 c 128,-1,49
 157 255 157 255 187 255 c 0,50,51
 224 255 224 255 248 281 c 0,52,53
 273 306 273 306 273 344 c 0,54,55
 273 371 273 371 255 386 c 0,56,57
 239 402 239 402 209 402 c 0,43,44
EndSplineSet
EndChar
StartChar: nine
Encoding: 57 57 28
Width: 364
Flags: W
Fore
97 265 m 0,0,1
 97 231 97 231 114 213 c 128,-1,2
 131 195 131 195 163 195 c 0,3,4
 206 195 206 195 235 232 c 0,5,6
 265 270 265 270 265 326 c 0,7,8
 265 362 265 362 247.5 382 c 128,-1,9
 230 402 230 402 198 402 c 0,10,11
 154 402 154 402 126 362 c 0,12,13
 97 322 97 322 97 265 c 0,0,1
29 64 m 1,14,15
 65 42 65 42 108 42 c 0,16,17
 223 42 223 42 255 210 c 1,18,19
 215 149 215 149 147 149 c 0,20,21
 94 149 94 149 65.5 178 c 128,-1,22
 37 207 37 207 37 262 c 0,23,24
 37 298 37 298 49 332 c 256,25,26
 61 366 61 366 81 391 c 0,27,28
 128 448 128 448 199 448 c 0,29,30
 260 448 260 448 291 414 c 0,31,32
 325 380 325 380 325 316 c 0,33,34
 325 267 325 267 313 214 c 0,35,36
 307 188 307 188 299.5 164 c 128,-1,37
 292 140 292 140 281 118 c 0,38,39
 224 -9 224 -9 101 -9 c 0,40,41
 57 -9 57 -9 19 9 c 1,42,-1
 29 64 l 1,14,15
EndSplineSet
EndChar
StartChar: colon
Encoding: 58 58 29
Width: 364
Flags: W
Fore
237 313 m 1,0,-1
 219 224 l 1,1,-1
 145 224 l 1,2,-1
 163 313 l 1,3,-1
 237 313 l 1,0,-1
193 89 m 1,4,-1
 176 0 l 1,5,-1
 101 0 l 1,6,-1
 119 89 l 1,7,-1
 193 89 l 1,4,-1
EndSplineSet
EndChar
StartChar: semicolon
Encoding: 59 59 30
Width: 364
Flags: W
Fore
193 89 m 1,0,-1
 181 28 l 1,1,-1
 105 -85 l 1,2,-1
 60 -85 l 1,3,-1
 107 28 l 1,4,-1
 119 89 l 1,5,-1
 193 89 l 1,0,-1
237 314 m 1,6,-1
 219 224 l 1,7,-1
 145 224 l 1,8,-1
 163 314 l 1,9,-1
 237 314 l 1,6,-1
EndSplineSet
EndChar
StartChar: less
Encoding: 60 60 31
Width: 364
Flags: W
Fore
87 189 m 1,0,-1
 338 96 l 1,1,-1
 338 42 l 1,2,-1
 26 165 l 1,3,-1
 26 214 l 1,4,-1
 338 337 l 1,5,-1
 338 283 l 1,6,-1
 87 189 l 1,0,-1
EndSplineSet
EndChar
StartChar: equal
Encoding: 61 61 32
Width: 364
Flags: W
Fore
338 155 m 1,0,-1
 338 104 l 1,1,-1
 26 104 l 1,2,-1
 26 155 l 1,3,-1
 338 155 l 1,0,-1
338 274 m 1,4,-1
 338 224 l 1,5,-1
 26 224 l 1,6,-1
 26 274 l 1,7,-1
 338 274 l 1,4,-1
EndSplineSet
EndChar
StartChar: greater
Encoding: 62 62 33
Width: 364
Flags: W
Fore
26 337 m 1,0,-1
 338 214 l 1,1,-1
 338 165 l 1,2,-1
 26 42 l 1,3,-1
 26 96 l 1,4,-1
 277 189 l 1,5,-1
 26 283 l 1,6,-1
 26 337 l 1,0,-1
EndSplineSet
EndChar
StartChar: question
Encoding: 63 63 34
Width: 364
Flags: W
Fore
123 118 m 1,0,-1
 132 164 l 2,1,2
 134 178 134 178 138.5 189 c 128,-1,3
 143 200 143 200 148 210 c 0,4,5
 161 229 161 229 193 257 c 2,6,-1
 225 283 l 2,7,8
 250 305 250 305 260.5 321 c 128,-1,9
 271 337 271 337 271 354 c 0,10,11
 271 376 271 376 254.5 388 c 128,-1,12
 238 400 238 400 209 400 c 0,13,14
 186 400 186 400 156.5 390 c 128,-1,15
 127 380 127 380 96 360 c 1,16,-1
 107 415 l 1,17,18
 172 448 172 448 228 448 c 0,19,20
 274 448 274 448 302 424 c 256,21,22
 330 400 330 400 330 363 c 0,23,24
 330 349 330 349 327 336 c 128,-1,25
 324 323 324 323 316 312 c 0,26,27
 302 288 302 288 263 256 c 2,28,-1
 232 231 l 2,29,30
 208 210 208 210 199 195 c 0,31,32
 194 187 194 187 191 177 c 128,-1,33
 188 167 188 167 186 155 c 2,34,-1
 179 118 l 1,35,-1
 123 118 l 1,0,-1
173 75 m 1,36,-1
 158 0 l 1,37,-1
 98 0 l 1,38,-1
 113 75 l 1,39,-1
 173 75 l 1,36,-1
EndSplineSet
EndChar
StartChar: at
Encoding: 64 64 35
Width: 364
Flags: W
Fore
209 77 m 0,0,1
 247 77 247 77 272 108 c 256,2,3
 297 139 297 139 297 184 c 0,4,5
 297 213 297 213 282.5 229 c 128,-1,6
 268 245 268 245 242 245 c 0,7,8
 206 245 206 245 180 214 c 0,9,10
 155 183 155 183 155 138 c 0,11,12
 155 109 155 109 169 93 c 128,-1,13
 183 77 183 77 209 77 c 0,0,1
270 40 m 1,14,-1
 276 73 l 1,15,16
 245 34 245 34 195 34 c 0,17,18
 156 34 156 34 132 61 c 256,19,20
 108 88 108 88 108 131 c 0,21,22
 108 196 108 196 147 242 c 256,23,24
 186 288 186 288 239 288 c 0,25,26
 264 288 264 288 283 277.5 c 128,-1,27
 302 267 302 267 311 249 c 1,28,-1
 313 262 l 2,29,30
 315 273 315 273 316 280 c 128,-1,31
 317 287 317 287 317 292 c 0,32,33
 317 329 317 329 295 349.5 c 128,-1,34
 273 370 273 370 235 370 c 0,35,36
 191 370 191 370 154 347 c 0,37,38
 115 323 115 323 88 282 c 0,39,40
 63 245 63 245 50 201 c 128,-1,41
 37 157 37 157 37 111 c 0,42,43
 37 35 37 35 75 -9 c 0,44,45
 113 -52 113 -52 179 -52 c 0,46,47
 212 -52 212 -52 251 -37 c 1,48,-1
 265 -76 l 1,49,50
 226 -94 226 -94 179 -94 c 0,51,52
 95 -94 95 -94 42 -37 c 0,53,54
 -9 20 -9 20 -9 112 c 0,55,56
 -9 141 -9 141 -3.5 171 c 128,-1,57
 2 201 2 201 12 230 c 0,58,59
 35 290 35 290 70 332 c 0,60,61
 104 371 104 371 146 391 c 0,62,63
 190 412 190 412 236 412 c 0,64,65
 293 412 293 412 325 381 c 0,66,67
 358 351 358 351 358 299 c 0,68,69
 358 290 358 290 356.5 278.5 c 128,-1,70
 355 267 355 267 353 253 c 2,71,-1
 312 40 l 1,72,-1
 270 40 l 1,14,-1
EndSplineSet
EndChar
StartChar: A
Encoding: 65 65 36
Width: 364
Flags: W
Fore
109 163 m 1,0,-1
 236 163 l 1,1,-1
 217 391 l 1,2,-1
 109 163 l 1,0,-1
261 440 m 1,3,-1
 310 0 l 1,4,-1
 251 0 l 1,5,-1
 240 115 l 1,6,-1
 87 115 l 1,7,-1
 33 0 l 1,8,-1
 -31 0 l 1,9,-1
 189 440 l 1,10,-1
 261 440 l 1,3,-1
EndSplineSet
KernsSLIFO: 57 -50 0 0
EndChar
StartChar: B
Encoding: 66 66 37
Width: 364
Flags: W
Fore
76 49 m 1,0,-1
 149 49 l 2,1,2
 261 49 261 49 261 149 c 0,3,4
 261 210 261 210 179 210 c 2,5,-1
 108 210 l 1,6,-1
 76 49 l 1,0,-1
117 259 m 1,7,-1
 189 259 l 2,8,9
 234 259 234 259 258 280 c 0,10,11
 284 300 284 300 284 339 c 0,12,13
 284 367 284 367 268 379 c 128,-1,14
 252 391 252 391 214 391 c 2,15,-1
 142 391 l 1,16,-1
 117 259 l 1,7,-1
223 440 m 2,17,18
 344 440 344 440 344 348 c 0,19,20
 344 302 344 302 317 272 c 256,21,22
 290 242 290 242 244 236 c 1,23,24
 281 229 281 229 300.5 205.5 c 128,-1,25
 320 182 320 182 320 146 c 0,26,27
 320 77 320 77 273 38 c 0,28,29
 226 0 226 0 140 0 c 2,30,-1
 7 0 l 1,31,-1
 92 440 l 1,32,-1
 223 440 l 2,17,18
EndSplineSet
EndChar
StartChar: C
Encoding: 67 67 38
Width: 364
Flags: W
Fore
278 16 m 1,0,1
 229 -9 229 -9 176 -9 c 0,2,3
 108 -9 108 -9 71 31 c 0,4,5
 34 69 34 69 34 141 c 0,6,7
 34 206 34 206 55 269 c 0,8,9
 75 334 75 334 109 373 c 0,10,11
 141 412 141 412 178.5 430 c 128,-1,12
 216 448 216 448 265 448 c 0,13,14
 313 448 313 448 358 424 c 1,15,-1
 345 363 l 1,16,17
 308 400 308 400 261 400 c 0,18,19
 206 400 206 400 164 352 c 0,20,21
 149 333 149 333 136.5 310 c 128,-1,22
 124 287 124 287 115 259 c 0,23,24
 96 203 96 203 96 145 c 0,25,26
 96 94 96 94 119 67 c 128,-1,27
 142 40 142 40 186 40 c 0,28,29
 236 40 236 40 290 77 c 1,30,-1
 278 16 l 1,31,-1
 278 16 l 1,0,1
EndSplineSet
EndChar
StartChar: D
Encoding: 68 68 39
Width: 364
Flags: W
Fore
96 49 m 1,0,1
 150 49 150 49 183 67 c 0,2,3
 217 87 217 87 236 127 c 0,4,5
 244 144 244 144 250.5 164.5 c 128,-1,6
 257 185 257 185 262 208 c 0,7,8
 267 232 267 232 270 253.5 c 128,-1,9
 273 275 273 275 273 295 c 0,10,11
 273 347 273 347 248 369 c 0,12,13
 225 391 225 391 167 391 c 2,14,-1
 134 391 l 1,15,-1
 67 49 l 1,16,-1
 96 49 l 1,17,-1
 96 49 l 1,0,1
173 440 m 1,18,19
 333 440 333 440 333 293 c 0,20,21
 333 245 333 245 321 194 c 0,22,23
 315 168 315 168 306.5 146 c 128,-1,24
 298 124 298 124 288 104 c 0,25,26
 256 47 256 47 211 24 c 0,27,28
 166 0 166 0 87 0 c 2,29,-1
 -2 0 l 1,30,-1
 83 440 l 1,31,-1
 173 440 l 1,32,-1
 173 440 l 1,18,19
EndSplineSet
EndChar
StartChar: E
Encoding: 69 69 40
Width: 364
Flags: W
Fore
363 440 m 1,0,-1
 353 390 l 1,1,-1
 151 390 l 1,2,-1
 126 260 l 1,3,-1
 318 260 l 1,4,-1
 309 210 l 1,5,-1
 116 210 l 1,6,-1
 85 50 l 1,7,-1
 292 50 l 1,8,-1
 283 0 l 1,9,-1
 16 0 l 1,10,-1
 101 440 l 1,11,-1
 363 440 l 1,0,-1
EndSplineSet
EndChar
StartChar: F
Encoding: 70 70 41
Width: 364
Flags: W
Fore
372 440 m 1,0,-1
 363 390 l 1,1,-1
 163 390 l 1,2,-1
 138 260 l 1,3,-1
 318 260 l 1,4,-1
 309 210 l 1,5,-1
 128 210 l 1,6,-1
 87 0 l 1,7,-1
 27 0 l 1,8,-1
 113 440 l 1,9,-1
 372 440 l 1,0,-1
EndSplineSet
EndChar
StartChar: G
Encoding: 71 71 42
Width: 364
Flags: W
Fore
286 28 m 1,0,1
 234 -9 234 -9 165 -9 c 256,2,3
 96 -9 96 -9 59.5 30.5 c 128,-1,4
 23 70 23 70 23 144 c 0,5,6
 23 171 23 171 28 201 c 128,-1,7
 33 231 33 231 42 263 c 0,8,9
 63 333 63 333 97 373 c 0,10,11
 129 412 129 412 167 430 c 128,-1,12
 205 448 205 448 254 448 c 0,13,14
 302 448 302 448 347 424 c 1,15,-1
 335 363 l 1,16,17
 297 400 297 400 250 400 c 0,18,19
 191 400 191 400 150 352 c 0,20,21
 124 321 124 321 105 262 c 0,22,23
 85 193 85 193 85 145 c 0,24,25
 85 94 85 94 108 67 c 128,-1,26
 131 40 131 40 174 40 c 0,27,28
 215 40 215 40 237 61 c 1,29,-1
 259 177 l 1,30,-1
 195 177 l 1,31,-1
 204 226 l 1,32,-1
 325 226 l 1,33,-1
 286 28 l 1,34,-1
 286 28 l 1,0,1
EndSplineSet
EndChar
StartChar: H
Encoding: 72 72 43
Width: 364
Flags: W
Fore
143 440 m 1,0,-1
 108 260 l 1,1,-1
 271 260 l 1,2,-1
 306 440 l 1,3,-1
 366 440 l 1,4,-1
 280 0 l 1,5,-1
 221 0 l 1,6,-1
 262 210 l 1,7,-1
 98 210 l 1,8,-1
 58 0 l 1,9,-1
 -2 0 l 1,10,-1
 83 440 l 1,11,-1
 143 440 l 1,0,-1
EndSplineSet
EndChar
StartChar: I
Encoding: 73 73 44
Width: 364
Flags: W
Fore
347 440 m 1,0,-1
 337 390 l 1,1,-1
 245 390 l 1,2,-1
 179 50 l 1,3,-1
 271 50 l 1,4,-1
 262 0 l 1,5,-1
 17 0 l 1,6,-1
 27 50 l 1,7,-1
 119 50 l 1,8,-1
 185 390 l 1,9,-1
 92 390 l 1,10,-1
 102 440 l 1,11,-1
 347 440 l 1,0,-1
EndSplineSet
EndChar
StartChar: J
Encoding: 74 74 45
Width: 364
Flags: W
Fore
6 88 m 1,0,1
 49 40 49 40 112 40 c 0,2,3
 153 40 153 40 174 61 c 0,4,5
 195 84 195 84 207 144 c 2,6,-1
 255 390 l 1,7,-1
 143 390 l 1,8,-1
 153 440 l 1,9,-1
 325 440 l 1,10,-1
 267 144 l 2,11,12
 250 57 250 57 215 25 c 0,13,14
 178 -9 178 -9 109 -9 c 0,15,16
 80 -9 80 -9 51 -2 c 128,-1,17
 22 5 22 5 -7 18 c 1,18,-1
 6 88 l 1,0,1
EndSplineSet
EndChar
StartChar: K
Encoding: 75 75 46
Width: 364
Flags: W
Fore
143 440 m 1,0,-1
 106 250 l 1,1,-1
 325 440 l 1,2,-1
 399 440 l 1,3,-1
 192 258 l 1,4,-1
 318 0 l 1,5,-1
 254 0 l 1,6,-1
 148 219 l 1,7,-1
 91 169 l 1,8,-1
 58 0 l 1,9,-1
 -2 0 l 1,10,-1
 83 440 l 1,11,-1
 143 440 l 1,0,-1
EndSplineSet
EndChar
StartChar: L
Encoding: 76 76 47
Width: 364
Flags: W
Fore
168 440 m 1,0,-1
 92 50 l 1,1,-1
 305 50 l 1,2,-1
 295 0 l 1,3,-1
 23 0 l 1,4,-1
 109 440 l 1,5,-1
 168 440 l 1,0,-1
EndSplineSet
EndChar
StartChar: M
Encoding: 77 77 48
Width: 364
Flags: W
Fore
147 440 m 1,0,-1
 179 217 l 1,1,-1
 301 440 l 1,2,-1
 381 440 l 1,3,-1
 295 0 l 1,4,-1
 240 0 l 1,5,-1
 317 391 l 1,6,-1
 189 157 l 1,7,-1
 147 157 l 1,8,-1
 113 391 l 1,9,-1
 37 0 l 1,10,-1
 -17 0 l 1,11,-1
 68 440 l 1,12,-1
 147 440 l 1,0,-1
EndSplineSet
EndChar
StartChar: N
Encoding: 78 78 49
Width: 364
Flags: W
Fore
160 440 m 1,0,-1
 237 78 l 1,1,-1
 308 440 l 1,2,-1
 366 440 l 1,3,-1
 280 0 l 1,4,-1
 204 0 l 1,5,-1
 126 363 l 1,6,-1
 55 0 l 1,7,-1
 -2 0 l 1,8,-1
 84 440 l 1,9,-1
 160 440 l 1,0,-1
EndSplineSet
EndChar
StartChar: O
Encoding: 79 79 50
Width: 364
Flags: W
Fore
148 40 m 0,0,1
 173 40 173 40 194.5 54.5 c 128,-1,2
 216 69 216 69 230 98 c 0,3,4
 241 120 241 120 249.5 145.5 c 128,-1,5
 258 171 258 171 265 201 c 0,6,7
 278 260 278 260 278 318 c 0,8,9
 278 400 278 400 215 400 c 0,10,11
 190 400 190 400 169 385 c 128,-1,12
 148 370 148 370 134 342 c 0,13,14
 112 299 112 299 98 238 c 0,15,16
 85 180 85 180 85 122 c 0,17,18
 85 40 85 40 148 40 c 0,0,1
340 301 m 0,19,20
 340 269 340 269 333 231 c 128,-1,21
 326 193 326 193 314 152 c 0,22,23
 297 100 297 100 274 65 c 0,24,25
 248 27 248 27 216 9 c 128,-1,26
 184 -9 184 -9 141 -9 c 0,27,28
 24 -9 24 -9 24 140 c 0,29,30
 24 205 24 205 50 288 c 0,31,32
 58 315 58 315 68 336.5 c 128,-1,33
 78 358 78 358 89 375 c 0,34,35
 115 413 115 413 147 430.5 c 128,-1,36
 179 448 179 448 222 448 c 0,37,38
 282 448 282 448 311 412 c 128,-1,39
 340 376 340 376 340 301 c 0,19,20
EndSplineSet
EndChar
StartChar: P
Encoding: 80 80 51
Width: 364
Flags: W
Fore
119 226 m 1,0,-1
 188 226 l 2,1,2
 237 226 237 226 266 254 c 0,3,4
 295 283 295 283 295 329 c 0,5,6
 295 391 295 391 220 391 c 2,7,-1
 151 391 l 1,8,-1
 119 226 l 1,0,-1
231 440 m 2,9,10
 292 440 292 440 323.5 413 c 128,-1,11
 355 386 355 386 355 335 c 0,12,13
 355 260 355 260 308 219 c 0,14,15
 260 177 260 177 178 177 c 2,16,-1
 109 177 l 1,17,-1
 75 0 l 1,18,-1
 15 0 l 1,19,-1
 101 440 l 1,20,-1
 231 440 l 2,9,10
EndSplineSet
EndChar
StartChar: Q
Encoding: 81 81 52
Width: 364
Flags: W
Fore
146 -8 m 2,0,1
 83 -8 83 -8 53 27 c 0,2,3
 24 62 24 62 24 140 c 0,4,5
 24 205 24 205 50 288 c 0,6,7
 58 315 58 315 68 336.5 c 128,-1,8
 78 358 78 358 89 375 c 0,9,10
 115 413 115 413 147 430.5 c 128,-1,11
 179 448 179 448 222 448 c 0,12,13
 282 448 282 448 311 412 c 128,-1,14
 340 376 340 376 340 301 c 0,15,16
 340 252 340 252 323 186 c 0,17,18
 305 118 305 118 284 81 c 0,19,20
 252 23 252 23 204 3 c 1,21,-1
 249 -53 l 1,22,-1
 204 -80 l 1,23,-1
 149 -8 l 1,24,-1
 146 -8 l 2,0,1
148 40 m 0,25,26
 173 40 173 40 194.5 54.5 c 128,-1,27
 216 69 216 69 230 98 c 0,28,29
 241 120 241 120 249.5 145.5 c 128,-1,30
 258 171 258 171 265 201 c 0,31,32
 278 260 278 260 278 318 c 0,33,34
 278 400 278 400 215 400 c 0,35,36
 190 400 190 400 169 385 c 128,-1,37
 148 370 148 370 134 342 c 0,38,39
 112 299 112 299 98 238 c 0,40,41
 85 180 85 180 85 122 c 0,42,43
 85 40 85 40 148 40 c 0,25,26
EndSplineSet
EndChar
StartChar: R
Encoding: 82 82 53
Width: 364
Flags: W
Fore
226 208 m 1,0,1
 247 203 247 203 260 188 c 0,2,3
 273 172 273 172 289 120 c 2,4,-1
 325 0 l 1,5,-1
 265 0 l 1,6,-1
 234 111 l 2,7,8
 220 158 220 158 205 172 c 0,9,10
 188 186 188 186 156 186 c 2,11,-1
 100 186 l 1,12,-1
 63 0 l 1,13,-1
 4 0 l 1,14,-1
 89 440 l 1,15,-1
 212 440 l 2,16,17
 273 440 273 440 306.5 414 c 128,-1,18
 340 388 340 388 340 340 c 0,19,20
 340 287 340 287 309 250 c 0,21,22
 278 214 278 214 226 208 c 1,0,1
109 235 m 1,23,-1
 174 235 l 2,24,25
 223 235 223 235 251 260 c 0,26,27
 280 286 280 286 280 327 c 0,28,29
 280 360 280 360 261.5 375.5 c 128,-1,30
 243 391 243 391 202 391 c 2,31,-1
 140 391 l 1,32,-1
 109 235 l 1,23,-1
EndSplineSet
EndChar
StartChar: S
Encoding: 83 83 54
Width: 364
Flags: W
Fore
327 365 m 1,0,1
 278 400 278 400 224 400 c 0,2,3
 175 400 175 400 145 376 c 0,4,5
 114 352 114 352 114 314 c 0,6,7
 114 294 114 294 129 280 c 0,8,9
 144 267 144 267 181 255 c 2,10,-1
 217 244 l 2,11,12
 265 229 265 229 287 204.5 c 128,-1,13
 309 180 309 180 309 142 c 0,14,15
 309 72 309 72 260 32 c 0,16,17
 211 -9 211 -9 127 -9 c 0,18,19
 67 -9 67 -9 7 18 c 1,20,-1
 19 80 l 1,21,22
 77 40 77 40 141 40 c 0,23,24
 190 40 190 40 220 66 c 256,25,26
 250 92 250 92 250 132 c 0,27,28
 250 156 250 156 237 169 c 0,29,30
 226 181 226 181 185 194 c 2,31,-1
 155 204 l 2,32,33
 128 213 128 213 109 222.5 c 128,-1,34
 90 232 90 232 79 243 c 0,35,36
 58 264 58 264 58 300 c 0,37,38
 58 365 58 365 106 407 c 0,39,40
 154 448 154 448 233 448 c 0,41,42
 281 448 281 448 338 425 c 1,43,-1
 327 365 l 1,0,1
EndSplineSet
EndChar
StartChar: T
Encoding: 84 84 55
Width: 364
Flags: W
Fore
393 440 m 1,0,-1
 384 390 l 1,1,-1
 245 390 l 1,2,-1
 170 0 l 1,3,-1
 109 0 l 1,4,-1
 186 390 l 1,5,-1
 47 390 l 1,6,-1
 57 440 l 1,7,-1
 393 440 l 1,0,-1
EndSplineSet
EndChar
StartChar: U
Encoding: 85 85 56
Width: 364
Flags: W
Fore
86 440 m 1,0,-1
 146 440 l 1,1,-1
 94 169 l 1,2,3
 93 167 93 167 92.5 164.5 c 128,-1,4
 92 162 92 162 91 157 c 0,5,6
 82 112 82 112 82 94 c 0,7,8
 82 40 82 40 147 40 c 0,9,10
 173 40 173 40 191 48 c 128,-1,11
 209 56 209 56 223 75 c 0,12,13
 230 84 230 84 236.5 106 c 128,-1,14
 243 128 243 128 251 169 c 2,15,-1
 303 440 l 1,16,-1
 363 440 l 1,17,-1
 311 169 l 2,18,19
 304 137 304 137 298 113 c 128,-1,20
 292 89 292 89 284 74 c 0,21,22
 271 44 271 44 247 25 c 0,23,24
 204 -9 204 -9 141 -9 c 0,25,26
 84 -9 84 -9 54 17.5 c 128,-1,27
 24 44 24 44 24 94 c 0,28,29
 24 116 24 116 34 169 c 2,30,-1
 86 440 l 1,0,-1
EndSplineSet
EndChar
StartChar: V
Encoding: 86 86 57
Width: 364
Flags: W
Fore
327 440 m 1,0,-1
 390 440 l 1,1,-1
 178 0 l 1,2,-1
 102 0 l 1,3,-1
 59 440 l 1,4,-1
 117 440 l 1,5,-1
 150 56 l 1,6,-1
 327 440 l 1,0,-1
EndSplineSet
KernsSLIFO: 36 -50 0 0
EndChar
StartChar: W
Encoding: 87 87 58
Width: 364
Flags: W
Fore
99 440 m 1,0,-1
 73 83 l 1,1,-1
 170 319 l 1,2,-1
 232 319 l 1,3,-1
 236 83 l 1,4,-1
 348 440 l 1,5,-1
 406 440 l 1,6,-1
 255 0 l 1,7,-1
 198 0 l 1,8,-1
 189 257 l 1,9,-1
 80 0 l 1,10,-1
 24 0 l 1,11,-1
 43 440 l 1,12,-1
 99 440 l 1,0,-1
EndSplineSet
EndChar
StartChar: X
Encoding: 88 88 59
Width: 364
Flags: W
Fore
130 440 m 1,0,-1
 196 283 l 1,1,-1
 326 440 l 1,2,-1
 394 440 l 1,3,-1
 219 228 l 1,4,-1
 314 0 l 1,5,-1
 255 0 l 1,6,-1
 180 181 l 1,7,-1
 31 0 l 1,8,-1
 -37 0 l 1,9,-1
 156 235 l 1,10,-1
 71 440 l 1,11,-1
 130 440 l 1,0,-1
EndSplineSet
EndChar
StartChar: Y
Encoding: 89 89 60
Width: 364
Flags: W
Fore
117 440 m 1,0,-1
 187 248 l 1,1,-1
 333 440 l 1,2,-1
 398 440 l 1,3,-1
 210 198 l 1,4,-1
 172 0 l 1,5,-1
 111 0 l 1,6,-1
 150 198 l 1,7,-1
 58 440 l 1,8,-1
 117 440 l 1,0,-1
EndSplineSet
EndChar
StartChar: Z
Encoding: 90 90 61
Width: 364
Flags: W
Fore
376 440 m 1,0,-1
 367 395 l 1,1,-1
 78 50 l 1,2,-1
 307 50 l 1,3,-1
 297 0 l 1,4,-1
 -2 0 l 1,5,-1
 7 45 l 1,6,-1
 295 390 l 1,7,-1
 80 390 l 1,8,-1
 90 440 l 1,9,-1
 376 440 l 1,0,-1
EndSplineSet
EndChar
StartChar: bracketleft
Encoding: 91 91 62
Width: 364
Flags: W
Fore
308 459 m 1,0,-1
 300 417 l 1,1,-1
 229 417 l 1,2,-1
 141 -37 l 1,3,-1
 212 -37 l 1,4,-1
 204 -80 l 1,5,-1
 78 -80 l 1,6,-1
 183 459 l 1,7,-1
 308 459 l 1,0,-1
EndSplineSet
EndChar
StartChar: backslash
Encoding: 92 92 63
Width: 364
Flags: W
Fore
164 -56 m 1,0,-1
 105 440 l 1,1,-1
 155 440 l 1,2,-1
 214 -56 l 1,3,-1
 164 -56 l 1,0,-1
EndSplineSet
EndChar
StartChar: bracketright
Encoding: 93 93 64
Width: 364
Flags: W
Fore
168 -80 m 1,0,-1
 43 -80 l 1,1,-1
 52 -37 l 1,2,-1
 123 -37 l 1,3,-1
 211 417 l 1,4,-1
 140 417 l 1,5,-1
 149 459 l 1,6,-1
 274 459 l 1,7,-1
 168 -80 l 1,0,-1
EndSplineSet
EndChar
StartChar: asciicircum
Encoding: 94 94 65
Width: 364
Flags: W
Fore
342 276 m 1,0,-1
 290 276 l 1,1,-1
 182 393 l 1,2,-1
 74 276 l 1,3,-1
 21 276 l 1,4,-1
 156 440 l 1,5,-1
 208 440 l 1,6,-1
 342 276 l 1,0,-1
EndSplineSet
EndChar
StartChar: underscore
Encoding: 95 95 66
Width: 364
Flags: W
Fore
302 -142 m 1,0,-1
 0 -142 l 1,1,-1
 0 -119 l 1,2,-1
 302 -119 l 1,3,-1
 302 -142 l 1,0,-1
EndSplineSet
EndChar
StartChar: grave
Encoding: 96 96 67
Width: 364
Flags: W
Fore
250 372 m 1,0,-1
 208 372 l 1,1,-1
 134 483 l 1,2,-1
 192 483 l 1,3,-1
 250 372 l 1,0,-1
EndSplineSet
EndChar
StartChar: a
Encoding: 97 97 68
Width: 364
Flags: W
Fore
204 166 m 1,0,1
 187 166 187 166 173.5 165.5 c 128,-1,2
 160 165 160 165 152 164 c 0,3,4
 133 161 133 161 122 156 c 0,5,6
 102 148 102 148 90 130 c 256,7,8
 78 112 78 112 78 91 c 0,9,10
 78 66 78 66 93 51.5 c 128,-1,11
 108 37 108 37 134 37 c 0,12,13
 179 37 179 37 209 68 c 0,14,15
 241 98 241 98 253 154 c 2,16,-1
 255 166 l 1,17,-1
 204 166 l 1,18,-1
 204 166 l 1,0,1
277 0 m 1,19,-1
 222 0 l 1,20,-1
 232 49 l 1,21,22
 211 21 211 21 182 6 c 128,-1,23
 153 -9 153 -9 120 -9 c 0,24,25
 76 -9 76 -9 48 16 c 0,26,27
 21 40 21 40 21 81 c 0,28,29
 21 140 21 140 67 174 c 0,30,31
 113 209 113 209 190 209 c 2,32,-1
 263 209 l 1,33,-1
 266 227 l 1,34,35
 267 229 267 229 267.5 232 c 128,-1,36
 268 235 268 235 268 240 c 0,37,38
 268 266 268 266 249.5 279 c 128,-1,39
 231 292 231 292 196 292 c 0,40,41
 145 292 145 292 79 262 c 1,42,-1
 89 315 l 1,43,44
 151 338 151 338 205 338 c 0,45,46
 260 338 260 338 290 314 c 0,47,48
 321 289 321 289 321 247 c 0,49,50
 321 238 321 238 319 222.5 c 128,-1,51
 317 207 317 207 314 189 c 2,52,-1
 277 0 l 1,19,-1
EndSplineSet
Substitution: 0 65534 'L019' uni0E38
Substitution: 0 65534 'L019' uni0E38
EndChar
StartChar: b
Encoding: 98 98 69
Width: 364
Flags: W
Fore
159 37 m 0,0,1
 209 37 209 37 237 89 c 0,2,3
 253 119 253 119 260 151 c 0,4,5
 269 186 269 186 269 217 c 0,6,7
 269 293 269 293 209 293 c 0,8,9
 160 293 160 293 129 240 c 0,10,11
 115 213 115 213 106 180 c 0,12,13
 102 163 102 163 100 146.5 c 128,-1,14
 98 130 98 130 98 113 c 0,15,16
 98 77 98 77 114 57 c 128,-1,17
 130 37 130 37 159 37 c 0,0,1
128 288 m 1,18,19
 166 338 166 338 225 338 c 0,20,21
 273 338 273 338 300 308 c 0,22,23
 327 277 327 277 327 222 c 0,24,25
 327 179 327 179 315 137 c 0,26,27
 302 93 302 93 281 63 c 0,28,29
 259 29 259 29 227 10 c 128,-1,30
 195 -9 195 -9 158 -9 c 0,31,32
 100 -9 100 -9 80 42 c 1,33,-1
 72 0 l 1,34,-1
 17 0 l 1,35,-1
 107 459 l 1,36,-1
 161 459 l 1,37,-1
 128 288 l 1,38,-1
 128 288 l 1,18,19
EndSplineSet
Substitution: 0 65534 'L019' uni0E39
Substitution: 0 65534 'L019' uni0E39
EndChar
StartChar: c
Encoding: 99 99 70
Width: 364
Flags: W
Fore
277 15 m 1,0,1
 256 4 256 4 231 -2.5 c 128,-1,2
 206 -9 206 -9 180 -9 c 0,3,4
 46 -9 46 -9 46 123 c 0,5,6
 46 168 46 168 62 209 c 0,7,8
 77 252 77 252 104 280 c 0,9,10
 159 338 159 338 237 338 c 0,11,12
 289 338 289 338 335 313 c 1,13,-1
 325 259 l 1,14,15
 288 292 288 292 239 292 c 0,16,17
 174 292 174 292 138 240 c 0,18,19
 130 228 130 228 123.5 214 c 128,-1,20
 117 200 117 200 112 184 c 0,21,22
 103 154 103 154 103 123 c 0,23,24
 103 37 103 37 184 37 c 0,25,26
 213 37 213 37 238.5 46.5 c 128,-1,27
 264 56 264 56 289 74 c 1,28,-1
 277 15 l 1,29,-1
 277 15 l 1,0,1
EndSplineSet
Substitution: 0 65534 'L019' uni0E3A
Substitution: 0 65534 'L019' uni0E3A
EndChar
StartChar: d
Encoding: 100 100 71
Width: 364
Flags: W
Fore
202 292 m 0,0,1
 150 292 150 292 123 241 c 0,2,3
 109 215 109 215 101 181 c 128,-1,4
 93 147 93 147 93 113 c 0,5,6
 93 37 93 37 153 37 c 0,7,8
 205 37 205 37 232 90 c 0,9,10
 248 117 248 117 255 150 c 0,11,12
 260 167 260 167 261.5 183.5 c 128,-1,13
 263 200 263 200 263 217 c 0,14,15
 263 253 263 253 247 272.5 c 128,-1,16
 231 292 231 292 202 292 c 0,0,1
315 459 m 1,17,-1
 370 459 l 1,18,-1
 280 0 l 1,19,-1
 226 0 l 1,20,-1
 234 42 l 1,21,22
 194 -9 194 -9 137 -9 c 0,23,24
 90 -9 90 -9 62 22 c 0,25,26
 35 54 35 54 35 109 c 0,27,28
 35 151 35 151 47 194 c 0,29,30
 53 215 53 215 60.5 233.5 c 128,-1,31
 68 252 68 252 79 268 c 0,32,33
 125 338 125 338 198 338 c 0,34,35
 257 338 257 338 281 288 c 1,36,-1
 315 459 l 1,17,-1
EndSplineSet
EndChar
StartChar: e
Encoding: 101 101 72
Width: 364
Flags: W
Fore
277 194 m 1,0,1
 279 202 279 202 279.5 207 c 128,-1,2
 280 212 280 212 280 217 c 0,3,4
 280 253 280 253 261 272.5 c 128,-1,5
 242 292 242 292 207 292 c 256,6,7
 172 292 172 292 141 266 c 0,8,9
 110 238 110 238 98 194 c 1,10,-1
 277 194 l 1,11,-1
 277 194 l 1,0,1
283 17 m 1,12,13
 252 4 252 4 223 -2.5 c 128,-1,14
 194 -9 194 -9 163 -9 c 0,15,16
 97 -9 97 -9 63 24 c 128,-1,17
 29 57 29 57 29 120 c 0,18,19
 29 166 29 166 47 211 c 0,20,21
 64 255 64 255 96 287 c 0,22,23
 145 339 145 339 212 339 c 0,24,25
 266 339 266 339 299 305 c 0,26,27
 332 272 332 272 332 215 c 0,28,29
 332 205 332 205 330.5 190 c 128,-1,30
 329 175 329 175 326 152 c 1,31,-1
 88 152 l 1,32,33
 84 136 84 136 84 122 c 0,34,35
 84 37 84 37 173 37 c 0,36,37
 224 37 224 37 294 71 c 1,38,-1
 283 17 l 1,39,-1
 283 17 l 1,12,13
EndSplineSet
EndChar
StartChar: f
Encoding: 102 102 73
Width: 364
Flags: W
Fore
358 414 m 1,0,-1
 297 414 l 2,1,2
 268 414 268 414 254 401.5 c 128,-1,3
 240 389 240 389 235 360 c 2,4,-1
 228 330 l 1,5,-1
 342 330 l 1,6,-1
 334 288 l 1,7,-1
 221 288 l 1,8,-1
 164 0 l 1,9,-1
 110 0 l 1,10,-1
 166 288 l 1,11,-1
 78 288 l 1,12,-1
 86 330 l 1,13,-1
 174 330 l 1,14,-1
 179 353 l 2,15,16
 189 409 189 409 218 435 c 0,17,18
 247 459 247 459 302 459 c 2,19,-1
 367 459 l 1,20,-1
 358 414 l 1,0,-1
EndSplineSet
EndChar
StartChar: g
Encoding: 103 103 74
Width: 364
Flags: W
Fore
151 43 m 0,0,1
 199 43 199 43 227 94 c 0,2,3
 235 108 235 108 240 122.5 c 128,-1,4
 245 137 245 137 250 154 c 0,5,6
 258 189 258 189 258 218 c 0,7,8
 258 253 258 253 241.5 272.5 c 128,-1,9
 225 292 225 292 195 292 c 0,10,11
 150 292 150 292 119 242 c 0,12,13
 88 193 88 193 88 118 c 0,14,15
 88 83 88 83 104.5 63 c 128,-1,16
 121 43 121 43 151 43 c 0,0,1
278 21 m 1,17,18
 263 -59 263 -59 223 -94 c 0,19,20
 183 -130 183 -130 111 -130 c 0,21,22
 86 -130 86 -130 63 -126 c 128,-1,23
 40 -122 40 -122 17 -114 c 1,24,-1
 28 -60 l 1,25,26
 72 -86 72 -86 120 -86 c 0,27,28
 163 -86 163 -86 188 -63 c 0,29,30
 213 -38 213 -38 223 16 c 2,31,-1
 230 50 l 1,32,33
 195 -2 195 -2 129 -2 c 0,34,35
 84 -2 84 -2 57 29 c 0,36,37
 30 61 30 61 30 115 c 0,38,39
 30 157 30 157 42 197 c 0,40,41
 54 238 54 238 75 269 c 0,42,43
 97 302 97 302 127.5 320 c 128,-1,44
 158 338 158 338 191 338 c 0,45,46
 221 338 221 338 243 324 c 128,-1,47
 265 310 265 310 276 285 c 1,48,-1
 283 329 l 1,49,-1
 338 329 l 1,50,-1
 278 21 l 1,51,-1
 278 21 l 1,17,18
EndSplineSet
EndChar
StartChar: h
Encoding: 104 104 75
Width: 364
Flags: W
Fore
277 0 m 1,0,-1
 223 0 l 1,1,-1
 263 205 l 2,2,3
 263 207 263 207 264 209 c 1,4,5
 268 228 268 228 268 242 c 0,6,7
 268 291 268 291 215 291 c 0,8,9
 177 291 177 291 151 264 c 128,-1,10
 125 237 125 237 115 187 c 2,11,-1
 79 0 l 1,12,-1
 25 0 l 1,13,-1
 114 459 l 1,14,-1
 168 459 l 1,15,-1
 134 281 l 1,16,17
 179 338 179 338 237 338 c 0,18,19
 278 338 278 338 300.5 316.5 c 128,-1,20
 323 295 323 295 323 257 c 0,21,22
 323 248 323 248 321.5 234 c 128,-1,23
 320 220 320 220 317 205 c 2,24,-1
 277 0 l 1,0,-1
EndSplineSet
EndChar
StartChar: i
Encoding: 105 105 76
Width: 364
Flags: W
Fore
245 330 m 1,0,-1
 189 42 l 1,1,-1
 296 42 l 1,2,-1
 288 0 l 1,3,-1
 18 0 l 1,4,-1
 27 42 l 1,5,-1
 134 42 l 1,6,-1
 182 288 l 1,7,-1
 97 288 l 1,8,-1
 106 330 l 1,9,-1
 245 330 l 1,0,-1
269 459 m 1,10,-1
 256 390 l 1,11,-1
 202 390 l 1,12,-1
 215 459 l 1,13,-1
 269 459 l 1,10,-1
EndSplineSet
EndChar
StartChar: j
Encoding: 106 106 77
Width: 364
Flags: W
Fore
204 288 m 1,0,-1
 110 288 l 1,1,-1
 118 330 l 1,2,-1
 266 330 l 1,3,-1
 201 -6 l 2,4,5
 189 -68 189 -68 159 -97 c 0,6,7
 130 -126 130 -126 76 -126 c 2,8,-1
 1 -126 l 1,9,-1
 10 -80 l 1,10,-1
 79 -80 l 2,11,12
 108 -80 108 -80 123.5 -62.5 c 128,-1,13
 139 -45 139 -45 147 -6 c 2,14,-1
 204 288 l 1,0,-1
291 459 m 1,15,-1
 278 390 l 1,16,-1
 224 390 l 1,17,-1
 237 459 l 1,18,-1
 291 459 l 1,15,-1
EndSplineSet
EndChar
StartChar: k
Encoding: 107 107 78
Width: 364
Flags: W
Fore
172 459 m 1,0,-1
 122 201 l 1,1,-1
 284 330 l 1,2,-1
 355 330 l 1,3,-1
 202 206 l 1,4,-1
 312 0 l 1,5,-1
 249 0 l 1,6,-1
 158 172 l 1,7,-1
 109 132 l 1,8,-1
 83 0 l 1,9,-1
 27 0 l 1,10,-1
 116 459 l 1,11,-1
 172 459 l 1,0,-1
EndSplineSet
EndChar
StartChar: l
Encoding: 108 108 79
Width: 364
Flags: W
Fore
177 120 m 1,0,1
 173 101 173 101 173 89 c 0,2,3
 173 46 173 46 226 46 c 2,4,-1
 288 46 l 1,5,-1
 279 0 l 1,6,-1
 218 0 l 2,7,8
 117 0 117 0 117 76 c 0,9,10
 117 95 117 95 123 122 c 2,11,-1
 185 420 l 1,12,-1
 92 420 l 1,13,-1
 100 462 l 1,14,-1
 248 462 l 1,15,-1
 177 120 l 1,16,-1
 177 120 l 1,0,1
EndSplineSet
EndChar
StartChar: m
Encoding: 109 109 80
Width: 364
Flags: W
Fore
221 297 m 1,0,1
 244 338 244 338 292 338 c 0,2,3
 318 338 318 338 333 322 c 128,-1,4
 348 306 348 306 348 279 c 0,5,6
 348 263 348 263 345 243 c 128,-1,7
 342 223 342 223 336 191 c 2,8,-1
 299 0 l 1,9,-1
 249 0 l 1,10,-1
 286 189 l 2,11,12
 291 216 291 216 294 233 c 128,-1,13
 297 250 297 250 297 258 c 0,14,15
 297 293 297 293 268 293 c 0,16,17
 247 293 247 293 234 274 c 256,18,19
 221 255 221 255 209 189 c 2,20,-1
 172 0 l 1,21,-1
 122 0 l 1,22,-1
 159 189 l 2,23,24
 164 218 164 218 167 234.5 c 128,-1,25
 170 251 170 251 170 258 c 0,26,27
 170 293 170 293 141 293 c 0,28,29
 119 293 119 293 107 275 c 0,30,31
 96 260 96 260 82 189 c 2,32,-1
 45 0 l 1,33,-1
 -4 0 l 1,34,-1
 60 330 l 1,35,-1
 109 330 l 1,36,-1
 104 302 l 1,37,38
 130 338 130 338 168 338 c 0,39,40
 215 338 215 338 221 297 c 1,0,1
EndSplineSet
EndChar
StartChar: n
Encoding: 110 110 81
Width: 364
Flags: W
Fore
277 0 m 1,0,-1
 223 0 l 1,1,-1
 263 205 l 2,2,3
 263 207 263 207 264 209 c 1,4,5
 268 228 268 228 268 242 c 0,6,7
 268 291 268 291 215 291 c 0,8,9
 177 291 177 291 151 264 c 128,-1,10
 125 237 125 237 115 187 c 2,11,-1
 79 0 l 1,12,-1
 25 0 l 1,13,-1
 89 330 l 1,14,-1
 144 330 l 1,15,-1
 134 281 l 1,16,17
 179 338 179 338 237 338 c 0,18,19
 278 338 278 338 300.5 316.5 c 128,-1,20
 323 295 323 295 323 257 c 0,21,22
 323 248 323 248 321.5 234 c 128,-1,23
 320 220 320 220 317 205 c 2,24,-1
 277 0 l 1,0,-1
EndSplineSet
EndChar
StartChar: o
Encoding: 111 111 82
Width: 364
Flags: W
Fore
205 292 m 0,0,1
 156 292 156 292 124 242 c 0,2,3
 92 190 92 190 92 114 c 0,4,5
 92 37 92 37 158 37 c 0,6,7
 206 37 206 37 239 88 c 0,8,9
 271 140 271 140 271 216 c 256,10,11
 271 292 271 292 205 292 c 0,0,1
210 338 m 0,12,13
 268 338 268 338 298.5 307 c 128,-1,14
 329 276 329 276 329 214 c 0,15,16
 329 174 329 174 317 133 c 0,17,18
 311 113 311 113 302.5 95.5 c 128,-1,19
 294 78 294 78 283 61 c 0,20,21
 236 -9 236 -9 149 -9 c 0,22,23
 94 -9 94 -9 64.5 23.5 c 128,-1,24
 35 56 35 56 35 116 c 0,25,26
 35 156 35 156 46.5 195.5 c 128,-1,27
 58 235 58 235 81 269 c 0,28,29
 129 338 129 338 210 338 c 0,12,13
EndSplineSet
EndChar
StartChar: p
Encoding: 112 112 83
Width: 364
Flags: W
Fore
54 -126 m 1,0,-1
 -1 -126 l 1,1,-1
 88 330 l 1,2,-1
 142 330 l 1,3,-1
 134 288 l 1,4,5
 172 338 172 338 232 338 c 0,6,7
 280 338 280 338 306.5 307.5 c 128,-1,8
 333 277 333 277 333 222 c 0,9,10
 333 179 333 179 321 137 c 0,11,12
 315 116 315 116 307.5 97.5 c 128,-1,13
 300 79 300 79 289 62 c 0,14,15
 243 -9 243 -9 171 -9 c 0,16,17
 113 -9 113 -9 86 42 c 1,18,-1
 54 -126 l 1,0,-1
168 37 m 0,19,20
 217 37 217 37 245 89 c 0,21,22
 252 103 252 103 257.5 118 c 128,-1,23
 263 133 263 133 267 150 c 0,24,25
 276 185 276 185 276 217 c 0,26,27
 276 292 276 292 215 292 c 0,28,29
 164 292 164 292 135 240 c 0,30,31
 128 226 128 226 122.5 211.5 c 128,-1,32
 117 197 117 197 113 180 c 0,33,34
 104 147 104 147 104 113 c 0,35,36
 104 77 104 77 120.5 57 c 128,-1,37
 137 37 137 37 168 37 c 0,19,20
EndSplineSet
EndChar
StartChar: q
Encoding: 113 113 84
Width: 364
Flags: W
Fore
228 42 m 1,0,1
 191 -9 191 -9 132 -9 c 0,2,3
 83 -9 83 -9 56 22 c 0,4,5
 29 52 29 52 29 108 c 0,6,7
 29 150 29 150 41 192 c 0,8,9
 53 235 53 235 74 268 c 0,10,11
 120 338 120 338 196 338 c 0,12,13
 255 338 255 338 276 288 c 1,14,-1
 284 330 l 1,15,-1
 338 330 l 1,16,-1
 250 -126 l 1,17,-1
 196 -126 l 1,18,-1
 228 42 l 1,19,-1
 228 42 l 1,0,1
197 292 m 0,20,21
 145 292 145 292 118 241 c 0,22,23
 111 227 111 227 105.5 211.5 c 128,-1,24
 100 196 100 196 95 179 c 0,25,26
 87 142 87 142 87 113 c 0,27,28
 87 37 87 37 147 37 c 0,29,30
 196 37 196 37 227 90 c 0,31,32
 234 103 234 103 239.5 118 c 128,-1,33
 245 133 245 133 249 150 c 0,34,35
 258 185 258 185 258 217 c 0,36,37
 258 292 258 292 197 292 c 0,20,21
EndSplineSet
EndChar
StartChar: r
Encoding: 114 114 85
Width: 364
Flags: W
Fore
349 262 m 1,0,1
 324 288 324 288 278 288 c 0,2,3
 230 288 230 288 196 254 c 0,4,5
 160 220 160 220 150 162 c 2,6,-1
 118 0 l 1,7,-1
 64 0 l 1,8,-1
 128 330 l 1,9,-1
 182 330 l 1,10,-1
 171 266 l 1,11,12
 211 338 211 338 293 338 c 0,13,14
 336 338 336 338 360 317 c 1,15,-1
 349 262 l 1,16,-1
 349 262 l 1,0,1
EndSplineSet
EndChar
StartChar: s
Encoding: 115 115 86
Width: 364
Flags: W
Fore
307 266 m 1,0,1
 263 293 263 293 217 293 c 0,2,3
 176 293 176 293 154 278 c 128,-1,4
 132 263 132 263 132 236 c 0,5,6
 132 207 132 207 198 190 c 0,7,8
 201 189 201 189 204 189 c 1,9,-1
 225 183 l 2,10,11
 294 165 294 165 294 111 c 256,12,13
 294 57 294 57 252 24 c 0,14,15
 209 -9 209 -9 139 -9 c 0,16,17
 93 -9 93 -9 34 12 c 1,18,-1
 45 68 l 1,19,20
 100 37 100 37 149 37 c 0,21,22
 188 37 188 37 213 54 c 0,23,24
 238 72 238 72 238 99 c 0,25,26
 238 128 238 128 180 144 c 0,27,28
 178 145 178 145 176 145 c 128,-1,29
 174 145 174 145 172 146 c 1,30,-1
 152 151 l 2,31,32
 78 170 78 170 78 229 c 0,33,34
 78 279 78 279 117 309 c 0,35,36
 157 338 157 338 222 338 c 0,37,38
 276 338 276 338 318 319 c 1,39,-1
 307 266 l 1,0,1
EndSplineSet
EndChar
StartChar: t
Encoding: 116 116 87
Width: 364
Flags: W
Fore
209 330 m 1,0,-1
 332 330 l 1,1,-1
 323 288 l 1,2,-1
 200 288 l 1,3,-1
 165 109 l 2,4,5
 163 100 163 100 162 92.5 c 128,-1,6
 161 85 161 85 161 78 c 0,7,8
 161 59 161 59 172.5 51 c 128,-1,9
 184 43 184 43 214 43 c 2,10,-1
 276 43 l 1,11,-1
 267 0 l 1,12,-1
 201 0 l 2,13,14
 151 0 151 0 128.5 16.5 c 128,-1,15
 106 33 106 33 106 68 c 0,16,17
 106 75 106 75 107 85 c 128,-1,18
 108 95 108 95 111 109 c 2,19,-1
 146 288 l 1,20,-1
 58 288 l 1,21,-1
 66 330 l 1,22,-1
 154 330 l 1,23,-1
 172 424 l 1,24,-1
 227 424 l 1,25,-1
 209 330 l 1,0,-1
EndSplineSet
EndChar
StartChar: u
Encoding: 117 117 88
Width: 364
Flags: W
Fore
81 330 m 1,0,-1
 136 330 l 1,1,-1
 96 126 l 2,2,3
 94 115 94 115 93 105 c 128,-1,4
 92 95 92 95 92 88 c 0,5,6
 92 39 92 39 144 39 c 0,7,8
 182 39 182 39 207.5 66 c 128,-1,9
 233 93 233 93 243 144 c 2,10,-1
 280 330 l 1,11,-1
 334 330 l 1,12,-1
 270 0 l 1,13,-1
 216 0 l 1,14,-1
 225 50 l 1,15,16
 183 -8 183 -8 120 -8 c 0,17,18
 81 -8 81 -8 59 14 c 0,19,20
 37 35 37 35 37 73 c 0,21,22
 37 84 37 84 38.5 98 c 128,-1,23
 40 112 40 112 42 126 c 2,24,-1
 81 330 l 1,0,-1
EndSplineSet
EndChar
StartChar: v
Encoding: 118 118 89
Width: 364
Flags: W
Fore
106 330 m 1,0,-1
 152 48 l 1,1,-1
 300 330 l 1,2,-1
 358 330 l 1,3,-1
 177 0 l 1,4,-1
 107 0 l 1,5,-1
 54 330 l 1,6,-1
 106 330 l 1,0,-1
EndSplineSet
EndChar
StartChar: w
Encoding: 119 119 90
Width: 364
Flags: W
Fore
79 330 m 1,0,-1
 83 63 l 1,1,-1
 163 234 l 1,2,-1
 210 234 l 1,3,-1
 225 63 l 1,4,-1
 332 330 l 1,5,-1
 388 330 l 1,6,-1
 245 0 l 1,7,-1
 196 0 l 1,8,-1
 178 184 l 1,9,-1
 91 0 l 1,10,-1
 42 0 l 1,11,-1
 27 330 l 1,12,-1
 79 330 l 1,0,-1
EndSplineSet
EndChar
StartChar: x
Encoding: 120 120 91
Width: 364
Flags: W
Fore
205 169 m 1,0,-1
 299 0 l 1,1,-1
 241 0 l 1,2,-1
 169 131 l 1,3,-1
 46 0 l 1,4,-1
 -21 0 l 1,5,-1
 146 176 l 1,6,-1
 59 330 l 1,7,-1
 117 330 l 1,8,-1
 181 214 l 1,9,-1
 290 330 l 1,10,-1
 356 330 l 1,11,-1
 205 169 l 1,0,-1
EndSplineSet
EndChar
StartChar: y
Encoding: 121 121 92
Width: 364
Flags: W
Fore
232 106 m 1,0,1
 223 90 223 90 211 69 c 128,-1,2
 199 48 199 48 183 21 c 0,3,4
 160 -20 160 -20 145 -45 c 128,-1,5
 130 -70 130 -70 122 -81 c 0,6,7
 88 -126 88 -126 32 -126 c 2,8,-1
 -12 -126 l 1,9,-1
 -3 -80 l 1,10,-1
 29 -80 l 2,11,12
 53 -80 53 -80 70 -66 c 0,13,14
 88 -51 88 -51 105 -19 c 2,15,-1
 118 5 l 1,16,-1
 54 330 l 1,17,-1
 108 330 l 1,18,-1
 158 76 l 1,19,-1
 301 330 l 1,20,-1
 361 330 l 1,21,-1
 232 106 l 1,22,-1
 232 106 l 1,0,1
EndSplineSet
EndChar
StartChar: z
Encoding: 122 122 93
Width: 364
Flags: W
Fore
334 330 m 1,0,-1
 325 281 l 1,1,-1
 93 43 l 1,2,-1
 278 43 l 1,3,-1
 270 0 l 1,4,-1
 23 0 l 1,5,-1
 33 50 l 1,6,-1
 264 287 l 1,7,-1
 86 287 l 1,8,-1
 94 330 l 1,9,-1
 334 330 l 1,0,-1
EndSplineSet
EndChar
StartChar: braceleft
Encoding: 123 123 94
Width: 364
Flags: W
Fore
338 417 m 1,0,-1
 315 417 l 2,1,2
 276 417 276 417 261 405 c 0,3,4
 248 393 248 393 239 349 c 2,5,-1
 224 275 l 2,6,7
 214 228 214 228 196 206 c 0,8,9
 178 185 178 185 146 179 c 1,10,11
 167 174 167 174 179 158.5 c 128,-1,12
 191 143 191 143 191 121 c 0,13,14
 191 113 191 113 190 104 c 128,-1,15
 189 95 189 95 187 83 c 2,16,-1
 173 12 l 2,17,18
 170 -8 170 -8 170 -21 c 0,19,20
 170 -39 170 -39 182.5 -47.5 c 128,-1,21
 195 -56 195 -56 224 -56 c 2,22,-1
 247 -56 l 1,23,-1
 238 -99 l 1,24,-1
 217 -99 l 2,25,26
 163 -99 163 -99 137 -82 c 0,27,28
 114 -67 114 -67 114 -30 c 0,29,30
 114 -21 114 -21 115 -11 c 128,-1,31
 116 -1 116 -1 118 10 c 2,32,-1
 131 80 l 1,33,34
 132 80 132 80 132 81 c 2,35,-1
 132 83 l 1,36,37
 135 98 135 98 135 111 c 0,38,39
 135 137 135 137 120.5 147.5 c 128,-1,40
 106 158 106 158 73 158 c 2,41,-1
 54 158 l 1,42,-1
 63 202 l 1,43,-1
 81 202 l 2,44,45
 125 202 125 202 142 218 c 0,46,47
 161 234 161 234 170 278 c 2,48,-1
 184 350 l 2,49,50
 192 387 192 387 202.5 408 c 128,-1,51
 213 429 213 429 229 440 c 0,52,53
 242 450 242 450 263 455 c 0,54,55
 282 459 282 459 323 459 c 2,56,-1
 347 459 l 1,57,-1
 338 417 l 1,0,-1
EndSplineSet
EndChar
StartChar: bar
Encoding: 124 124 95
Width: 364
Flags: W
Fore
207 -142 m 1,0,-1
 156 -142 l 1,1,-1
 156 462 l 1,2,-1
 207 462 l 1,3,-1
 207 -142 l 1,0,-1
EndSplineSet
EndChar
StartChar: braceright
Encoding: 125 125 96
Width: 364
Flags: W
Fore
4 -56 m 1,0,-1
 27 -56 l 2,1,2
 68 -56 68 -56 81 -44 c 0,3,4
 95 -33 95 -33 104 12 c 2,5,-1
 119 86 l 2,6,7
 128 131 128 131 146 154 c 0,8,9
 164 176 164 176 197 182 c 1,10,11
 152 193 152 193 152 240 c 0,12,13
 152 247 152 247 153 256.5 c 128,-1,14
 154 266 154 266 156 277 c 2,15,-1
 170 349 l 2,16,17
 173 369 173 369 173 381 c 0,18,19
 173 400 173 400 160.5 408.5 c 128,-1,20
 148 417 148 417 119 417 c 2,21,-1
 96 417 l 1,22,-1
 104 459 l 1,23,-1
 126 459 l 2,24,25
 182 459 182 459 205 443 c 0,26,27
 229 427 229 427 229 391 c 0,28,29
 229 381 229 381 228 371 c 128,-1,30
 227 361 227 361 225 350 c 2,31,-1
 212 281 l 1,32,33
 211 280 211 280 211 277 c 2,34,35
 208 264 208 264 208 250 c 0,36,37
 208 224 208 224 222.5 213 c 128,-1,38
 237 202 237 202 270 202 c 2,39,-1
 288 202 l 1,40,-1
 280 159 l 1,41,-1
 262 159 l 2,42,43
 219 159 219 159 200 143 c 0,44,45
 181 125 181 125 172 82 c 2,46,-1
 158 10 l 2,47,48
 150 -26 150 -26 140 -47 c 128,-1,49
 130 -68 130 -68 114 -80 c 0,50,51
 106 -85 106 -85 98 -88.5 c 128,-1,52
 90 -92 90 -92 79 -94 c 0,53,54
 57 -99 57 -99 20 -99 c 2,55,-1
 -4 -99 l 1,56,-1
 4 -56 l 1,0,-1
EndSplineSet
EndChar
StartChar: asciitilde
Encoding: 126 126 97
Width: 364
Flags: W
Fore
338 179 m 1,0,1
 315 161 315 161 294 153 c 128,-1,2
 273 145 273 145 250 145 c 0,3,4
 223 145 223 145 190 160 c 0,5,6
 187 162 187 162 185 162.5 c 128,-1,7
 183 163 183 163 181 164 c 0,8,9
 169 169 169 169 159.5 172.5 c 128,-1,10
 150 176 150 176 142 178 c 0,11,12
 127 181 127 181 112 181 c 0,13,14
 68 181 68 181 26 145 c 1,15,-1
 26 196 l 1,16,17
 49 214 49 214 70.5 222 c 128,-1,18
 92 230 92 230 117 230 c 0,19,20
 132 230 132 230 147 227 c 0,21,22
 164 224 164 224 183 214 c 1,23,24
 185 214 185 214 193 210 c 0,25,26
 226 194 226 194 255 194 c 0,27,28
 295 194 295 194 338 230 c 1,29,-1
 338 179 l 1,0,1
EndSplineSet
EndChar
StartChar: Adieresis
Encoding: 196 196 98
Width: 364
Flags: W
Fore
109 163 m 1,0,-1
 236 163 l 1,1,-1
 217 391 l 1,2,-1
 109 163 l 1,0,-1
261 440 m 1,3,-1
 310 0 l 1,4,-1
 251 0 l 1,5,-1
 240 115 l 1,6,-1
 87 115 l 1,7,-1
 33 0 l 1,8,-1
 -31 0 l 1,9,-1
 189 440 l 1,10,-1
 261 440 l 1,3,-1
325 552 m 1,11,-1
 313 492 l 1,12,-1
 253 492 l 1,13,-1
 265 552 l 1,14,-1
 325 552 l 1,11,-1
209 552 m 1,15,-1
 197 492 l 1,16,-1
 138 492 l 1,17,-1
 149 552 l 1,18,-1
 209 552 l 1,15,-1
EndSplineSet
EndChar
StartChar: Aring
Encoding: 197 197 99
Width: 364
Flags: W
Fore
273 480 m 0,0,1
 273 499 273 499 259 511 c 1,2,3
 247 525 247 525 228 525 c 256,4,5
 209 525 209 525 196 512 c 256,6,7
 183 499 183 499 183 480 c 256,8,9
 183 461 183 461 196 448 c 256,10,11
 209 435 209 435 228 435 c 0,12,13
 246 435 246 435 259 448 c 0,14,15
 273 462 273 462 273 480 c 0,0,1
109 163 m 1,16,-1
 236 163 l 1,17,-1
 217 391 l 1,18,-1
 109 163 l 1,16,-1
177 417 m 1,19,20
 147 438 147 438 147 480 c 0,21,22
 147 512 147 512 170 537 c 0,23,24
 194 561 194 561 228 561 c 0,25,26
 261 561 261 561 285 537 c 256,27,28
 309 513 309 513 309 480 c 0,29,30
 309 456 309 456 297 437.5 c 128,-1,31
 285 419 285 419 265 409 c 1,32,-1
 310 0 l 1,33,-1
 251 0 l 1,34,-1
 240 115 l 1,35,-1
 87 115 l 1,36,-1
 33 0 l 1,37,-1
 -31 0 l 1,38,-1
 177 417 l 1,39,-1
 177 417 l 1,19,20
EndSplineSet
EndChar
StartChar: Ccedilla
Encoding: 199 199 100
Width: 364
Flags: W
Fore
278 16 m 1,0,1
 229 -9 229 -9 176 -9 c 0,2,3
 108 -9 108 -9 71 31 c 0,4,5
 34 69 34 69 34 141 c 0,6,7
 34 206 34 206 55 269 c 0,8,9
 75 334 75 334 109 373 c 0,10,11
 141 412 141 412 178.5 430 c 128,-1,12
 216 448 216 448 265 448 c 0,13,14
 313 448 313 448 358 424 c 1,15,-1
 345 363 l 1,16,17
 308 400 308 400 261 400 c 0,18,19
 206 400 206 400 164 352 c 0,20,21
 149 333 149 333 136.5 310 c 128,-1,22
 124 287 124 287 115 259 c 0,23,24
 96 203 96 203 96 145 c 0,25,26
 96 94 96 94 119 67 c 128,-1,27
 142 40 142 40 186 40 c 0,28,29
 236 40 236 40 290 77 c 1,30,-1
 278 16 l 1,31,-1
 278 16 l 1,0,1
194 0 m 1,32,33
 216 -37 216 -37 216 -57 c 0,34,35
 216 -85 216 -85 195 -100 c 0,36,37
 173 -117 173 -117 139 -117 c 0,38,39
 113 -117 113 -117 84 -108 c 1,40,-1
 92 -70 l 1,41,42
 116 -81 116 -81 135 -81 c 0,43,44
 176 -81 176 -81 176 -47 c 0,45,46
 176 -30 176 -30 159 0 c 1,47,-1
 194 0 l 1,48,-1
 194 0 l 1,32,33
EndSplineSet
EndChar
StartChar: Eacute
Encoding: 201 201 101
Width: 364
Flags: W
Fore
363 440 m 1,0,-1
 353 390 l 1,1,-1
 151 390 l 1,2,-1
 126 260 l 1,3,-1
 318 260 l 1,4,-1
 309 210 l 1,5,-1
 116 210 l 1,6,-1
 85 50 l 1,7,-1
 292 50 l 1,8,-1
 283 0 l 1,9,-1
 16 0 l 1,10,-1
 101 440 l 1,11,-1
 363 440 l 1,0,-1
336 560 m 1,12,-1
 245 482 l 1,13,-1
 198 482 l 1,14,-1
 274 560 l 1,15,-1
 336 560 l 1,12,-1
EndSplineSet
EndChar
StartChar: Ntilde
Encoding: 209 209 102
Width: 364
Flags: W
Fore
160 440 m 1,0,-1
 237 78 l 1,1,-1
 308 440 l 1,2,-1
 366 440 l 1,3,-1
 280 0 l 1,4,-1
 204 0 l 1,5,-1
 126 363 l 1,6,-1
 55 0 l 1,7,-1
 -2 0 l 1,8,-1
 84 440 l 1,9,-1
 160 440 l 1,0,-1
222 512 m 1,10,-1
 221 512 l 1,11,12
 208 522 208 522 198 522 c 0,13,14
 177 522 177 522 166 492 c 1,15,-1
 129 492 l 1,16,17
 150 556 150 556 201 556 c 0,18,19
 220 556 220 556 240 543 c 2,20,-1
 250 535 l 2,21,22
 259 527 259 527 272 527 c 0,23,24
 297 527 297 527 303 556 c 1,25,-1
 340 556 l 1,26,27
 320 492 320 492 266 492 c 0,28,29
 250 492 250 492 232 504 c 2,30,-1
 222 512 l 1,10,-1
EndSplineSet
EndChar
StartChar: Odieresis
Encoding: 214 214 103
Width: 364
Flags: W
Fore
148 40 m 0,0,1
 173 40 173 40 194.5 54.5 c 128,-1,2
 216 69 216 69 230 98 c 0,3,4
 241 120 241 120 249.5 145.5 c 128,-1,5
 258 171 258 171 265 201 c 0,6,7
 278 260 278 260 278 318 c 0,8,9
 278 400 278 400 215 400 c 0,10,11
 190 400 190 400 169 385 c 128,-1,12
 148 370 148 370 134 342 c 0,13,14
 112 299 112 299 98 238 c 0,15,16
 85 180 85 180 85 122 c 0,17,18
 85 40 85 40 148 40 c 0,0,1
340 301 m 0,19,20
 340 269 340 269 333 231 c 128,-1,21
 326 193 326 193 314 152 c 0,22,23
 297 100 297 100 274 65 c 0,24,25
 248 27 248 27 216 9 c 128,-1,26
 184 -9 184 -9 141 -9 c 0,27,28
 24 -9 24 -9 24 140 c 0,29,30
 24 205 24 205 50 288 c 0,31,32
 58 315 58 315 68 336.5 c 128,-1,33
 78 358 78 358 89 375 c 0,34,35
 115 413 115 413 147 430.5 c 128,-1,36
 179 448 179 448 222 448 c 0,37,38
 282 448 282 448 311 412 c 128,-1,39
 340 376 340 376 340 301 c 0,19,20
322 552 m 1,40,-1
 311 492 l 1,41,-1
 251 492 l 1,42,-1
 262 552 l 1,43,-1
 322 552 l 1,40,-1
207 552 m 1,44,-1
 195 492 l 1,45,-1
 135 492 l 1,46,-1
 147 552 l 1,47,-1
 207 552 l 1,44,-1
EndSplineSet
EndChar
StartChar: Udieresis
Encoding: 220 220 104
Width: 364
Flags: W
Fore
86 440 m 1,0,-1
 146 440 l 1,1,-1
 94 169 l 1,2,3
 93 167 93 167 92.5 164.5 c 128,-1,4
 92 162 92 162 91 157 c 0,5,6
 82 112 82 112 82 94 c 0,7,8
 82 40 82 40 147 40 c 0,9,10
 173 40 173 40 191 48 c 128,-1,11
 209 56 209 56 223 75 c 0,12,13
 230 84 230 84 236.5 106 c 128,-1,14
 243 128 243 128 251 169 c 2,15,-1
 303 440 l 1,16,-1
 363 440 l 1,17,-1
 311 169 l 2,18,19
 304 137 304 137 298 113 c 128,-1,20
 292 89 292 89 284 74 c 0,21,22
 271 44 271 44 247 25 c 0,23,24
 204 -9 204 -9 141 -9 c 0,25,26
 84 -9 84 -9 54 17.5 c 128,-1,27
 24 44 24 44 24 94 c 0,28,29
 24 116 24 116 34 169 c 2,30,-1
 86 440 l 1,0,-1
326 552 m 1,31,-1
 314 492 l 1,32,-1
 254 492 l 1,33,-1
 266 552 l 1,34,-1
 326 552 l 1,31,-1
211 552 m 1,35,-1
 199 492 l 1,36,-1
 139 492 l 1,37,-1
 150 552 l 1,38,-1
 211 552 l 1,35,-1
EndSplineSet
EndChar
StartChar: aacute
Encoding: 225 225 105
Width: 364
Flags: W
Fore
204 166 m 1,0,1
 187 166 187 166 173.5 165.5 c 128,-1,2
 160 165 160 165 152 164 c 0,3,4
 133 161 133 161 122 156 c 0,5,6
 102 148 102 148 90 130 c 256,7,8
 78 112 78 112 78 91 c 0,9,10
 78 66 78 66 93 51.5 c 128,-1,11
 108 37 108 37 134 37 c 0,12,13
 179 37 179 37 209 68 c 0,14,15
 241 98 241 98 253 154 c 2,16,-1
 255 166 l 1,17,-1
 204 166 l 1,18,-1
 204 166 l 1,0,1
277 0 m 1,19,-1
 222 0 l 1,20,-1
 232 49 l 1,21,22
 211 21 211 21 182 6 c 128,-1,23
 153 -9 153 -9 120 -9 c 0,24,25
 76 -9 76 -9 48 16 c 0,26,27
 21 40 21 40 21 81 c 0,28,29
 21 140 21 140 67 174 c 0,30,31
 113 209 113 209 190 209 c 2,32,-1
 263 209 l 1,33,-1
 266 227 l 1,34,35
 267 229 267 229 267.5 232 c 128,-1,36
 268 235 268 235 268 240 c 0,37,38
 268 266 268 266 249.5 279 c 128,-1,39
 231 292 231 292 196 292 c 0,40,41
 145 292 145 292 79 262 c 1,42,-1
 89 315 l 1,43,44
 151 338 151 338 205 338 c 0,45,46
 260 338 260 338 290 314 c 0,47,48
 321 289 321 289 321 247 c 0,49,50
 321 238 321 238 319 222.5 c 128,-1,51
 317 207 317 207 314 189 c 2,52,-1
 277 0 l 1,19,-1
333 483 m 1,53,-1
 217 372 l 1,54,-1
 171 372 l 1,55,-1
 269 483 l 1,56,-1
 333 483 l 1,53,-1
EndSplineSet
EndChar
StartChar: agrave
Encoding: 224 224 106
Width: 364
Flags: W
Fore
204 166 m 1,0,1
 187 166 187 166 173.5 165.5 c 128,-1,2
 160 165 160 165 152 164 c 0,3,4
 133 161 133 161 122 156 c 0,5,6
 102 148 102 148 90 130 c 256,7,8
 78 112 78 112 78 91 c 0,9,10
 78 66 78 66 93 51.5 c 128,-1,11
 108 37 108 37 134 37 c 0,12,13
 179 37 179 37 209 68 c 0,14,15
 241 98 241 98 253 154 c 2,16,-1
 255 166 l 1,17,-1
 204 166 l 1,18,-1
 204 166 l 1,0,1
277 0 m 1,19,-1
 222 0 l 1,20,-1
 232 49 l 1,21,22
 211 21 211 21 182 6 c 128,-1,23
 153 -9 153 -9 120 -9 c 0,24,25
 76 -9 76 -9 48 16 c 0,26,27
 21 40 21 40 21 81 c 0,28,29
 21 140 21 140 67 174 c 0,30,31
 113 209 113 209 190 209 c 2,32,-1
 263 209 l 1,33,-1
 266 227 l 1,34,35
 267 229 267 229 267.5 232 c 128,-1,36
 268 235 268 235 268 240 c 0,37,38
 268 266 268 266 249.5 279 c 128,-1,39
 231 292 231 292 196 292 c 0,40,41
 145 292 145 292 79 262 c 1,42,-1
 89 315 l 1,43,44
 151 338 151 338 205 338 c 0,45,46
 260 338 260 338 290 314 c 0,47,48
 321 289 321 289 321 247 c 0,49,50
 321 238 321 238 319 222.5 c 128,-1,51
 317 207 317 207 314 189 c 2,52,-1
 277 0 l 1,19,-1
251 372 m 1,53,-1
 209 372 l 1,54,-1
 135 483 l 1,55,-1
 193 483 l 1,56,-1
 251 372 l 1,53,-1
EndSplineSet
EndChar
StartChar: acircumflex
Encoding: 226 226 107
Width: 364
Flags: W
Fore
204 166 m 1,0,1
 187 166 187 166 173.5 165.5 c 128,-1,2
 160 165 160 165 152 164 c 0,3,4
 133 161 133 161 122 156 c 0,5,6
 102 148 102 148 90 130 c 256,7,8
 78 112 78 112 78 91 c 0,9,10
 78 66 78 66 93 51.5 c 128,-1,11
 108 37 108 37 134 37 c 0,12,13
 179 37 179 37 209 68 c 0,14,15
 241 98 241 98 253 154 c 2,16,-1
 255 166 l 1,17,-1
 204 166 l 1,18,-1
 204 166 l 1,0,1
277 0 m 1,19,-1
 222 0 l 1,20,-1
 232 49 l 1,21,22
 211 21 211 21 182 6 c 128,-1,23
 153 -9 153 -9 120 -9 c 0,24,25
 76 -9 76 -9 48 16 c 0,26,27
 21 40 21 40 21 81 c 0,28,29
 21 140 21 140 67 174 c 0,30,31
 113 209 113 209 190 209 c 2,32,-1
 263 209 l 1,33,-1
 266 227 l 1,34,35
 267 229 267 229 267.5 232 c 128,-1,36
 268 235 268 235 268 240 c 0,37,38
 268 266 268 266 249.5 279 c 128,-1,39
 231 292 231 292 196 292 c 0,40,41
 145 292 145 292 79 262 c 1,42,-1
 89 315 l 1,43,44
 151 338 151 338 205 338 c 0,45,46
 260 338 260 338 290 314 c 0,47,48
 321 289 321 289 321 247 c 0,49,50
 321 238 321 238 319 222.5 c 128,-1,51
 317 207 317 207 314 189 c 2,52,-1
 277 0 l 1,19,-1
256 483 m 1,53,-1
 304 372 l 1,54,-1
 265 372 l 1,55,-1
 231 443 l 1,56,-1
 164 372 l 1,57,-1
 118 372 l 1,58,-1
 213 483 l 1,59,-1
 256 483 l 1,53,-1
EndSplineSet
EndChar
StartChar: adieresis
Encoding: 228 228 108
Width: 364
Flags: W
Fore
204 166 m 1,0,1
 187 166 187 166 173.5 165.5 c 128,-1,2
 160 165 160 165 152 164 c 0,3,4
 133 161 133 161 122 156 c 0,5,6
 102 148 102 148 90 130 c 256,7,8
 78 112 78 112 78 91 c 0,9,10
 78 66 78 66 93 51.5 c 128,-1,11
 108 37 108 37 134 37 c 0,12,13
 179 37 179 37 209 68 c 0,14,15
 241 98 241 98 253 154 c 2,16,-1
 255 166 l 1,17,-1
 204 166 l 1,18,-1
 204 166 l 1,0,1
277 0 m 1,19,-1
 222 0 l 1,20,-1
 232 49 l 1,21,22
 211 21 211 21 182 6 c 128,-1,23
 153 -9 153 -9 120 -9 c 0,24,25
 76 -9 76 -9 48 16 c 0,26,27
 21 40 21 40 21 81 c 0,28,29
 21 140 21 140 67 174 c 0,30,31
 113 209 113 209 190 209 c 2,32,-1
 263 209 l 1,33,-1
 266 227 l 1,34,35
 267 229 267 229 267.5 232 c 128,-1,36
 268 235 268 235 268 240 c 0,37,38
 268 266 268 266 249.5 279 c 128,-1,39
 231 292 231 292 196 292 c 0,40,41
 145 292 145 292 79 262 c 1,42,-1
 89 315 l 1,43,44
 151 338 151 338 205 338 c 0,45,46
 260 338 260 338 290 314 c 0,47,48
 321 289 321 289 321 247 c 0,49,50
 321 238 321 238 319 222.5 c 128,-1,51
 317 207 317 207 314 189 c 2,52,-1
 277 0 l 1,19,-1
201 458 m 1,53,-1
 190 398 l 1,54,-1
 130 398 l 1,55,-1
 141 458 l 1,56,-1
 201 458 l 1,53,-1
317 458 m 1,57,-1
 305 398 l 1,58,-1
 245 398 l 1,59,-1
 257 458 l 1,60,-1
 317 458 l 1,57,-1
EndSplineSet
EndChar
StartChar: atilde
Encoding: 227 227 109
Width: 364
Flags: W
Fore
204 166 m 1,0,1
 187 166 187 166 173.5 165.5 c 128,-1,2
 160 165 160 165 152 164 c 0,3,4
 133 161 133 161 122 156 c 0,5,6
 102 148 102 148 90 130 c 256,7,8
 78 112 78 112 78 91 c 0,9,10
 78 66 78 66 93 51.5 c 128,-1,11
 108 37 108 37 134 37 c 0,12,13
 179 37 179 37 209 68 c 0,14,15
 241 98 241 98 253 154 c 2,16,-1
 255 166 l 1,17,-1
 204 166 l 1,18,-1
 204 166 l 1,0,1
277 0 m 1,19,-1
 222 0 l 1,20,-1
 232 49 l 1,21,22
 211 21 211 21 182 6 c 128,-1,23
 153 -9 153 -9 120 -9 c 0,24,25
 76 -9 76 -9 48 16 c 0,26,27
 21 40 21 40 21 81 c 0,28,29
 21 140 21 140 67 174 c 0,30,31
 113 209 113 209 190 209 c 2,32,-1
 263 209 l 1,33,-1
 266 227 l 1,34,35
 267 229 267 229 267.5 232 c 128,-1,36
 268 235 268 235 268 240 c 0,37,38
 268 266 268 266 249.5 279 c 128,-1,39
 231 292 231 292 196 292 c 0,40,41
 145 292 145 292 79 262 c 1,42,-1
 89 315 l 1,43,44
 151 338 151 338 205 338 c 0,45,46
 260 338 260 338 290 314 c 0,47,48
 321 289 321 289 321 247 c 0,49,50
 321 238 321 238 319 222.5 c 128,-1,51
 317 207 317 207 314 189 c 2,52,-1
 277 0 l 1,19,-1
206 420 m 2,53,54
 196 431 196 431 185 431 c 0,55,56
 162 431 162 431 156 386 c 1,57,-1
 119 386 l 1,58,59
 130 469 130 469 184 469 c 0,60,61
 197 469 197 469 207 464.5 c 128,-1,62
 217 460 217 460 228 449 c 2,63,-1
 242 435 l 2,64,65
 253 424 253 424 263 424 c 0,66,67
 288 424 288 424 292 469 c 1,68,-1
 329 469 l 1,69,70
 318 386 318 386 264 386 c 0,71,72
 251 386 251 386 241 390 c 128,-1,73
 231 394 231 394 220 406 c 2,74,-1
 206 420 l 2,53,54
EndSplineSet
EndChar
StartChar: aring
Encoding: 229 229 110
Width: 364
Flags: W
Fore
204 166 m 1,0,1
 187 166 187 166 173.5 165.5 c 128,-1,2
 160 165 160 165 152 164 c 0,3,4
 133 161 133 161 122 156 c 0,5,6
 102 148 102 148 90 130 c 256,7,8
 78 112 78 112 78 91 c 0,9,10
 78 66 78 66 93 51.5 c 128,-1,11
 108 37 108 37 134 37 c 0,12,13
 179 37 179 37 209 68 c 0,14,15
 241 98 241 98 253 154 c 2,16,-1
 255 166 l 1,17,-1
 204 166 l 1,18,-1
 204 166 l 1,0,1
277 0 m 1,19,-1
 222 0 l 1,20,-1
 232 49 l 1,21,22
 211 21 211 21 182 6 c 128,-1,23
 153 -9 153 -9 120 -9 c 0,24,25
 76 -9 76 -9 48 16 c 0,26,27
 21 40 21 40 21 81 c 0,28,29
 21 140 21 140 67 174 c 0,30,31
 113 209 113 209 190 209 c 2,32,-1
 263 209 l 1,33,-1
 266 227 l 1,34,35
 267 229 267 229 267.5 232 c 128,-1,36
 268 235 268 235 268 240 c 0,37,38
 268 266 268 266 249.5 279 c 128,-1,39
 231 292 231 292 196 292 c 0,40,41
 145 292 145 292 79 262 c 1,42,-1
 89 315 l 1,43,44
 151 338 151 338 205 338 c 0,45,46
 260 338 260 338 290 314 c 0,47,48
 321 289 321 289 321 247 c 0,49,50
 321 238 321 238 319 222.5 c 128,-1,51
 317 207 317 207 314 189 c 2,52,-1
 277 0 l 1,19,-1
276 471 m 0,53,54
 276 489 276 489 263 502 c 256,55,56
 250 515 250 515 231 515 c 0,57,58
 211 515 211 515 199 502 c 0,59,60
 186 490 186 490 186 471 c 0,61,62
 186 451 186 451 199 439 c 0,63,64
 211 426 211 426 231 426 c 0,65,66
 250 426 250 426 263 439 c 0,67,68
 276 454 276 454 276 471 c 0,53,54
312 471 m 0,69,70
 312 437 312 437 288 413 c 0,71,72
 266 390 266 390 231 390 c 256,73,74
 196 390 196 390 173 413 c 0,75,76
 150 438 150 438 150 471 c 0,77,78
 150 503 150 503 173 528 c 0,79,80
 197 552 197 552 231 552 c 0,81,82
 266 552 266 552 288 528 c 0,83,84
 312 504 312 504 312 471 c 0,69,70
EndSplineSet
EndChar
StartChar: ccedilla
Encoding: 231 231 111
Width: 364
Flags: W
Fore
277 15 m 1,0,1
 256 4 256 4 231 -2.5 c 128,-1,2
 206 -9 206 -9 180 -9 c 0,3,4
 46 -9 46 -9 46 123 c 0,5,6
 46 168 46 168 62 209 c 0,7,8
 77 252 77 252 104 280 c 0,9,10
 159 338 159 338 237 338 c 0,11,12
 289 338 289 338 335 313 c 1,13,-1
 325 259 l 1,14,15
 288 292 288 292 239 292 c 0,16,17
 174 292 174 292 138 240 c 0,18,19
 130 228 130 228 123.5 214 c 128,-1,20
 117 200 117 200 112 184 c 0,21,22
 103 154 103 154 103 123 c 0,23,24
 103 37 103 37 184 37 c 0,25,26
 213 37 213 37 238.5 46.5 c 128,-1,27
 264 56 264 56 289 74 c 1,28,-1
 277 15 l 1,29,-1
 277 15 l 1,0,1
199 0 m 1,30,31
 220 -38 220 -38 220 -57 c 0,32,33
 220 -85 220 -85 199 -100 c 0,34,35
 177 -117 177 -117 143 -117 c 0,36,37
 116 -117 116 -117 89 -108 c 1,38,-1
 96 -70 l 1,39,40
 121 -81 121 -81 139 -81 c 0,41,42
 159 -81 159 -81 170 -72 c 128,-1,43
 181 -63 181 -63 181 -47 c 0,44,45
 181 -32 181 -32 164 0 c 1,46,-1
 199 0 l 1,47,-1
 199 0 l 1,30,31
EndSplineSet
EndChar
StartChar: eacute
Encoding: 233 233 112
Width: 364
Flags: W
Fore
277 194 m 1,0,1
 279 202 279 202 279.5 207 c 128,-1,2
 280 212 280 212 280 217 c 0,3,4
 280 253 280 253 261 272.5 c 128,-1,5
 242 292 242 292 207 292 c 256,6,7
 172 292 172 292 141 266 c 0,8,9
 110 238 110 238 98 194 c 1,10,-1
 277 194 l 1,11,-1
 277 194 l 1,0,1
283 17 m 1,12,13
 252 4 252 4 223 -2.5 c 128,-1,14
 194 -9 194 -9 163 -9 c 0,15,16
 97 -9 97 -9 63 24 c 128,-1,17
 29 57 29 57 29 120 c 0,18,19
 29 166 29 166 47 211 c 0,20,21
 64 255 64 255 96 287 c 0,22,23
 145 339 145 339 212 339 c 0,24,25
 266 339 266 339 299 305 c 0,26,27
 332 272 332 272 332 215 c 0,28,29
 332 205 332 205 330.5 190 c 128,-1,30
 329 175 329 175 326 152 c 1,31,-1
 88 152 l 1,32,33
 84 136 84 136 84 122 c 0,34,35
 84 37 84 37 173 37 c 0,36,37
 224 37 224 37 294 71 c 1,38,-1
 283 17 l 1,39,-1
 283 17 l 1,12,13
332 483 m 1,40,-1
 216 372 l 1,41,-1
 170 372 l 1,42,-1
 268 483 l 1,43,-1
 332 483 l 1,40,-1
EndSplineSet
EndChar
StartChar: egrave
Encoding: 232 232 113
Width: 364
Flags: W
Fore
277 194 m 1,0,1
 279 202 279 202 279.5 207 c 128,-1,2
 280 212 280 212 280 217 c 0,3,4
 280 253 280 253 261 272.5 c 128,-1,5
 242 292 242 292 207 292 c 256,6,7
 172 292 172 292 141 266 c 0,8,9
 110 238 110 238 98 194 c 1,10,-1
 277 194 l 1,11,-1
 277 194 l 1,0,1
283 17 m 1,12,13
 252 4 252 4 223 -2.5 c 128,-1,14
 194 -9 194 -9 163 -9 c 0,15,16
 97 -9 97 -9 63 24 c 128,-1,17
 29 57 29 57 29 120 c 0,18,19
 29 166 29 166 47 211 c 0,20,21
 64 255 64 255 96 287 c 0,22,23
 145 339 145 339 212 339 c 0,24,25
 266 339 266 339 299 305 c 0,26,27
 332 272 332 272 332 215 c 0,28,29
 332 205 332 205 330.5 190 c 128,-1,30
 329 175 329 175 326 152 c 1,31,-1
 88 152 l 1,32,33
 84 136 84 136 84 122 c 0,34,35
 84 37 84 37 173 37 c 0,36,37
 224 37 224 37 294 71 c 1,38,-1
 283 17 l 1,39,-1
 283 17 l 1,12,13
250 372 m 1,40,-1
 208 372 l 1,41,-1
 134 483 l 1,42,-1
 192 483 l 1,43,-1
 250 372 l 1,40,-1
EndSplineSet
EndChar
StartChar: ecircumflex
Encoding: 234 234 114
Width: 364
Flags: W
Fore
277 194 m 1,0,1
 279 202 279 202 279.5 207 c 128,-1,2
 280 212 280 212 280 217 c 0,3,4
 280 253 280 253 261 272.5 c 128,-1,5
 242 292 242 292 207 292 c 256,6,7
 172 292 172 292 141 266 c 0,8,9
 110 238 110 238 98 194 c 1,10,-1
 277 194 l 1,11,-1
 277 194 l 1,0,1
283 17 m 1,12,13
 252 4 252 4 223 -2.5 c 128,-1,14
 194 -9 194 -9 163 -9 c 0,15,16
 97 -9 97 -9 63 24 c 128,-1,17
 29 57 29 57 29 120 c 0,18,19
 29 166 29 166 47 211 c 0,20,21
 64 255 64 255 96 287 c 0,22,23
 145 339 145 339 212 339 c 0,24,25
 266 339 266 339 299 305 c 0,26,27
 332 272 332 272 332 215 c 0,28,29
 332 205 332 205 330.5 190 c 128,-1,30
 329 175 329 175 326 152 c 1,31,-1
 88 152 l 1,32,33
 84 136 84 136 84 122 c 0,34,35
 84 37 84 37 173 37 c 0,36,37
 224 37 224 37 294 71 c 1,38,-1
 283 17 l 1,39,-1
 283 17 l 1,12,13
255 483 m 1,40,-1
 303 372 l 1,41,-1
 264 372 l 1,42,-1
 230 443 l 1,43,-1
 163 372 l 1,44,-1
 117 372 l 1,45,-1
 212 483 l 1,46,-1
 255 483 l 1,40,-1
EndSplineSet
EndChar
StartChar: edieresis
Encoding: 235 235 115
Width: 364
Flags: W
Fore
277 194 m 1,0,1
 279 202 279 202 279.5 207 c 128,-1,2
 280 212 280 212 280 217 c 0,3,4
 280 253 280 253 261 272.5 c 128,-1,5
 242 292 242 292 207 292 c 256,6,7
 172 292 172 292 141 266 c 0,8,9
 110 238 110 238 98 194 c 1,10,-1
 277 194 l 1,11,-1
 277 194 l 1,0,1
283 17 m 1,12,13
 252 4 252 4 223 -2.5 c 128,-1,14
 194 -9 194 -9 163 -9 c 0,15,16
 97 -9 97 -9 63 24 c 128,-1,17
 29 57 29 57 29 120 c 0,18,19
 29 166 29 166 47 211 c 0,20,21
 64 255 64 255 96 287 c 0,22,23
 145 339 145 339 212 339 c 0,24,25
 266 339 266 339 299 305 c 0,26,27
 332 272 332 272 332 215 c 0,28,29
 332 205 332 205 330.5 190 c 128,-1,30
 329 175 329 175 326 152 c 1,31,-1
 88 152 l 1,32,33
 84 136 84 136 84 122 c 0,34,35
 84 37 84 37 173 37 c 0,36,37
 224 37 224 37 294 71 c 1,38,-1
 283 17 l 1,39,-1
 283 17 l 1,12,13
200 458 m 1,40,-1
 189 398 l 1,41,-1
 129 398 l 1,42,-1
 140 458 l 1,43,-1
 200 458 l 1,40,-1
315 458 m 1,44,-1
 304 398 l 1,45,-1
 244 398 l 1,46,-1
 255 458 l 1,47,-1
 315 458 l 1,44,-1
EndSplineSet
EndChar
StartChar: iacute
Encoding: 237 237 116
Width: 364
Flags: W
Fore
245 330 m 1,0,-1
 189 42 l 1,1,-1
 296 42 l 1,2,-1
 288 0 l 1,3,-1
 18 0 l 1,4,-1
 27 42 l 1,5,-1
 134 42 l 1,6,-1
 182 288 l 1,7,-1
 97 288 l 1,8,-1
 106 330 l 1,9,-1
 245 330 l 1,0,-1
324 483 m 1,10,-1
 207 372 l 1,11,-1
 161 372 l 1,12,-1
 259 483 l 1,13,-1
 324 483 l 1,10,-1
EndSplineSet
EndChar
StartChar: igrave
Encoding: 236 236 117
Width: 364
Flags: W
Fore
245 330 m 1,0,-1
 189 42 l 1,1,-1
 296 42 l 1,2,-1
 288 0 l 1,3,-1
 18 0 l 1,4,-1
 27 42 l 1,5,-1
 134 42 l 1,6,-1
 182 288 l 1,7,-1
 97 288 l 1,8,-1
 106 330 l 1,9,-1
 245 330 l 1,0,-1
242 372 m 1,10,-1
 199 372 l 1,11,-1
 125 483 l 1,12,-1
 183 483 l 1,13,-1
 242 372 l 1,10,-1
EndSplineSet
EndChar
StartChar: icircumflex
Encoding: 238 238 118
Width: 364
Flags: W
Fore
245 330 m 1,0,-1
 189 42 l 1,1,-1
 296 42 l 1,2,-1
 288 0 l 1,3,-1
 18 0 l 1,4,-1
 27 42 l 1,5,-1
 134 42 l 1,6,-1
 182 288 l 1,7,-1
 97 288 l 1,8,-1
 106 330 l 1,9,-1
 245 330 l 1,0,-1
246 483 m 1,10,-1
 295 372 l 1,11,-1
 255 372 l 1,12,-1
 221 443 l 1,13,-1
 155 372 l 1,14,-1
 109 372 l 1,15,-1
 203 483 l 1,16,-1
 246 483 l 1,10,-1
EndSplineSet
EndChar
StartChar: idieresis
Encoding: 239 239 119
Width: 364
Flags: W
Fore
245 330 m 1,0,-1
 189 42 l 1,1,-1
 296 42 l 1,2,-1
 288 0 l 1,3,-1
 18 0 l 1,4,-1
 27 42 l 1,5,-1
 134 42 l 1,6,-1
 182 288 l 1,7,-1
 97 288 l 1,8,-1
 106 330 l 1,9,-1
 245 330 l 1,0,-1
191 458 m 1,10,-1
 180 398 l 1,11,-1
 120 398 l 1,12,-1
 132 458 l 1,13,-1
 191 458 l 1,10,-1
307 458 m 1,14,-1
 295 398 l 1,15,-1
 235 398 l 1,16,-1
 247 458 l 1,17,-1
 307 458 l 1,14,-1
EndSplineSet
EndChar
StartChar: ntilde
Encoding: 241 241 120
Width: 364
Flags: W
Fore
277 0 m 1,0,-1
 223 0 l 1,1,-1
 263 205 l 2,2,3
 263 207 263 207 264 209 c 1,4,5
 268 228 268 228 268 242 c 0,6,7
 268 291 268 291 215 291 c 0,8,9
 177 291 177 291 151 264 c 128,-1,10
 125 237 125 237 115 187 c 2,11,-1
 79 0 l 1,12,-1
 25 0 l 1,13,-1
 89 330 l 1,14,-1
 144 330 l 1,15,-1
 134 281 l 1,16,17
 179 338 179 338 237 338 c 0,18,19
 278 338 278 338 300.5 316.5 c 128,-1,20
 323 295 323 295 323 257 c 0,21,22
 323 248 323 248 321.5 234 c 128,-1,23
 320 220 320 220 317 205 c 2,24,-1
 277 0 l 1,0,-1
205 420 m 2,25,26
 194 431 194 431 184 431 c 0,27,28
 159 431 159 431 155 386 c 1,29,-1
 118 386 l 1,30,31
 129 469 129 469 183 469 c 0,32,33
 196 469 196 469 206 464.5 c 128,-1,34
 216 460 216 460 227 449 c 2,35,-1
 241 435 l 2,36,37
 252 424 252 424 262 424 c 0,38,39
 285 424 285 424 291 469 c 1,40,-1
 327 469 l 1,41,42
 318 386 318 386 263 386 c 0,43,44
 249 386 249 386 239.5 390 c 128,-1,45
 230 394 230 394 219 406 c 2,46,-1
 205 420 l 2,25,26
EndSplineSet
EndChar
StartChar: oacute
Encoding: 243 243 121
Width: 364
Flags: W
Fore
205 292 m 0,0,1
 156 292 156 292 124 242 c 0,2,3
 92 190 92 190 92 114 c 0,4,5
 92 37 92 37 158 37 c 0,6,7
 206 37 206 37 239 88 c 0,8,9
 271 140 271 140 271 216 c 256,10,11
 271 292 271 292 205 292 c 0,0,1
210 338 m 0,12,13
 268 338 268 338 298.5 307 c 128,-1,14
 329 276 329 276 329 214 c 0,15,16
 329 174 329 174 317 133 c 0,17,18
 311 113 311 113 302.5 95.5 c 128,-1,19
 294 78 294 78 283 61 c 0,20,21
 236 -9 236 -9 149 -9 c 0,22,23
 94 -9 94 -9 64.5 23.5 c 128,-1,24
 35 56 35 56 35 116 c 0,25,26
 35 156 35 156 46.5 195.5 c 128,-1,27
 58 235 58 235 81 269 c 0,28,29
 129 338 129 338 210 338 c 0,12,13
332 483 m 1,30,-1
 216 372 l 1,31,-1
 170 372 l 1,32,-1
 268 483 l 1,33,-1
 332 483 l 1,30,-1
EndSplineSet
EndChar
StartChar: ograve
Encoding: 242 242 122
Width: 364
Flags: W
Fore
205 292 m 0,0,1
 156 292 156 292 124 242 c 0,2,3
 92 190 92 190 92 114 c 0,4,5
 92 37 92 37 158 37 c 0,6,7
 206 37 206 37 239 88 c 0,8,9
 271 140 271 140 271 216 c 256,10,11
 271 292 271 292 205 292 c 0,0,1
210 338 m 0,12,13
 268 338 268 338 298.5 307 c 128,-1,14
 329 276 329 276 329 214 c 0,15,16
 329 174 329 174 317 133 c 0,17,18
 311 113 311 113 302.5 95.5 c 128,-1,19
 294 78 294 78 283 61 c 0,20,21
 236 -9 236 -9 149 -9 c 0,22,23
 94 -9 94 -9 64.5 23.5 c 128,-1,24
 35 56 35 56 35 116 c 0,25,26
 35 156 35 156 46.5 195.5 c 128,-1,27
 58 235 58 235 81 269 c 0,28,29
 129 338 129 338 210 338 c 0,12,13
250 372 m 1,30,-1
 208 372 l 1,31,-1
 134 483 l 1,32,-1
 192 483 l 1,33,-1
 250 372 l 1,30,-1
EndSplineSet
EndChar
StartChar: ocircumflex
Encoding: 244 244 123
Width: 364
Flags: W
Fore
205 292 m 0,0,1
 156 292 156 292 124 242 c 0,2,3
 92 190 92 190 92 114 c 0,4,5
 92 37 92 37 158 37 c 0,6,7
 206 37 206 37 239 88 c 0,8,9
 271 140 271 140 271 216 c 256,10,11
 271 292 271 292 205 292 c 0,0,1
210 338 m 0,12,13
 268 338 268 338 298.5 307 c 128,-1,14
 329 276 329 276 329 214 c 0,15,16
 329 174 329 174 317 133 c 0,17,18
 311 113 311 113 302.5 95.5 c 128,-1,19
 294 78 294 78 283 61 c 0,20,21
 236 -9 236 -9 149 -9 c 0,22,23
 94 -9 94 -9 64.5 23.5 c 128,-1,24
 35 56 35 56 35 116 c 0,25,26
 35 156 35 156 46.5 195.5 c 128,-1,27
 58 235 58 235 81 269 c 0,28,29
 129 338 129 338 210 338 c 0,12,13
255 483 m 1,30,-1
 303 372 l 1,31,-1
 264 372 l 1,32,-1
 230 443 l 1,33,-1
 163 372 l 1,34,-1
 117 372 l 1,35,-1
 212 483 l 1,36,-1
 255 483 l 1,30,-1
EndSplineSet
EndChar
StartChar: odieresis
Encoding: 246 246 124
Width: 364
Flags: W
Fore
205 292 m 0,0,1
 156 292 156 292 124 242 c 0,2,3
 92 190 92 190 92 114 c 0,4,5
 92 37 92 37 158 37 c 0,6,7
 206 37 206 37 239 88 c 0,8,9
 271 140 271 140 271 216 c 256,10,11
 271 292 271 292 205 292 c 0,0,1
210 338 m 0,12,13
 268 338 268 338 298.5 307 c 128,-1,14
 329 276 329 276 329 214 c 0,15,16
 329 174 329 174 317 133 c 0,17,18
 311 113 311 113 302.5 95.5 c 128,-1,19
 294 78 294 78 283 61 c 0,20,21
 236 -9 236 -9 149 -9 c 0,22,23
 94 -9 94 -9 64.5 23.5 c 128,-1,24
 35 56 35 56 35 116 c 0,25,26
 35 156 35 156 46.5 195.5 c 128,-1,27
 58 235 58 235 81 269 c 0,28,29
 129 338 129 338 210 338 c 0,12,13
200 458 m 1,30,-1
 189 398 l 1,31,-1
 129 398 l 1,32,-1
 140 458 l 1,33,-1
 200 458 l 1,30,-1
315 458 m 1,34,-1
 304 398 l 1,35,-1
 244 398 l 1,36,-1
 255 458 l 1,37,-1
 315 458 l 1,34,-1
EndSplineSet
EndChar
StartChar: otilde
Encoding: 245 245 125
Width: 364
Flags: W
Fore
205 292 m 0,0,1
 156 292 156 292 124 242 c 0,2,3
 92 190 92 190 92 114 c 0,4,5
 92 37 92 37 158 37 c 0,6,7
 206 37 206 37 239 88 c 0,8,9
 271 140 271 140 271 216 c 256,10,11
 271 292 271 292 205 292 c 0,0,1
210 338 m 0,12,13
 268 338 268 338 298.5 307 c 128,-1,14
 329 276 329 276 329 214 c 0,15,16
 329 174 329 174 317 133 c 0,17,18
 311 113 311 113 302.5 95.5 c 128,-1,19
 294 78 294 78 283 61 c 0,20,21
 236 -9 236 -9 149 -9 c 0,22,23
 94 -9 94 -9 64.5 23.5 c 128,-1,24
 35 56 35 56 35 116 c 0,25,26
 35 156 35 156 46.5 195.5 c 128,-1,27
 58 235 58 235 81 269 c 0,28,29
 129 338 129 338 210 338 c 0,12,13
205 420 m 2,30,31
 194 431 194 431 184 431 c 0,32,33
 159 431 159 431 155 386 c 1,34,-1
 118 386 l 1,35,36
 129 469 129 469 183 469 c 0,37,38
 196 469 196 469 206 464.5 c 128,-1,39
 216 460 216 460 227 449 c 2,40,-1
 241 435 l 2,41,42
 252 424 252 424 262 424 c 0,43,44
 285 424 285 424 291 469 c 1,45,-1
 327 469 l 1,46,47
 318 386 318 386 263 386 c 0,48,49
 249 386 249 386 239.5 390 c 128,-1,50
 230 394 230 394 219 406 c 2,51,-1
 205 420 l 2,30,31
EndSplineSet
EndChar
StartChar: uacute
Encoding: 250 250 126
Width: 364
Flags: W
Fore
81 330 m 1,0,-1
 136 330 l 1,1,-1
 96 126 l 2,2,3
 94 115 94 115 93 105 c 128,-1,4
 92 95 92 95 92 88 c 0,5,6
 92 39 92 39 144 39 c 0,7,8
 182 39 182 39 207.5 66 c 128,-1,9
 233 93 233 93 243 144 c 2,10,-1
 280 330 l 1,11,-1
 334 330 l 1,12,-1
 270 0 l 1,13,-1
 216 0 l 1,14,-1
 225 50 l 1,15,16
 183 -8 183 -8 120 -8 c 0,17,18
 81 -8 81 -8 59 14 c 0,19,20
 37 35 37 35 37 73 c 0,21,22
 37 84 37 84 38.5 98 c 128,-1,23
 40 112 40 112 42 126 c 2,24,-1
 81 330 l 1,0,-1
331 483 m 1,25,-1
 214 372 l 1,26,-1
 168 372 l 1,27,-1
 266 483 l 1,28,-1
 331 483 l 1,25,-1
EndSplineSet
EndChar
StartChar: ugrave
Encoding: 249 249 127
Width: 364
Flags: W
Fore
81 330 m 1,0,-1
 136 330 l 1,1,-1
 96 126 l 2,2,3
 94 115 94 115 93 105 c 128,-1,4
 92 95 92 95 92 88 c 0,5,6
 92 39 92 39 144 39 c 0,7,8
 182 39 182 39 207.5 66 c 128,-1,9
 233 93 233 93 243 144 c 2,10,-1
 280 330 l 1,11,-1
 334 330 l 1,12,-1
 270 0 l 1,13,-1
 216 0 l 1,14,-1
 225 50 l 1,15,16
 183 -8 183 -8 120 -8 c 0,17,18
 81 -8 81 -8 59 14 c 0,19,20
 37 35 37 35 37 73 c 0,21,22
 37 84 37 84 38.5 98 c 128,-1,23
 40 112 40 112 42 126 c 2,24,-1
 81 330 l 1,0,-1
249 372 m 1,25,-1
 207 372 l 1,26,-1
 132 483 l 1,27,-1
 191 483 l 1,28,-1
 249 372 l 1,25,-1
EndSplineSet
EndChar
StartChar: ucircumflex
Encoding: 251 251 128
Width: 364
Flags: W
Fore
81 330 m 1,0,-1
 136 330 l 1,1,-1
 96 126 l 2,2,3
 94 115 94 115 93 105 c 128,-1,4
 92 95 92 95 92 88 c 0,5,6
 92 39 92 39 144 39 c 0,7,8
 182 39 182 39 207.5 66 c 128,-1,9
 233 93 233 93 243 144 c 2,10,-1
 280 330 l 1,11,-1
 334 330 l 1,12,-1
 270 0 l 1,13,-1
 216 0 l 1,14,-1
 225 50 l 1,15,16
 183 -8 183 -8 120 -8 c 0,17,18
 81 -8 81 -8 59 14 c 0,19,20
 37 35 37 35 37 73 c 0,21,22
 37 84 37 84 38.5 98 c 128,-1,23
 40 112 40 112 42 126 c 2,24,-1
 81 330 l 1,0,-1
254 483 m 1,25,-1
 302 372 l 1,26,-1
 263 372 l 1,27,-1
 228 443 l 1,28,-1
 162 372 l 1,29,-1
 116 372 l 1,30,-1
 210 483 l 1,31,-1
 254 483 l 1,25,-1
EndSplineSet
EndChar
StartChar: udieresis
Encoding: 252 252 129
Width: 364
Flags: W
Fore
81 330 m 1,0,-1
 136 330 l 1,1,-1
 96 126 l 2,2,3
 94 115 94 115 93 105 c 128,-1,4
 92 95 92 95 92 88 c 0,5,6
 92 39 92 39 144 39 c 0,7,8
 182 39 182 39 207.5 66 c 128,-1,9
 233 93 233 93 243 144 c 2,10,-1
 280 330 l 1,11,-1
 334 330 l 1,12,-1
 270 0 l 1,13,-1
 216 0 l 1,14,-1
 225 50 l 1,15,16
 183 -8 183 -8 120 -8 c 0,17,18
 81 -8 81 -8 59 14 c 0,19,20
 37 35 37 35 37 73 c 0,21,22
 37 84 37 84 38.5 98 c 128,-1,23
 40 112 40 112 42 126 c 2,24,-1
 81 330 l 1,0,-1
199 458 m 1,25,-1
 187 398 l 1,26,-1
 127 398 l 1,27,-1
 139 458 l 1,28,-1
 199 458 l 1,25,-1
314 458 m 1,29,-1
 303 398 l 1,30,-1
 243 398 l 1,31,-1
 254 458 l 1,32,-1
 314 458 l 1,29,-1
EndSplineSet
EndChar
StartChar: dagger
Encoding: 8224 8224 130
Width: 364
Flags: W
Fore
251 440 m 1,0,-1
 227 317 l 1,1,-1
 335 317 l 1,2,-1
 326 271 l 1,3,-1
 217 271 l 1,4,-1
 153 -58 l 1,5,-1
 102 -58 l 1,6,-1
 166 271 l 1,7,-1
 58 271 l 1,8,-1
 66 317 l 1,9,-1
 175 317 l 1,10,-1
 199 440 l 1,11,-1
 251 440 l 1,0,-1
EndSplineSet
EndChar
StartChar: degree
Encoding: 176 176 131
Width: 364
Flags: W
Fore
182 448 m 256,0,1
 222 448 222 448 248 420 c 0,2,3
 276 394 276 394 276 354 c 0,4,5
 276 316 276 316 248 288 c 0,6,7
 221 261 221 261 181 261 c 256,8,9
 141 261 141 261 115 288 c 0,10,11
 88 314 88 314 88 354 c 256,12,13
 88 394 88 394 115 421 c 256,14,15
 142 448 142 448 182 448 c 256,0,1
182 410 m 256,16,17
 158 410 158 410 142 394 c 256,18,19
 126 378 126 378 126 354 c 256,20,21
 126 330 126 330 142 314 c 0,22,23
 159 299 159 299 181 299 c 0,24,25
 205 299 205 299 221 315 c 0,26,27
 238 332 238 332 238 354 c 256,28,29
 238 376 238 376 222 394 c 0,30,31
 206 410 206 410 182 410 c 256,16,17
EndSplineSet
EndChar
StartChar: cent
Encoding: 162 162 132
Width: 364
Flags: W
Fore
311 267 m 1,0,1
 282 290 282 290 239 293 c 1,2,-1
 189 36 l 1,3,4
 227 39 227 39 271 63 c 1,5,-1
 262 12 l 1,6,7
 239 3 239 3 219 -1.5 c 128,-1,8
 199 -6 199 -6 181 -8 c 1,9,-1
 164 -92 l 1,10,-1
 134 -92 l 1,11,-1
 150 -8 l 1,12,13
 96 -2 96 -2 66 34 c 256,14,15
 36 70 36 70 36 127 c 0,16,17
 36 182 36 182 60 230 c 0,18,19
 85 278 85 278 126 306 c 0,20,21
 165 333 165 333 217 338 c 1,22,-1
 234 422 l 1,23,-1
 264 422 l 1,24,-1
 248 338 l 1,25,26
 282 337 282 337 321 318 c 1,27,-1
 311 267 l 1,0,1
209 292 m 1,28,29
 159 287 159 287 127 239 c 0,30,31
 93 192 93 192 93 124 c 0,32,33
 93 45 93 45 160 37 c 1,34,-1
 209 292 l 1,28,29
EndSplineSet
EndChar
StartChar: sterling
Encoding: 163 163 133
Width: 364
Flags: W
Fore
352 377 m 1,0,1
 318 403 318 403 281 403 c 0,2,3
 240 403 240 403 218 378 c 0,4,5
 194 351 194 351 184 294 c 2,6,-1
 171 230 l 1,7,-1
 280 230 l 1,8,-1
 272 187 l 1,9,-1
 163 187 l 1,10,-1
 136 50 l 1,11,-1
 294 50 l 1,12,-1
 285 0 l 1,13,-1
 -2 0 l 1,14,-1
 7 50 l 1,15,-1
 77 50 l 1,16,-1
 104 187 l 1,17,-1
 45 187 l 1,18,-1
 53 230 l 1,19,-1
 112 230 l 1,20,-1
 126 300 l 2,21,22
 141 377 141 377 179.5 412.5 c 128,-1,23
 218 448 218 448 285 448 c 0,24,25
 322 448 322 448 363 431 c 1,26,-1
 352 377 l 1,0,1
EndSplineSet
EndChar
StartChar: section
Encoding: 167 167 134
Width: 364
Flags: W
Fore
306 381 m 1,0,1
 263 404 263 404 227 404 c 0,2,3
 197 404 197 404 177 389 c 0,4,5
 158 374 158 374 158 353 c 0,6,7
 158 330 158 330 197 304 c 0,8,9
 202 301 202 301 205.5 298.5 c 128,-1,10
 209 296 209 296 212 294 c 2,11,-1
 237 277 l 2,12,13
 274 251 274 251 286 234 c 0,14,15
 299 215 299 215 299 196 c 0,16,17
 299 168 299 168 279 140 c 0,18,19
 260 113 260 113 226 98 c 1,20,21
 250 77 250 77 250 45 c 0,22,23
 250 -2 250 -2 214 -30 c 0,24,25
 179 -59 179 -59 120 -59 c 0,26,27
 99 -59 99 -59 76.5 -55 c 128,-1,28
 54 -51 54 -51 30 -42 c 1,29,-1
 39 5 l 1,30,31
 85 -17 85 -17 122 -17 c 0,32,33
 154 -17 154 -17 174 -3 c 128,-1,34
 194 11 194 11 194 34 c 0,35,36
 194 63 194 63 140 99 c 2,37,-1
 136 102 l 1,38,-1
 114 117 l 2,39,40
 77 143 77 143 65 158 c 0,41,42
 54 175 54 175 54 196 c 0,43,44
 54 225 54 225 72.5 250 c 128,-1,45
 91 275 91 275 126 294 c 1,46,47
 114 305 114 305 108.5 316.5 c 128,-1,48
 103 328 103 328 103 344 c 0,49,50
 103 389 103 389 139 417 c 0,51,52
 174 446 174 446 229 446 c 0,53,54
 270 446 270 446 315 429 c 1,55,-1
 306 381 l 1,0,1
200 118 m 1,56,57
 251 149 251 149 251 182 c 0,58,59
 251 198 251 198 235 214 c 0,60,61
 227 222 227 222 212.5 233.5 c 128,-1,62
 198 245 198 245 176 259 c 2,63,-1
 152 274 l 1,64,65
 103 242 103 242 103 209 c 0,66,67
 103 194 103 194 115 180 c 0,68,69
 122 173 122 173 134 163.5 c 128,-1,70
 146 154 146 154 165 141 c 2,71,-1
 200 118 l 1,72,-1
 200 118 l 1,56,57
EndSplineSet
EndChar
StartChar: bullet
Encoding: 8226 8226 135
Width: 364
Flags: W
Fore
94 225 m 0,0,1
 94 261 94 261 119 286 c 0,2,3
 145 312 145 312 182 312 c 0,4,5
 218 312 218 312 244 286 c 0,6,7
 269 262 269 262 269 225 c 256,8,9
 269 188 269 188 244 163 c 0,10,11
 218 137 218 137 181 137 c 256,12,13
 144 137 144 137 119 162 c 256,14,15
 94 187 94 187 94 225 c 0,0,1
EndSplineSet
EndChar
StartChar: paragraph
Encoding: 182 182 136
Width: 364
Flags: W
Fore
337 440 m 1,0,-1
 240 -58 l 1,1,-1
 199 -58 l 1,2,-1
 288 404 l 1,3,-1
 232 404 l 1,4,-1
 142 -58 l 1,5,-1
 101 -58 l 1,6,-1
 149 191 l 1,7,8
 97 192 97 192 67 221 c 0,9,10
 37 248 37 248 37 296 c 0,11,12
 37 359 37 359 88 399 c 0,13,14
 138 440 138 440 217 440 c 2,15,-1
 337 440 l 1,0,-1
EndSplineSet
EndChar
StartChar: germandbls
Encoding: 223 223 137
Width: 364
Flags: W
Fore
81 335 m 1,0,1
 106 459 106 459 224 459 c 0,2,3
 277 459 277 459 304.5 436 c 128,-1,4
 332 413 332 413 332 368 c 0,5,6
 332 350 332 350 327 327 c 1,7,8
 277 321 277 321 246 301 c 0,9,10
 216 280 216 280 216 253 c 0,11,12
 216 241 216 241 222 232.5 c 128,-1,13
 228 224 228 224 246 210 c 2,14,-1
 261 199 l 2,15,16
 295 174 295 174 307 154 c 0,17,18
 319 135 319 135 319 109 c 0,19,20
 319 55 319 55 281 23 c 0,21,22
 241 -9 241 -9 177 -9 c 0,23,24
 136 -9 136 -9 97 6 c 1,25,-1
 106 54 l 1,26,27
 144 35 144 35 184 35 c 0,28,29
 223 35 223 35 245 53 c 0,30,31
 267 72 267 72 267 104 c 0,32,33
 267 118 267 118 259 131 c 0,34,35
 250 145 250 145 226 162 c 2,36,-1
 208 176 l 2,37,38
 183 194 183 194 173 209 c 0,39,40
 165 225 165 225 165 242 c 0,41,42
 165 281 165 281 195 309 c 0,43,44
 225 336 225 336 277 348 c 1,45,46
 279 358 279 358 279 365 c 0,47,48
 279 414 279 414 221 414 c 0,49,50
 151 414 151 414 136 334 c 2,51,-1
 71 0 l 1,52,-1
 16 0 l 1,53,-1
 81 335 l 1,54,-1
 81 335 l 1,0,1
EndSplineSet
EndChar
StartChar: registered
Encoding: 174 174 138
Width: 364
Flags: W
Fore
177 325 m 1,0,1
 263 325 263 325 263 266 c 0,2,3
 263 222 263 222 213 213 c 1,4,5
 224 210 224 210 247 175 c 2,6,-1
 281 120 l 1,7,-1
 239 120 l 1,8,-1
 207 171 l 2,9,10
 191 196 191 196 183 201 c 1,11,12
 176 207 176 207 161 207 c 2,13,-1
 145 207 l 1,14,-1
 145 120 l 1,15,-1
 107 120 l 1,16,-1
 107 325 l 1,17,-1
 177 325 l 1,18,-1
 177 325 l 1,0,1
145 300 m 1,19,-1
 145 231 l 1,20,-1
 175 231 l 2,21,22
 202 231 202 231 213 239 c 128,-1,23
 224 247 224 247 224 266 c 0,24,25
 224 284 224 284 213 292 c 128,-1,26
 202 300 202 300 175 300 c 2,27,-1
 145 300 l 1,19,-1
182 401 m 256,28,29
 257 401 257 401 310 348 c 0,30,31
 364 292 364 292 364 219 c 0,32,33
 364 144 364 144 310 91 c 0,34,35
 256 37 256 37 182 37 c 0,36,37
 107 37 107 37 54 91 c 0,38,39
 0 144 0 144 0 219 c 256,40,41
 0 294 0 294 54 348 c 0,42,43
 107 401 107 401 182 401 c 256,28,29
182 370 m 0,44,45
 118 370 118 370 75 326 c 0,46,47
 30 283 30 283 30 219 c 0,48,49
 30 156 30 156 75 112 c 0,50,51
 120 67 120 67 182 67 c 256,52,53
 244 67 244 67 289 112 c 0,54,55
 333 156 333 156 333 219 c 256,56,57
 333 282 333 282 289 326 c 256,58,59
 245 370 245 370 182 370 c 0,44,45
EndSplineSet
EndChar
StartChar: copyright
Encoding: 169 169 139
Width: 364
Flags: W
Fore
255 284 m 1,0,1
 222 300 222 300 188 300 c 256,2,3
 154 300 154 300 133 278 c 0,4,5
 114 258 114 258 114 219 c 256,6,7
 114 180 114 180 134.5 159 c 128,-1,8
 155 138 155 138 193 138 c 0,9,10
 210 138 210 138 225 141.5 c 128,-1,11
 240 145 240 145 255 153 c 1,12,-1
 255 122 l 1,13,14
 226 109 226 109 188 109 c 0,15,16
 135 109 135 109 104 138 c 0,17,18
 74 168 74 168 74 219 c 0,19,20
 74 271 74 271 104 299 c 0,21,22
 136 329 136 329 188 329 c 0,23,24
 226 329 226 329 255 316 c 1,25,-1
 255 284 l 1,0,1
182 370 m 0,26,27
 118 370 118 370 75 326 c 0,28,29
 30 283 30 283 30 219 c 0,30,31
 30 156 30 156 75 112 c 0,32,33
 120 67 120 67 182 67 c 256,34,35
 244 67 244 67 289 112 c 0,36,37
 333 156 333 156 333 219 c 256,38,39
 333 282 333 282 289 326 c 256,40,41
 245 370 245 370 182 370 c 0,26,27
182 401 m 256,42,43
 257 401 257 401 310 348 c 0,44,45
 364 292 364 292 364 219 c 0,46,47
 364 144 364 144 310 91 c 0,48,49
 256 37 256 37 182 37 c 0,50,51
 107 37 107 37 54 91 c 0,52,53
 0 144 0 144 0 219 c 256,54,55
 0 294 0 294 54 348 c 0,56,57
 107 401 107 401 182 401 c 256,42,43
EndSplineSet
EndChar
StartChar: trademark
Encoding: 8482 8482 140
Width: 364
Flags: W
Fore
129 413 m 1,0,-1
 81 413 l 1,1,-1
 81 270 l 1,2,-1
 48 270 l 1,3,-1
 48 413 l 1,4,-1
 0 413 l 1,5,-1
 0 440 l 1,6,-1
 129 440 l 1,7,-1
 129 413 l 1,0,-1
245 365 m 1,8,-1
 281 440 l 1,9,-1
 332 440 l 1,10,-1
 332 270 l 1,11,-1
 299 270 l 1,12,-1
 299 412 l 1,13,-1
 253 323 l 1,14,-1
 236 323 l 1,15,-1
 187 412 l 1,16,-1
 187 270 l 1,17,-1
 154 270 l 1,18,-1
 154 440 l 1,19,-1
 204 440 l 1,20,-1
 245 365 l 1,8,-1
EndSplineSet
EndChar
StartChar: acute
Encoding: 180 180 141
Width: 364
Flags: W
Fore
332 483 m 1,0,-1
 216 372 l 1,1,-1
 170 372 l 1,2,-1
 268 483 l 1,3,-1
 332 483 l 1,0,-1
EndSplineSet
EndChar
StartChar: dieresis
Encoding: 168 168 142
Width: 364
Flags: W
Fore
200 458 m 1,0,-1
 189 398 l 1,1,-1
 129 398 l 1,2,-1
 140 458 l 1,3,-1
 200 458 l 1,0,-1
315 458 m 1,4,-1
 304 398 l 1,5,-1
 244 398 l 1,6,-1
 255 458 l 1,7,-1
 315 458 l 1,4,-1
EndSplineSet
EndChar
StartChar: notequal
Encoding: 8800 8800 143
Width: 364
Flags: W
Fore
217 274 m 1,0,-1
 289 367 l 1,1,-1
 326 337 l 1,2,-1
 278 274 l 1,3,-1
 338 274 l 1,4,-1
 338 224 l 1,5,-1
 239 224 l 1,6,-1
 185 155 l 1,7,-1
 338 155 l 1,8,-1
 338 104 l 1,9,-1
 147 104 l 1,10,-1
 74 11 l 1,11,-1
 37 42 l 1,12,-1
 85 104 l 1,13,-1
 26 104 l 1,14,-1
 26 155 l 1,15,-1
 123 155 l 1,16,-1
 178 224 l 1,17,-1
 26 224 l 1,18,-1
 26 274 l 1,19,-1
 217 274 l 1,0,-1
EndSplineSet
EndChar
StartChar: AE
Encoding: 198 198 144
Width: 364
Flags: W
Fore
376 390 m 1,0,-1
 276 390 l 1,1,-1
 251 260 l 1,2,-1
 341 260 l 1,3,-1
 332 210 l 1,4,-1
 241 210 l 1,5,-1
 210 50 l 1,6,-1
 315 50 l 1,7,-1
 305 0 l 1,8,-1
 145 0 l 1,9,-1
 167 113 l 1,10,-1
 63 113 l 1,11,-1
 12 0 l 1,12,-1
 -43 0 l 1,13,-1
 164 440 l 1,14,-1
 386 440 l 1,15,-1
 376 390 l 1,0,-1
86 163 m 1,16,-1
 177 163 l 1,17,-1
 221 390 l 1,18,-1
 191 390 l 1,19,-1
 86 163 l 1,16,-1
EndSplineSet
EndChar
StartChar: Oslash
Encoding: 216 216 145
Width: 364
Flags: W
Fore
95 68 m 1,0,1
 107 40 107 40 148 40 c 0,2,3
 181 40 181 40 205 64 c 128,-1,4
 229 88 229 88 247 140 c 0,5,6
 254 161 254 161 259.5 182.5 c 128,-1,7
 265 204 265 204 269 226 c 0,8,9
 274 248 274 248 275.5 267.5 c 128,-1,10
 277 287 277 287 277 306 c 2,11,-1
 277 329 l 1,12,-1
 95 68 l 1,13,-1
 95 68 l 1,0,1
267 376 m 1,14,15
 248 400 248 400 215 400 c 256,16,17
 182 400 182 400 158 376 c 128,-1,18
 134 352 134 352 117 300 c 0,19,20
 102 256 102 256 93 212 c 0,21,22
 89 189 89 189 87 170 c 128,-1,23
 85 151 85 151 85 135 c 2,24,-1
 85 124 l 1,25,26
 86 120 86 120 86 115 c 1,27,-1
 267 376 l 1,14,15
323 394 m 1,28,29
 331 377 331 377 335.5 355.5 c 128,-1,30
 340 334 340 334 340 307 c 0,31,32
 340 278 340 278 336 248.5 c 128,-1,33
 332 219 332 219 324 187 c 0,34,35
 316 156 316 156 306 130 c 128,-1,36
 296 104 296 104 284 81 c 0,37,38
 233 -9 233 -9 141 -9 c 0,39,40
 94 -9 94 -9 61 19 c 1,41,-1
 33 -21 l 1,42,-1
 4 -2 l 1,43,-1
 39 48 l 1,44,45
 24 83 24 83 24 132 c 0,46,47
 24 192 24 192 39 253 c 0,48,49
 54 313 54 313 79 359 c 0,50,51
 131 448 131 448 222 448 c 0,52,53
 268 448 268 448 300 423 c 1,54,-1
 325 460 l 1,55,-1
 354 441 l 1,56,-1
 323 394 l 1,57,-1
 323 394 l 1,28,29
EndSplineSet
EndChar
StartChar: infinity
Encoding: 8734 8734 146
Width: 364
Flags: W
Fore
205 185 m 1,0,1
 221 145 221 145 235 130 c 256,2,3
 249 115 249 115 266 115 c 0,4,5
 287 115 287 115 301 135 c 0,6,7
 314 154 314 154 314 187 c 0,8,9
 314 218 314 218 302 237 c 256,10,11
 290 256 290 256 269 256 c 0,12,13
 231 256 231 256 205 185 c 1,0,1
158 187 m 1,14,15
 150 207 150 207 142.5 220.5 c 128,-1,16
 135 234 135 234 128 241 c 0,17,18
 115 256 115 256 97 256 c 0,19,20
 75 256 75 256 62 236 c 0,21,22
 49 217 49 217 49 186 c 0,23,24
 49 154 49 154 61 134 c 0,25,26
 74 115 74 115 94 115 c 0,27,28
 132 115 132 115 158 187 c 1,14,15
182 225 m 1,29,30
 196 260 196 260 217.5 278.5 c 128,-1,31
 239 297 239 297 266 297 c 0,32,33
 300 297 300 297 326 265 c 0,34,35
 352 231 352 231 352 186 c 0,36,37
 352 136 352 136 327 105 c 0,38,39
 305 74 305 74 266 74 c 0,40,41
 243 74 243 74 223 89 c 0,42,43
 204 102 204 102 181 142 c 1,44,45
 161 105 161 105 142 89.5 c 128,-1,46
 123 74 123 74 98 74 c 0,47,48
 61 74 61 74 37 105 c 0,49,50
 12 136 12 136 12 186 c 256,51,52
 12 236 12 236 35 267 c 0,53,54
 59 297 59 297 97 297 c 0,55,56
 125 297 125 297 145 280 c 128,-1,57
 165 263 165 263 182 225 c 1,29,30
EndSplineSet
EndChar
StartChar: plusminus
Encoding: 177 177 147
Width: 364
Flags: W
Fore
338 50 m 1,0,-1
 338 0 l 1,1,-1
 26 0 l 1,2,-1
 26 50 l 1,3,-1
 338 50 l 1,0,-1
207 248 m 1,4,-1
 338 248 l 1,5,-1
 338 198 l 1,6,-1
 207 198 l 1,7,-1
 207 100 l 1,8,-1
 157 100 l 1,9,-1
 157 198 l 1,10,-1
 26 198 l 1,11,-1
 26 248 l 1,12,-1
 157 248 l 1,13,-1
 157 345 l 1,14,-1
 207 345 l 1,15,-1
 207 248 l 1,4,-1
EndSplineSet
EndChar
StartChar: lessequal
Encoding: 8804 8804 148
Width: 364
Flags: W
Fore
337 76 m 1,0,-1
 25 173 l 1,1,-1
 25 223 l 1,2,-1
 337 321 l 1,3,-1
 337 266 l 1,4,-1
 101 198 l 1,5,-1
 337 129 l 1,6,-1
 337 76 l 1,0,-1
337 0 m 1,7,-1
 25 0 l 1,8,-1
 25 50 l 1,9,-1
 337 50 l 1,10,-1
 337 0 l 1,7,-1
EndSplineSet
EndChar
StartChar: greaterequal
Encoding: 8805 8805 149
Width: 364
Flags: W
Fore
263 198 m 1,0,-1
 26 266 l 1,1,-1
 26 321 l 1,2,-1
 338 223 l 1,3,-1
 338 173 l 1,4,-1
 26 76 l 1,5,-1
 26 129 l 1,6,-1
 263 198 l 1,0,-1
338 50 m 1,7,-1
 338 0 l 1,8,-1
 26 0 l 1,9,-1
 26 50 l 1,10,-1
 338 50 l 1,7,-1
EndSplineSet
EndChar
StartChar: yen
Encoding: 165 165 150
Width: 364
Flags: W
Fore
190 155 m 1,0,-1
 161 0 l 1,1,-1
 102 0 l 1,2,-1
 131 155 l 1,3,-1
 14 155 l 1,4,-1
 21 187 l 1,5,-1
 138 187 l 1,6,-1
 140 198 l 1,7,-1
 123 242 l 1,8,-1
 32 242 l 1,9,-1
 39 275 l 1,10,-1
 111 275 l 1,11,-1
 51 440 l 1,12,-1
 112 440 l 1,13,-1
 178 245 l 1,14,-1
 313 440 l 1,15,-1
 375 440 l 1,16,-1
 256 275 l 1,17,-1
 330 275 l 1,18,-1
 324 242 l 1,19,-1
 232 242 l 1,20,-1
 199 198 l 1,21,-1
 196 187 l 1,22,-1
 312 187 l 1,23,-1
 306 155 l 1,24,-1
 190 155 l 1,0,-1
EndSplineSet
EndChar
StartChar: mu
Encoding: 181 181 151
Width: 364
Flags: W
Fore
77 330 m 1,0,-1
 132 330 l 1,1,-1
 92 125 l 2,2,3
 89 107 89 107 89 94 c 0,4,5
 89 39 89 39 151 39 c 0,6,7
 231 39 231 39 250 138 c 2,8,-1
 287 330 l 1,9,-1
 342 330 l 1,10,-1
 292 76 l 2,11,12
 291 71 291 71 291 67 c 128,-1,13
 291 63 291 63 291 60 c 0,14,15
 291 42 291 42 305 42 c 0,16,17
 308 42 308 42 312.5 43 c 128,-1,18
 317 44 317 44 326 48 c 1,19,-1
 318 5 l 1,20,21
 293 -9 293 -9 274 -9 c 0,22,23
 254 -9 254 -9 242.5 3.5 c 128,-1,24
 231 16 231 16 231 38 c 1,25,26
 215 14 215 14 195 2.5 c 128,-1,27
 175 -9 175 -9 146 -9 c 0,28,29
 91 -9 91 -9 73 40 c 1,30,-1
 40 -126 l 1,31,-1
 -12 -126 l 1,32,-1
 77 330 l 1,0,-1
EndSplineSet
EndChar
StartChar: partialdiff
Encoding: 8706 8706 152
Width: 364
Flags: W
Fore
248 183 m 1,0,1
 257 234 257 234 257 279 c 0,2,3
 257 356 257 356 214 356 c 0,4,5
 199 356 199 356 177 339 c 0,6,7
 157 322 157 322 145 322 c 0,8,9
 134 322 134 322 127 328.5 c 128,-1,10
 120 335 120 335 120 344 c 0,11,12
 120 363 120 363 142 376 c 0,13,14
 163 391 163 391 193 391 c 0,15,16
 246 391 246 391 277 345 c 0,17,18
 309 299 309 299 309 222 c 0,19,20
 309 122 309 122 266 58 c 0,21,22
 225 -7 225 -7 161 -7 c 0,23,24
 116 -7 116 -7 86 24 c 0,25,26
 56 57 56 57 56 104 c 0,27,28
 56 164 56 164 89 201 c 0,29,30
 121 239 121 239 169 239 c 0,31,32
 199 239 199 239 218 225.5 c 128,-1,33
 237 212 237 212 248 183 c 1,0,1
234 146 m 0,34,35
 234 180 234 180 221 198.5 c 128,-1,36
 208 217 208 217 185 217 c 0,37,38
 153 217 153 217 132 179 c 0,39,40
 111 140 111 140 111 80 c 0,41,42
 111 9 111 9 160 9 c 0,43,44
 192 9 192 9 213 47 c 0,45,46
 234 86 234 86 234 146 c 0,34,35
EndSplineSet
EndChar
StartChar: summation
Encoding: 8721 8721 153
Width: 364
Flags: W
Fore
320 -88 m 1,0,-1
 320 -129 l 1,1,-1
 42 -129 l 1,2,-1
 42 -101 l 1,3,-1
 204 170 l 1,4,-1
 42 420 l 1,5,-1
 42 448 l 1,6,-1
 314 448 l 1,7,-1
 314 407 l 1,8,-1
 98 407 l 1,9,-1
 252 170 l 1,10,-1
 98 -88 l 1,11,-1
 320 -88 l 1,0,-1
EndSplineSet
EndChar
StartChar: product
Encoding: 8719 8719 154
Width: 364
Flags: W
Fore
45 448 m 1,0,-1
 319 448 l 1,1,-1
 319 -129 l 1,2,-1
 273 -129 l 1,3,-1
 273 409 l 1,4,-1
 91 409 l 1,5,-1
 91 -129 l 1,6,-1
 45 -129 l 1,7,-1
 45 448 l 1,0,-1
EndSplineSet
EndChar
StartChar: pi
Encoding: 960 960 155
Width: 364
Flags: W
Fore
340 325 m 1,0,-1
 340 281 l 1,1,-1
 299 281 l 1,2,-1
 299 73 l 2,3,4
 299 33 299 33 329 33 c 0,5,6
 334 33 334 33 340.5 34 c 128,-1,7
 347 35 347 35 349 35 c 1,8,-1
 349 -4 l 1,9,10
 327 -12 327 -12 306 -12 c 0,11,12
 273 -12 273 -12 259 8 c 256,13,14
 245 28 245 28 245 79 c 2,15,-1
 245 281 l 1,16,-1
 119 281 l 1,17,-1
 119 0 l 1,18,-1
 66 0 l 1,19,-1
 66 281 l 1,20,-1
 24 281 l 1,21,-1
 24 325 l 1,22,-1
 340 325 l 1,0,-1
EndSplineSet
EndChar
StartChar: integral
Encoding: 8747 8747 156
Width: 364
Flags: W
Fore
116 -77 m 0,0,1
 148 -77 148 -77 151 126 c 0,2,3
 152 142 152 142 152 154 c 128,-1,4
 152 166 152 166 152 174 c 0,5,6
 157 328 157 328 184 392 c 0,7,8
 211 457 211 457 271 457 c 0,9,10
 295 457 295 457 310 445 c 0,11,12
 325 432 325 432 325 413 c 0,13,14
 325 397 325 397 315.5 388 c 128,-1,15
 306 379 306 379 289 379 c 0,16,17
 263 379 263 379 257 400 c 0,18,19
 256 405 256 405 254 415 c 0,20,21
 252 426 252 426 248 426 c 0,22,23
 217 426 217 426 212 243 c 0,24,25
 211 214 211 214 211 192.5 c 128,-1,26
 211 171 211 171 210 154 c 0,27,28
 208 83 208 83 199.5 32.5 c 128,-1,29
 191 -18 191 -18 177 -48 c 0,30,31
 149 -109 149 -109 91 -109 c 0,32,33
 68 -109 68 -109 53 -97 c 256,34,35
 38 -85 38 -85 38 -66 c 0,36,37
 38 -31 38 -31 76 -31 c 0,38,39
 96 -31 96 -31 104 -47 c 0,40,41
 108 -54 108 -54 109 -65 c 0,42,43
 111 -77 111 -77 116 -77 c 0,0,1
EndSplineSet
EndChar
StartChar: ordfeminine
Encoding: 170 170 157
Width: 364
Flags: W
Fore
215 326 m 1,0,1
 130 326 130 326 130 277 c 0,2,3
 130 260 130 260 141 250.5 c 128,-1,4
 152 241 152 241 170 241 c 0,5,6
 202 241 202 241 224.5 260.5 c 128,-1,7
 247 280 247 280 255 317 c 2,8,-1
 257 326 l 1,9,-1
 215 326 l 1,10,-1
 215 326 l 1,0,1
277 212 m 1,11,-1
 235 212 l 1,12,-1
 242 245 l 1,13,14
 209 206 209 206 157 206 c 0,15,16
 125 206 125 206 106 223.5 c 128,-1,17
 87 241 87 241 87 271 c 0,18,19
 87 312 87 312 120 336 c 256,20,21
 153 360 153 360 212 360 c 2,22,-1
 263 360 l 1,23,-1
 263 362 l 1,24,25
 264 367 264 367 264 369.5 c 128,-1,26
 264 372 264 372 264 374 c 0,27,28
 264 395 264 395 251.5 404.5 c 128,-1,29
 239 414 239 414 210 414 c 0,30,31
 168 414 168 414 128 394 c 1,32,-1
 135 432 l 1,33,34
 157 440 157 440 178.5 444 c 128,-1,35
 200 448 200 448 219 448 c 0,36,37
 306 448 306 448 306 374 c 0,38,39
 306 361 306 361 303 344 c 2,40,-1
 277 212 l 1,11,-1
272 175 m 1,41,-1
 265 138 l 1,42,-1
 66 138 l 1,43,-1
 73 175 l 1,44,-1
 272 175 l 1,41,-1
EndSplineSet
EndChar
StartChar: ordmasculine
Encoding: 186 186 158
Width: 364
Flags: W
Fore
187 206 m 0,0,1
 142 206 142 206 116 232 c 0,2,3
 91 258 91 258 91 306 c 0,4,5
 91 332 91 332 100 358 c 128,-1,6
 109 384 109 384 126 404 c 0,7,8
 144 426 144 426 168 437 c 128,-1,9
 192 448 192 448 219 448 c 0,10,11
 264 448 264 448 289 422 c 256,12,13
 314 396 314 396 314 348 c 0,14,15
 314 322 314 322 305 296.5 c 128,-1,16
 296 271 296 271 279 251 c 0,17,18
 242 206 242 206 187 206 c 0,0,1
137 306 m 0,19,20
 137 275 137 275 151 257.5 c 128,-1,21
 165 240 165 240 191 240 c 0,22,23
 223 240 223 240 246 272 c 256,24,25
 269 304 269 304 269 348 c 0,26,27
 269 379 269 379 254.5 396.5 c 128,-1,28
 240 414 240 414 214 414 c 0,29,30
 183 414 183 414 159 383 c 0,31,32
 137 352 137 352 137 306 c 0,19,20
272 175 m 1,33,-1
 265 138 l 1,34,-1
 66 138 l 1,35,-1
 73 175 l 1,36,-1
 272 175 l 1,33,-1
EndSplineSet
EndChar
StartChar: Omega
Encoding: 937 937 159
Width: 364
Flags: W
Fore
22 51 m 1,0,-1
 94 51 l 1,1,2
 59 89 59 89 42 133 c 0,3,4
 25 176 25 176 25 231 c 0,5,6
 25 321 25 321 68 376 c 0,7,8
 110 431 110 431 181 431 c 0,9,10
 253 431 253 431 295 377 c 0,11,12
 338 324 338 324 338 231 c 0,13,14
 338 177 338 177 321 132 c 0,15,16
 304 89 304 89 269 51 c 1,17,-1
 342 51 l 1,18,-1
 342 0 l 1,19,-1
 205 0 l 1,20,-1
 205 51 l 1,21,22
 241 73 241 73 260 122 c 0,23,24
 280 168 280 168 280 236 c 256,25,26
 280 304 280 304 254 342 c 0,27,28
 227 382 227 382 182 382 c 0,29,30
 135 382 135 382 110 342 c 0,31,32
 83 305 83 305 83 236 c 0,33,34
 83 171 83 171 103 122 c 0,35,36
 124 73 124 73 158 51 c 1,37,-1
 158 0 l 1,38,-1
 22 0 l 1,39,-1
 22 51 l 1,0,-1
EndSplineSet
EndChar
StartChar: ae
Encoding: 230 230 160
Width: 364
Flags: W
Fore
148 152 m 1,0,-1
 134 152 l 2,1,2
 98 152 98 152 81 147 c 0,3,4
 65 142 65 142 55 131 c 0,5,6
 47 121 47 121 41.5 106.5 c 128,-1,7
 36 92 36 92 36 77 c 0,8,9
 36 60 36 60 48 48 c 0,10,11
 59 36 59 36 77 36 c 0,12,13
 103 36 103 36 118 56 c 0,14,15
 134 76 134 76 144 130 c 2,16,-1
 148 152 l 1,0,-1
307 216 m 2,17,18
 310 231 310 231 310 250 c 0,19,20
 310 270 310 270 300 282 c 128,-1,21
 290 294 290 294 273 294 c 0,22,23
 223 294 223 294 210 218 c 2,24,-1
 205 194 l 1,25,-1
 302 194 l 1,26,-1
 307 216 l 2,17,18
197 152 m 1,27,28
 192 125 192 125 189.5 108.5 c 128,-1,29
 187 92 187 92 187 84 c 0,30,31
 187 61 187 61 201 48 c 128,-1,32
 215 35 215 35 240 35 c 0,33,34
 261 35 261 35 282 43.5 c 128,-1,35
 303 52 303 52 319 67 c 1,36,-1
 309 16 l 1,37,38
 273 -9 273 -9 231 -9 c 0,39,40
 200 -9 200 -9 179.5 3.5 c 128,-1,41
 159 16 159 16 152 39 c 1,42,43
 124 -9 124 -9 69 -9 c 0,44,45
 33 -9 33 -9 9 13 c 0,46,47
 -14 34 -14 34 -14 71 c 0,48,49
 -14 131 -14 131 21.5 162.5 c 128,-1,50
 57 194 57 194 123 194 c 2,51,-1
 158 194 l 1,52,-1
 163 220 l 2,53,54
 165 226 165 226 165 232 c 128,-1,55
 165 238 165 238 165 246 c 0,56,57
 165 269 165 269 153 281.5 c 128,-1,58
 141 294 141 294 118 294 c 0,59,60
 87 294 87 294 42 269 c 1,61,-1
 52 318 l 1,62,63
 75 329 75 329 95 333.5 c 128,-1,64
 115 338 115 338 132 338 c 0,65,66
 183 338 183 338 201 300 c 1,67,68
 215 319 215 319 236 328.5 c 128,-1,69
 257 338 257 338 280 338 c 0,70,71
 316 338 316 338 337 316 c 256,72,73
 358 294 358 294 358 254 c 0,74,75
 358 243 358 243 355.5 224 c 128,-1,76
 353 205 353 205 348 178 c 2,77,-1
 343 152 l 1,78,-1
 197 152 l 1,27,28
EndSplineSet
EndChar
StartChar: oslash
Encoding: 248 248 161
Width: 364
Flags: W
Fore
111 55 m 1,0,1
 129 37 129 37 158 37 c 0,2,3
 206 37 206 37 239 88 c 0,4,5
 271 140 271 140 271 216 c 0,6,7
 271 224 271 224 271 230.5 c 128,-1,8
 271 237 271 237 269 243 c 1,9,-1
 111 55 l 1,0,1
52 39 m 1,10,11
 35 66 35 66 35 115 c 0,12,13
 35 157 35 157 46.5 196.5 c 128,-1,14
 58 236 58 236 81 269 c 0,15,16
 128 338 128 338 214 338 c 0,17,18
 259 338 259 338 286 317 c 1,19,-1
 319 358 l 1,20,-1
 346 335 l 1,21,-1
 310 292 l 1,22,23
 329 263 329 263 329 214 c 0,24,25
 329 174 329 174 317 133 c 0,26,27
 311 113 311 113 302.5 95.5 c 128,-1,28
 294 78 294 78 283 61 c 0,29,30
 236 -9 236 -9 149 -9 c 0,31,32
 107 -9 107 -9 76 13 c 1,33,-1
 41 -28 l 1,34,-1
 14 -6 l 1,35,-1
 52 39 l 1,36,-1
 52 39 l 1,10,11
251 277 m 1,37,38
 235 292 235 292 205 292 c 0,39,40
 156 292 156 292 124 242 c 0,41,42
 92 190 92 190 92 112 c 0,43,44
 92 106 92 106 92.5 100 c 128,-1,45
 93 94 93 94 94 89 c 1,46,-1
 251 277 l 1,47,-1
 251 277 l 1,37,38
EndSplineSet
EndChar
StartChar: questiondown
Encoding: 191 191 162
Width: 364
Flags: W
Fore
250 322 m 1,0,-1
 241 277 l 2,1,2
 235 248 235 248 224 230 c 0,3,4
 211 209 211 209 179 183 c 2,5,-1
 148 157 l 2,6,7
 123 136 123 136 112.5 119.5 c 128,-1,8
 102 103 102 103 102 86 c 0,9,10
 102 64 102 64 118.5 52 c 128,-1,11
 135 40 135 40 164 40 c 0,12,13
 187 40 187 40 216 50.5 c 128,-1,14
 245 61 245 61 277 81 c 1,15,-1
 266 25 l 1,16,17
 202 -8 202 -8 144 -8 c 0,18,19
 100 -8 100 -8 71 16 c 256,20,21
 42 40 42 40 42 77 c 0,22,23
 42 105 42 105 57 129 c 0,24,25
 64 141 64 141 77 154.5 c 128,-1,26
 90 168 90 168 109 184 c 2,27,-1
 140 210 l 2,28,29
 166 231 166 231 174 245 c 256,30,31
 182 259 182 259 187 286 c 2,32,-1
 193 322 l 1,33,-1
 250 322 l 1,0,-1
200 366 m 1,34,-1
 214 440 l 1,35,-1
 274 440 l 1,36,-1
 260 366 l 1,37,-1
 200 366 l 1,34,-1
EndSplineSet
EndChar
StartChar: exclamdown
Encoding: 161 161 163
Width: 364
Flags: W
Fore
186 366 m 1,0,-1
 201 440 l 1,1,-1
 260 440 l 1,2,-1
 246 366 l 1,3,-1
 186 366 l 1,0,-1
115 0 m 1,4,-1
 153 193 l 1,5,-1
 179 299 l 1,6,-1
 227 299 l 1,7,-1
 212 193 l 1,8,-1
 175 0 l 1,9,-1
 115 0 l 1,4,-1
EndSplineSet
EndChar
StartChar: logicalnot
Encoding: 172 172 164
Width: 364
Flags: W
Fore
338 254 m 1,0,-1
 338 109 l 1,1,-1
 288 109 l 1,2,-1
 288 204 l 1,3,-1
 26 204 l 1,4,-1
 26 254 l 1,5,-1
 338 254 l 1,0,-1
EndSplineSet
EndChar
StartChar: radical
Encoding: 8730 8730 165
Width: 364
Flags: W
Fore
17 253 m 1,0,-1
 103 282 l 1,1,-1
 168 66 l 1,2,-1
 306 500 l 1,3,-1
 349 500 l 1,4,-1
 349 462 l 1,5,-1
 335 462 l 1,6,-1
 186 -12 l 1,7,-1
 149 -12 l 1,8,-1
 76 232 l 1,9,-1
 30 216 l 1,10,-1
 17 253 l 1,0,-1
EndSplineSet
EndChar
StartChar: florin
Encoding: 402 402 166
Width: 364
Flags: W
Fore
354 400 m 1,0,1
 332 417 332 417 306 417 c 0,2,3
 247 417 247 417 237 342 c 2,4,-1
 224 250 l 1,5,-1
 313 250 l 1,6,-1
 313 208 l 1,7,-1
 216 208 l 1,8,-1
 187 21 l 2,9,10
 174 -57 174 -57 145 -92 c 0,11,12
 114 -126 114 -126 60 -126 c 0,13,14
 26 -126 26 -126 0 -113 c 1,15,-1
 0 -65 l 1,16,17
 29 -83 29 -83 58 -83 c 0,18,19
 114 -83 114 -83 130 5 c 2,20,-1
 164 208 l 1,21,-1
 90 208 l 1,22,-1
 90 250 l 1,23,-1
 171 250 l 1,24,-1
 186 348 l 2,25,26
 194 399 194 399 222 429 c 0,27,28
 252 459 252 459 295 459 c 0,29,30
 323 459 323 459 354 448 c 1,31,-1
 354 400 l 1,0,1
EndSplineSet
EndChar
StartChar: approxequal
Encoding: 8776 8776 167
Width: 364
Flags: W
Fore
338 232 m 1,0,1
 295 199 295 199 250 199 c 0,2,3
 223 199 223 199 190 214 c 0,4,5
 187 216 187 216 185 216.5 c 128,-1,6
 183 217 183 217 181 218 c 0,7,8
 169 223 169 223 159.5 226.5 c 128,-1,9
 150 230 150 230 142 232 c 0,10,11
 127 235 127 235 112 235 c 0,12,13
 68 235 68 235 26 199 c 1,14,-1
 26 250 l 1,15,16
 49 268 49 268 70.5 276 c 128,-1,17
 92 284 92 284 117 284 c 0,18,19
 132 284 132 284 147 281 c 0,20,21
 155 279 155 279 164 276 c 128,-1,22
 173 273 173 273 184 268 c 0,23,24
 186 267 186 267 188 266.5 c 128,-1,25
 190 266 190 266 193 264 c 0,26,27
 226 248 226 248 255 248 c 0,28,29
 296 248 296 248 338 284 c 1,30,-1
 338 232 l 1,0,1
338 124 m 1,31,32
 294 90 294 90 250 90 c 0,33,34
 223 90 223 90 190 105 c 0,35,36
 182 109 182 109 181 109 c 1,37,38
 168 115 168 115 158.5 118 c 128,-1,39
 149 121 149 121 141 123 c 0,40,41
 129 127 129 127 112 127 c 0,42,43
 89 127 89 127 68.5 118.5 c 128,-1,44
 48 110 48 110 26 90 c 1,45,-1
 26 141 l 1,46,47
 49 160 49 160 70.5 168 c 128,-1,48
 92 176 92 176 117 176 c 0,49,50
 131 176 131 176 147.5 172 c 128,-1,51
 164 168 164 168 183 160 c 0,52,53
 185 159 185 159 187.5 158 c 128,-1,54
 190 157 190 157 193 155 c 0,55,56
 226 139 226 139 255 139 c 0,57,58
 294 139 294 139 338 176 c 1,59,-1
 338 124 l 1,31,32
EndSplineSet
EndChar
StartChar: Delta
Encoding: 8710 8710 168
Width: 364
Flags: W
Fore
151 420 m 1,0,-1
 213 420 l 1,1,-1
 366 0 l 1,2,-1
 -2 0 l 1,3,-1
 151 420 l 1,0,-1
73 51 m 1,4,-1
 291 51 l 1,5,-1
 182 360 l 1,6,-1
 73 51 l 1,4,-1
EndSplineSet
EndChar
StartChar: guillemotleft
Encoding: 171 171 169
Width: 364
Flags: W
Fore
314 250 m 1,0,-1
 210 172 l 1,1,-1
 284 94 l 1,2,-1
 274 42 l 1,3,-1
 160 165 l 1,4,-1
 164 189 l 1,5,-1
 326 312 l 1,6,-1
 314 250 l 1,0,-1
176 250 m 1,7,-1
 73 172 l 1,8,-1
 146 94 l 1,9,-1
 136 42 l 1,10,-1
 22 165 l 1,11,-1
 27 189 l 1,12,-1
 189 312 l 1,13,-1
 176 250 l 1,7,-1
EndSplineSet
EndChar
StartChar: guillemotright
Encoding: 187 187 170
Width: 364
Flags: W
Fore
37 104 m 1,0,-1
 140 181 l 1,1,-1
 66 260 l 1,2,-1
 77 312 l 1,3,-1
 191 189 l 1,4,-1
 187 165 l 1,5,-1
 24 42 l 1,6,-1
 37 104 l 1,0,-1
175 104 m 1,7,-1
 278 181 l 1,8,-1
 204 260 l 1,9,-1
 214 312 l 1,10,-1
 329 189 l 1,11,-1
 325 165 l 1,12,-1
 162 42 l 1,13,-1
 175 104 l 1,7,-1
EndSplineSet
EndChar
StartChar: ellipsis
Encoding: 8230 8230 171
Width: 364
Flags: W
Fore
73 89 m 1,0,-1
 55 0 l 1,1,-1
 -19 0 l 1,2,-1
 -2 89 l 1,3,-1
 73 89 l 1,0,-1
314 89 m 1,4,-1
 297 0 l 1,5,-1
 222 0 l 1,6,-1
 240 89 l 1,7,-1
 314 89 l 1,4,-1
193 89 m 1,8,-1
 176 0 l 1,9,-1
 101 0 l 1,10,-1
 119 89 l 1,11,-1
 193 89 l 1,8,-1
EndSplineSet
EndChar
StartChar: Agrave
Encoding: 192 192 173
Width: 364
Flags: W
Fore
109 163 m 1,0,-1
 236 163 l 1,1,-1
 217 391 l 1,2,-1
 109 163 l 1,0,-1
261 440 m 1,3,-1
 310 0 l 1,4,-1
 251 0 l 1,5,-1
 240 115 l 1,6,-1
 87 115 l 1,7,-1
 33 0 l 1,8,-1
 -31 0 l 1,9,-1
 189 440 l 1,10,-1
 261 440 l 1,3,-1
260 482 m 1,11,-1
 219 482 l 1,12,-1
 163 560 l 1,13,-1
 216 560 l 1,14,-1
 260 482 l 1,11,-1
EndSplineSet
EndChar
StartChar: Atilde
Encoding: 195 195 174
Width: 364
Flags: W
Fore
109 163 m 1,0,-1
 236 163 l 1,1,-1
 217 391 l 1,2,-1
 109 163 l 1,0,-1
261 440 m 1,3,-1
 310 0 l 1,4,-1
 251 0 l 1,5,-1
 240 115 l 1,6,-1
 87 115 l 1,7,-1
 33 0 l 1,8,-1
 -31 0 l 1,9,-1
 189 440 l 1,10,-1
 261 440 l 1,3,-1
223 512 m 1,11,-1
 222 512 l 1,12,13
 209 522 209 522 199 522 c 0,14,15
 179 522 179 522 167 492 c 1,16,-1
 130 492 l 1,17,18
 151 556 151 556 202 556 c 0,19,20
 221 556 221 556 241 543 c 2,21,-1
 251 535 l 2,22,23
 260 527 260 527 273 527 c 0,24,25
 298 527 298 527 304 556 c 1,26,-1
 341 556 l 1,27,28
 323 492 323 492 268 492 c 0,29,30
 251 492 251 492 233 504 c 2,31,-1
 223 512 l 1,11,-1
EndSplineSet
EndChar
StartChar: Otilde
Encoding: 213 213 175
Width: 364
Flags: W
Fore
148 40 m 0,0,1
 173 40 173 40 194.5 54.5 c 128,-1,2
 216 69 216 69 230 98 c 0,3,4
 241 120 241 120 249.5 145.5 c 128,-1,5
 258 171 258 171 265 201 c 0,6,7
 278 260 278 260 278 318 c 0,8,9
 278 400 278 400 215 400 c 0,10,11
 190 400 190 400 169 385 c 128,-1,12
 148 370 148 370 134 342 c 0,13,14
 112 299 112 299 98 238 c 0,15,16
 85 180 85 180 85 122 c 0,17,18
 85 40 85 40 148 40 c 0,0,1
340 301 m 0,19,20
 340 269 340 269 333 231 c 128,-1,21
 326 193 326 193 314 152 c 0,22,23
 297 100 297 100 274 65 c 0,24,25
 248 27 248 27 216 9 c 128,-1,26
 184 -9 184 -9 141 -9 c 0,27,28
 24 -9 24 -9 24 140 c 0,29,30
 24 205 24 205 50 288 c 0,31,32
 58 315 58 315 68 336.5 c 128,-1,33
 78 358 78 358 89 375 c 0,34,35
 115 413 115 413 147 430.5 c 128,-1,36
 179 448 179 448 222 448 c 0,37,38
 282 448 282 448 311 412 c 128,-1,39
 340 376 340 376 340 301 c 0,19,20
221 512 m 1,40,-1
 220 512 l 1,41,42
 207 522 207 522 196 522 c 0,43,44
 176 522 176 522 165 492 c 1,45,-1
 128 492 l 1,46,47
 149 556 149 556 200 556 c 0,48,49
 219 556 219 556 239 543 c 2,50,-1
 249 535 l 2,51,52
 258 527 258 527 271 527 c 0,53,54
 296 527 296 527 302 556 c 1,55,-1
 339 556 l 1,56,57
 319 492 319 492 265 492 c 0,58,59
 249 492 249 492 231 504 c 2,60,-1
 221 512 l 1,40,-1
EndSplineSet
EndChar
StartChar: OE
Encoding: 338 338 176
Width: 364
Flags: W
Fore
316 0 m 1,0,-1
 138 0 l 2,1,2
 10 0 10 0 10 122 c 0,3,4
 10 144 10 144 12.5 168 c 128,-1,5
 15 192 15 192 20 219 c 256,6,7
 25 246 25 246 31 270 c 128,-1,8
 37 294 37 294 45 315 c 0,9,10
 70 382 70 382 112 412 c 0,11,12
 152 440 152 440 224 440 c 2,13,-1
 399 440 l 1,14,-1
 389 390 l 1,15,-1
 283 390 l 1,16,-1
 258 260 l 1,17,-1
 355 260 l 1,18,-1
 345 210 l 1,19,-1
 248 210 l 1,20,-1
 217 50 l 1,21,-1
 326 50 l 1,22,-1
 316 0 l 1,0,-1
207 390 m 1,23,24
 137 390 137 390 109 326 c 0,25,26
 95 293 95 293 80 220 c 0,27,28
 68 157 68 157 68 122 c 0,29,30
 68 50 68 50 141 50 c 2,31,-1
 159 50 l 1,32,-1
 225 390 l 1,33,-1
 207 390 l 1,34,-1
 207 390 l 1,23,24
EndSplineSet
EndChar
StartChar: oe
Encoding: 339 339 177
Width: 364
Flags: W
Fore
217 301 m 1,0,1
 251 338 251 338 297 338 c 0,2,3
 333 338 333 338 354 316 c 256,4,5
 375 294 375 294 375 254 c 0,6,7
 375 228 375 228 366 178 c 2,8,-1
 361 152 l 1,9,-1
 213 152 l 1,10,11
 208 125 208 125 205 108.5 c 128,-1,12
 202 92 202 92 202 84 c 0,13,14
 202 61 202 61 216.5 48 c 128,-1,15
 231 35 231 35 256 35 c 0,16,17
 276 35 276 35 297.5 43.5 c 128,-1,18
 319 52 319 52 335 67 c 1,19,-1
 325 16 l 1,20,21
 288 -9 288 -9 247 -9 c 0,22,23
 219 -9 219 -9 199 1.5 c 128,-1,24
 179 12 179 12 169 31 c 1,25,26
 134 -9 134 -9 86 -9 c 0,27,28
 43 -9 43 -9 20.5 15.5 c 128,-1,29
 -2 40 -2 40 -2 86 c 0,30,31
 -2 119 -2 119 7 165 c 0,32,33
 14 200 14 200 22.5 228 c 128,-1,34
 31 256 31 256 43 277 c 0,35,36
 77 338 77 338 147 338 c 0,37,38
 170 338 170 338 188.5 328 c 128,-1,39
 207 318 207 318 217 301 c 1,0,1
319 193 m 1,40,-1
 324 215 l 2,41,42
 327 233 327 233 327 248 c 0,43,44
 327 292 327 292 290 292 c 0,45,46
 241 292 241 292 227 217 c 2,47,-1
 222 193 l 1,48,-1
 319 193 l 1,40,-1
92 36 m 0,49,50
 129 36 129 36 146 77 c 0,51,52
 157 103 157 103 170 165 c 0,53,54
 175 197 175 197 178 216.5 c 128,-1,55
 181 236 181 236 181 246 c 0,56,57
 181 269 181 269 170.5 281.5 c 128,-1,58
 160 294 160 294 140 294 c 0,59,60
 101 294 101 294 84 253 c 0,61,62
 72 221 72 221 60 165 c 0,63,64
 55 139 55 139 52.5 118 c 128,-1,65
 50 97 50 97 50 86 c 0,66,67
 50 36 50 36 92 36 c 0,49,50
EndSplineSet
EndChar
StartChar: endash
Encoding: 8211 8211 178
Width: 364
Flags: W
Fore
357 187 m 1,0,-1
 349 145 l 1,1,-1
 -15 145 l 1,2,-1
 -7 187 l 1,3,-1
 357 187 l 1,0,-1
EndSplineSet
EndChar
StartChar: emdash
Encoding: 8212 8212 179
Width: 364
Flags: W
Fore
357 187 m 1,0,-1
 349 145 l 1,1,-1
 -15 145 l 1,2,-1
 -7 187 l 1,3,-1
 357 187 l 1,0,-1
EndSplineSet
EndChar
StartChar: quotedblleft
Encoding: 8220 8220 180
Width: 364
Flags: W
Fore
208 285 m 1,0,-1
 219 346 l 1,1,-1
 300 459 l 1,2,-1
 345 459 l 1,3,-1
 294 346 l 1,4,-1
 282 285 l 1,5,-1
 208 285 l 1,0,-1
73 285 m 1,6,-1
 84 346 l 1,7,-1
 164 459 l 1,8,-1
 210 459 l 1,9,-1
 158 346 l 1,10,-1
 147 285 l 1,11,-1
 73 285 l 1,6,-1
EndSplineSet
EndChar
StartChar: quotedblright
Encoding: 8221 8221 181
Width: 364
Flags: W
Fore
202 459 m 1,0,-1
 190 398 l 1,1,-1
 111 285 l 1,2,-1
 65 285 l 1,3,-1
 116 398 l 1,4,-1
 128 459 l 1,5,-1
 202 459 l 1,0,-1
338 459 m 1,6,-1
 326 398 l 1,7,-1
 246 285 l 1,8,-1
 201 285 l 1,9,-1
 251 398 l 1,10,-1
 263 459 l 1,11,-1
 338 459 l 1,6,-1
EndSplineSet
EndChar
StartChar: quoteleft
Encoding: 8216 8216 182
Width: 364
Flags: W
Fore
137 285 m 1,0,-1
 149 346 l 1,1,-1
 228 459 l 1,2,-1
 274 459 l 1,3,-1
 223 346 l 1,4,-1
 211 285 l 1,5,-1
 137 285 l 1,0,-1
EndSplineSet
EndChar
StartChar: quoteright
Encoding: 8217 8217 183
Width: 364
Flags: W
Fore
274 459 m 1,0,-1
 262 398 l 1,1,-1
 182 285 l 1,2,-1
 137 285 l 1,3,-1
 187 398 l 1,4,-1
 199 459 l 1,5,-1
 274 459 l 1,0,-1
EndSplineSet
EndChar
StartChar: divide
Encoding: 247 247 184
Width: 364
Flags: W
Fore
218 117 m 1,0,-1
 218 44 l 1,1,-1
 146 44 l 1,2,-1
 146 117 l 1,3,-1
 218 117 l 1,0,-1
218 335 m 1,4,-1
 218 262 l 1,5,-1
 146 262 l 1,6,-1
 146 335 l 1,7,-1
 218 335 l 1,4,-1
338 214 m 1,8,-1
 338 164 l 1,9,-1
 26 164 l 1,10,-1
 26 214 l 1,11,-1
 338 214 l 1,8,-1
EndSplineSet
EndChar
StartChar: lozenge
Encoding: 9674 9674 185
Width: 364
Flags: W
Fore
68 175 m 1,0,-1
 182 -69 l 1,1,-1
 295 175 l 1,2,-1
 182 416 l 1,3,-1
 68 175 l 1,0,-1
329 175 m 1,4,-1
 182 -141 l 1,5,-1
 35 175 l 1,6,-1
 182 488 l 1,7,-1
 329 175 l 1,4,-1
EndSplineSet
EndChar
StartChar: ydieresis
Encoding: 255 255 186
Width: 364
Flags: W
Fore
232 106 m 1,0,1
 223 90 223 90 211 69 c 128,-1,2
 199 48 199 48 183 21 c 0,3,4
 160 -20 160 -20 145 -45 c 128,-1,5
 130 -70 130 -70 122 -81 c 0,6,7
 88 -126 88 -126 32 -126 c 2,8,-1
 -12 -126 l 1,9,-1
 -3 -80 l 1,10,-1
 29 -80 l 2,11,12
 53 -80 53 -80 70 -66 c 0,13,14
 88 -51 88 -51 105 -19 c 2,15,-1
 118 5 l 1,16,-1
 54 330 l 1,17,-1
 108 330 l 1,18,-1
 158 76 l 1,19,-1
 301 330 l 1,20,-1
 361 330 l 1,21,-1
 232 106 l 1,22,-1
 232 106 l 1,0,1
200 458 m 1,23,-1
 189 398 l 1,24,-1
 129 398 l 1,25,-1
 140 458 l 1,26,-1
 200 458 l 1,23,-1
315 458 m 1,27,-1
 304 398 l 1,28,-1
 244 398 l 1,29,-1
 255 458 l 1,30,-1
 315 458 l 1,27,-1
EndSplineSet
EndChar
StartChar: Ydieresis
Encoding: 376 376 187
Width: 364
Flags: W
Fore
117 440 m 1,0,-1
 187 248 l 1,1,-1
 333 440 l 1,2,-1
 398 440 l 1,3,-1
 210 198 l 1,4,-1
 172 0 l 1,5,-1
 111 0 l 1,6,-1
 150 198 l 1,7,-1
 58 440 l 1,8,-1
 117 440 l 1,0,-1
326 552 m 1,9,-1
 315 492 l 1,10,-1
 255 492 l 1,11,-1
 266 552 l 1,12,-1
 326 552 l 1,9,-1
211 552 m 1,13,-1
 199 492 l 1,14,-1
 140 492 l 1,15,-1
 151 552 l 1,16,-1
 211 552 l 1,13,-1
EndSplineSet
EndChar
StartChar: fraction
Encoding: 8725 8725 188
Width: 364
Flags: W
Fore
367 440 m 1,0,-1
 39 -56 l 1,1,-1
 -17 -56 l 1,2,-1
 311 440 l 1,3,-1
 367 440 l 1,0,-1
EndSplineSet
EndChar
StartChar: currency
Encoding: 164 164 189
Width: 364
Flags: W
Fore
256 190 m 256,0,1
 256 216 256 216 238 234 c 0,2,3
 219 253 219 253 193 253 c 256,4,5
 167 253 167 253 148 234 c 0,6,7
 129 216 129 216 129 190 c 0,8,9
 129 162 129 162 148 144 c 0,10,11
 166 126 166 126 193 126 c 256,12,13
 220 126 220 126 238 144 c 0,14,15
 256 164 256 164 256 190 c 256,0,1
298 322 m 1,16,-1
 325 294 l 1,17,-1
 276 245 l 1,18,19
 293 216 293 216 293 189 c 0,20,21
 293 161 293 161 275 134 c 1,22,-1
 325 85 l 1,23,-1
 297 58 l 1,24,-1
 248 107 l 1,25,26
 221 89 221 89 193 89 c 256,27,28
 165 89 165 89 136 106 c 1,29,-1
 88 58 l 1,30,-1
 60 84 l 1,31,-1
 109 133 l 1,32,33
 92 161 92 161 92 189 c 0,34,35
 92 218 92 218 110 245 c 1,36,-1
 60 294 l 1,37,-1
 88 322 l 1,38,-1
 137 272 l 1,39,40
 164 290 164 290 193 290 c 0,41,42
 218 290 218 290 249 273 c 1,43,-1
 298 322 l 1,16,-1
EndSplineSet
EndChar
StartChar: guilsinglleft
Encoding: 8249 8249 190
Width: 364
Flags: W
Fore
246 250 m 1,0,-1
 142 172 l 1,1,-1
 216 94 l 1,2,-1
 206 42 l 1,3,-1
 91 165 l 1,4,-1
 96 189 l 1,5,-1
 259 312 l 1,6,-1
 246 250 l 1,0,-1
EndSplineSet
EndChar
StartChar: guilsinglright
Encoding: 8250 8250 191
Width: 364
Flags: W
Fore
106 104 m 1,0,-1
 210 181 l 1,1,-1
 136 260 l 1,2,-1
 146 312 l 1,3,-1
 260 189 l 1,4,-1
 255 165 l 1,5,-1
 94 42 l 1,6,-1
 106 104 l 1,0,-1
EndSplineSet
EndChar
StartChar: fi
Encoding: 64257 64257 192
Width: 364
Flags: W
Fore
370 459 m 1,0,-1
 357 390 l 1,1,-1
 303 390 l 1,2,-1
 316 459 l 1,3,-1
 370 459 l 1,0,-1
272 414 m 1,4,-1
 219 414 l 2,5,6
 190 414 190 414 176.5 401.5 c 128,-1,7
 163 389 163 389 156 360 c 2,8,-1
 150 330 l 1,9,-1
 345 330 l 1,10,-1
 281 0 l 1,11,-1
 227 0 l 1,12,-1
 283 288 l 1,13,-1
 142 288 l 1,14,-1
 86 0 l 1,15,-1
 32 0 l 1,16,-1
 88 288 l 1,17,-1
 29 288 l 1,18,-1
 37 330 l 1,19,-1
 96 330 l 1,20,-1
 101 353 l 2,21,22
 111 408 111 408 140 435 c 0,23,24
 170 459 170 459 224 459 c 2,25,-1
 281 459 l 1,26,-1
 272 414 l 1,4,-1
EndSplineSet
Ligature: 0 0 'liga' f i
EndChar
StartChar: fl
Encoding: 64258 64258 193
Width: 364
Flags: W
Fore
370 459 m 1,0,-1
 281 0 l 1,1,-1
 227 0 l 1,2,-1
 307 414 l 1,3,-1
 219 414 l 2,4,5
 190 414 190 414 176.5 401.5 c 128,-1,6
 163 389 163 389 156 360 c 2,7,-1
 150 330 l 1,8,-1
 238 330 l 1,9,-1
 230 288 l 1,10,-1
 142 288 l 1,11,-1
 86 0 l 1,12,-1
 32 0 l 1,13,-1
 88 288 l 1,14,-1
 29 288 l 1,15,-1
 37 330 l 1,16,-1
 96 330 l 1,17,-1
 101 353 l 2,18,19
 111 408 111 408 140 435 c 0,20,21
 170 459 170 459 224 459 c 2,22,-1
 370 459 l 1,0,-1
EndSplineSet
Ligature: 0 0 'liga' f l
EndChar
StartChar: daggerdbl
Encoding: 8225 8225 194
Width: 364
Flags: W
Fore
178 66 m 1,0,-1
 153 -58 l 1,1,-1
 102 -58 l 1,2,-1
 126 66 l 1,3,-1
 17 66 l 1,4,-1
 27 111 l 1,5,-1
 135 111 l 1,6,-1
 166 271 l 1,7,-1
 58 271 l 1,8,-1
 66 317 l 1,9,-1
 175 317 l 1,10,-1
 199 440 l 1,11,-1
 251 440 l 1,12,-1
 227 317 l 1,13,-1
 335 317 l 1,14,-1
 326 271 l 1,15,-1
 217 271 l 1,16,-1
 187 111 l 1,17,-1
 295 111 l 1,18,-1
 286 66 l 1,19,-1
 178 66 l 1,0,-1
EndSplineSet
EndChar
StartChar: periodcentered
Encoding: 183 183 195
Width: 364
Flags: W
Fore
226 255 m 1,0,-1
 209 165 l 1,1,-1
 134 165 l 1,2,-1
 151 255 l 1,3,-1
 226 255 l 1,0,-1
EndSplineSet
EndChar
StartChar: quotesinglbase
Encoding: 8218 8218 196
Width: 364
Flags: W
Fore
197 89 m 1,0,-1
 185 28 l 1,1,-1
 105 -85 l 1,2,-1
 60 -85 l 1,3,-1
 111 28 l 1,4,-1
 123 89 l 1,5,-1
 197 89 l 1,0,-1
EndSplineSet
EndChar
StartChar: quotedblbase
Encoding: 8222 8222 197
Width: 364
Flags: W
Fore
132 89 m 1,0,-1
 121 28 l 1,1,-1
 40 -85 l 1,2,-1
 -5 -85 l 1,3,-1
 46 28 l 1,4,-1
 58 89 l 1,5,-1
 132 89 l 1,0,-1
268 89 m 1,6,-1
 256 28 l 1,7,-1
 176 -85 l 1,8,-1
 130 -85 l 1,9,-1
 181 28 l 1,10,-1
 193 89 l 1,11,-1
 268 89 l 1,6,-1
EndSplineSet
EndChar
StartChar: perthousand
Encoding: 8240 8240 198
Width: 364
Flags: W
Fore
10 196 m 1,0,-1
 318 318 l 1,1,-1
 330 290 l 1,2,-1
 21 167 l 1,3,-1
 10 196 l 1,0,-1
49 85 m 256,4,5
 49 66 49 66 63 50 c 0,6,7
 76 36 76 36 97 36 c 256,8,9
 118 36 118 36 132 50 c 256,10,11
 146 64 146 64 146 85 c 0,12,13
 146 105 146 105 132 119 c 0,14,15
 117 134 117 134 97 134 c 0,16,17
 76 134 76 134 63 120 c 0,18,19
 49 104 49 104 49 85 c 256,4,5
13 85 m 0,20,21
 13 121 13 121 37 145 c 0,22,23
 64 170 64 170 97 170 c 0,24,25
 132 170 132 170 157 145 c 256,26,27
 182 120 182 120 182 85 c 256,28,29
 182 50 182 50 157 25 c 0,30,31
 133 0 133 0 97 0 c 0,32,33
 63 0 63 0 37 24 c 0,34,35
 13 50 13 50 13 85 c 0,20,21
36 338 m 256,36,37
 36 317 36 317 50 303 c 0,38,39
 66 289 66 289 85 289 c 0,40,41
 105 289 105 289 119 303 c 0,42,43
 134 318 134 318 134 338 c 0,44,45
 134 357 134 357 119 372 c 256,46,47
 104 387 104 387 85 387 c 0,48,49
 65 387 65 387 50 372 c 0,50,51
 36 359 36 359 36 338 c 256,36,37
0 338 m 256,52,53
 0 373 0 373 24 398 c 0,54,55
 50 422 50 422 85 422 c 256,56,57
 120 422 120 422 145 398 c 0,58,59
 169 373 169 373 169 338 c 256,60,61
 169 303 169 303 145 277 c 0,62,63
 120 253 120 253 85 253 c 256,64,65
 50 253 50 253 24 277 c 0,66,67
 0 303 0 303 0 338 c 256,52,53
230 85 m 256,68,69
 230 66 230 66 244 50 c 0,70,71
 258 36 258 36 279 36 c 256,72,73
 300 36 300 36 314 50 c 0,74,75
 328 66 328 66 328 85 c 0,76,77
 328 105 328 105 314 119 c 0,78,79
 299 134 299 134 279 134 c 0,80,81
 258 134 258 134 244 120 c 0,82,83
 230 104 230 104 230 85 c 256,68,69
194 85 m 0,84,85
 194 120 194 120 219 145 c 256,86,87
 244 170 244 170 279 170 c 256,88,89
 314 170 314 170 339 145 c 256,90,91
 364 120 364 120 364 85 c 256,92,93
 364 50 364 50 339 25 c 0,94,95
 315 0 315 0 279 0 c 256,96,97
 243 0 243 0 219 24 c 0,98,99
 194 51 194 51 194 85 c 0,84,85
EndSplineSet
EndChar
StartChar: Acircumflex
Encoding: 194 194 199
Width: 364
Flags: W
Fore
109 163 m 1,0,-1
 236 163 l 1,1,-1
 217 391 l 1,2,-1
 109 163 l 1,0,-1
261 440 m 1,3,-1
 310 0 l 1,4,-1
 251 0 l 1,5,-1
 240 115 l 1,6,-1
 87 115 l 1,7,-1
 33 0 l 1,8,-1
 -31 0 l 1,9,-1
 189 440 l 1,10,-1
 261 440 l 1,3,-1
271 561 m 1,11,-1
 317 482 l 1,12,-1
 278 482 l 1,13,-1
 237 535 l 1,14,-1
 175 482 l 1,15,-1
 130 482 l 1,16,-1
 208 561 l 1,17,-1
 271 561 l 1,11,-1
EndSplineSet
EndChar
StartChar: Ecircumflex
Encoding: 202 202 200
Width: 364
Flags: W
Fore
363 440 m 1,0,-1
 353 390 l 1,1,-1
 151 390 l 1,2,-1
 126 260 l 1,3,-1
 318 260 l 1,4,-1
 309 210 l 1,5,-1
 116 210 l 1,6,-1
 85 50 l 1,7,-1
 292 50 l 1,8,-1
 283 0 l 1,9,-1
 16 0 l 1,10,-1
 101 440 l 1,11,-1
 363 440 l 1,0,-1
284 561 m 1,12,-1
 330 482 l 1,13,-1
 291 482 l 1,14,-1
 250 535 l 1,15,-1
 189 482 l 1,16,-1
 144 482 l 1,17,-1
 221 561 l 1,18,-1
 284 561 l 1,12,-1
EndSplineSet
EndChar
StartChar: Aacute
Encoding: 193 193 201
Width: 364
Flags: W
Fore
109 163 m 1,0,-1
 236 163 l 1,1,-1
 217 391 l 1,2,-1
 109 163 l 1,0,-1
261 440 m 1,3,-1
 310 0 l 1,4,-1
 251 0 l 1,5,-1
 240 115 l 1,6,-1
 87 115 l 1,7,-1
 33 0 l 1,8,-1
 -31 0 l 1,9,-1
 189 440 l 1,10,-1
 261 440 l 1,3,-1
322 560 m 1,11,-1
 232 482 l 1,12,-1
 185 482 l 1,13,-1
 261 560 l 1,14,-1
 322 560 l 1,11,-1
EndSplineSet
EndChar
StartChar: Edieresis
Encoding: 203 203 202
Width: 364
Flags: W
Fore
363 440 m 1,0,-1
 353 390 l 1,1,-1
 151 390 l 1,2,-1
 126 260 l 1,3,-1
 318 260 l 1,4,-1
 309 210 l 1,5,-1
 116 210 l 1,6,-1
 85 50 l 1,7,-1
 292 50 l 1,8,-1
 283 0 l 1,9,-1
 16 0 l 1,10,-1
 101 440 l 1,11,-1
 363 440 l 1,0,-1
338 552 m 1,12,-1
 326 492 l 1,13,-1
 266 492 l 1,14,-1
 278 552 l 1,15,-1
 338 552 l 1,12,-1
223 552 m 1,16,-1
 211 492 l 1,17,-1
 151 492 l 1,18,-1
 163 552 l 1,19,-1
 223 552 l 1,16,-1
EndSplineSet
EndChar
StartChar: Egrave
Encoding: 200 200 203
Width: 364
Flags: W
Fore
363 440 m 1,0,-1
 353 390 l 1,1,-1
 151 390 l 1,2,-1
 126 260 l 1,3,-1
 318 260 l 1,4,-1
 309 210 l 1,5,-1
 116 210 l 1,6,-1
 85 50 l 1,7,-1
 292 50 l 1,8,-1
 283 0 l 1,9,-1
 16 0 l 1,10,-1
 101 440 l 1,11,-1
 363 440 l 1,0,-1
273 482 m 1,12,-1
 232 482 l 1,13,-1
 176 560 l 1,14,-1
 230 560 l 1,15,-1
 273 482 l 1,12,-1
EndSplineSet
EndChar
StartChar: Iacute
Encoding: 205 205 204
Width: 364
Flags: W
Fore
347 440 m 1,0,-1
 337 390 l 1,1,-1
 245 390 l 1,2,-1
 179 50 l 1,3,-1
 271 50 l 1,4,-1
 262 0 l 1,5,-1
 17 0 l 1,6,-1
 27 50 l 1,7,-1
 119 50 l 1,8,-1
 185 390 l 1,9,-1
 92 390 l 1,10,-1
 102 440 l 1,11,-1
 347 440 l 1,0,-1
324 560 m 1,12,-1
 234 482 l 1,13,-1
 186 482 l 1,14,-1
 263 560 l 1,15,-1
 324 560 l 1,12,-1
EndSplineSet
EndChar
StartChar: Icircumflex
Encoding: 206 206 205
Width: 364
Flags: W
Fore
347 440 m 1,0,-1
 337 390 l 1,1,-1
 245 390 l 1,2,-1
 179 50 l 1,3,-1
 271 50 l 1,4,-1
 262 0 l 1,5,-1
 17 0 l 1,6,-1
 27 50 l 1,7,-1
 119 50 l 1,8,-1
 185 390 l 1,9,-1
 92 390 l 1,10,-1
 102 440 l 1,11,-1
 347 440 l 1,0,-1
272 561 m 1,12,-1
 319 482 l 1,13,-1
 280 482 l 1,14,-1
 239 535 l 1,15,-1
 177 482 l 1,16,-1
 132 482 l 1,17,-1
 209 561 l 1,18,-1
 272 561 l 1,12,-1
EndSplineSet
EndChar
StartChar: Idieresis
Encoding: 207 207 206
Width: 364
Flags: W
Fore
347 440 m 1,0,-1
 337 390 l 1,1,-1
 245 390 l 1,2,-1
 179 50 l 1,3,-1
 271 50 l 1,4,-1
 262 0 l 1,5,-1
 17 0 l 1,6,-1
 27 50 l 1,7,-1
 119 50 l 1,8,-1
 185 390 l 1,9,-1
 92 390 l 1,10,-1
 102 440 l 1,11,-1
 347 440 l 1,0,-1
326 552 m 1,12,-1
 315 492 l 1,13,-1
 255 492 l 1,14,-1
 266 552 l 1,15,-1
 326 552 l 1,12,-1
211 552 m 1,16,-1
 199 492 l 1,17,-1
 140 492 l 1,18,-1
 151 552 l 1,19,-1
 211 552 l 1,16,-1
EndSplineSet
EndChar
StartChar: Igrave
Encoding: 204 204 207
Width: 364
Flags: W
Fore
347 440 m 1,0,-1
 337 390 l 1,1,-1
 245 390 l 1,2,-1
 179 50 l 1,3,-1
 271 50 l 1,4,-1
 262 0 l 1,5,-1
 17 0 l 1,6,-1
 27 50 l 1,7,-1
 119 50 l 1,8,-1
 185 390 l 1,9,-1
 92 390 l 1,10,-1
 102 440 l 1,11,-1
 347 440 l 1,0,-1
261 482 m 1,12,-1
 220 482 l 1,13,-1
 164 560 l 1,14,-1
 218 560 l 1,15,-1
 261 482 l 1,12,-1
EndSplineSet
EndChar
StartChar: Oacute
Encoding: 211 211 208
Width: 364
Flags: W
Fore
148 40 m 0,0,1
 173 40 173 40 194.5 54.5 c 128,-1,2
 216 69 216 69 230 98 c 0,3,4
 241 120 241 120 249.5 145.5 c 128,-1,5
 258 171 258 171 265 201 c 0,6,7
 278 260 278 260 278 318 c 0,8,9
 278 400 278 400 215 400 c 0,10,11
 190 400 190 400 169 385 c 128,-1,12
 148 370 148 370 134 342 c 0,13,14
 112 299 112 299 98 238 c 0,15,16
 85 180 85 180 85 122 c 0,17,18
 85 40 85 40 148 40 c 0,0,1
340 301 m 0,19,20
 340 269 340 269 333 231 c 128,-1,21
 326 193 326 193 314 152 c 0,22,23
 297 100 297 100 274 65 c 0,24,25
 248 27 248 27 216 9 c 128,-1,26
 184 -9 184 -9 141 -9 c 0,27,28
 24 -9 24 -9 24 140 c 0,29,30
 24 205 24 205 50 288 c 0,31,32
 58 315 58 315 68 336.5 c 128,-1,33
 78 358 78 358 89 375 c 0,34,35
 115 413 115 413 147 430.5 c 128,-1,36
 179 448 179 448 222 448 c 0,37,38
 282 448 282 448 311 412 c 128,-1,39
 340 376 340 376 340 301 c 0,19,20
320 560 m 1,40,-1
 230 482 l 1,41,-1
 182 482 l 1,42,-1
 259 560 l 1,43,-1
 320 560 l 1,40,-1
EndSplineSet
EndChar
StartChar: Ocircumflex
Encoding: 212 212 209
Width: 364
Flags: W
Fore
148 40 m 0,0,1
 173 40 173 40 194.5 54.5 c 128,-1,2
 216 69 216 69 230 98 c 0,3,4
 241 120 241 120 249.5 145.5 c 128,-1,5
 258 171 258 171 265 201 c 0,6,7
 278 260 278 260 278 318 c 0,8,9
 278 400 278 400 215 400 c 0,10,11
 190 400 190 400 169 385 c 128,-1,12
 148 370 148 370 134 342 c 0,13,14
 112 299 112 299 98 238 c 0,15,16
 85 180 85 180 85 122 c 0,17,18
 85 40 85 40 148 40 c 0,0,1
340 301 m 0,19,20
 340 269 340 269 333 231 c 128,-1,21
 326 193 326 193 314 152 c 0,22,23
 297 100 297 100 274 65 c 0,24,25
 248 27 248 27 216 9 c 128,-1,26
 184 -9 184 -9 141 -9 c 0,27,28
 24 -9 24 -9 24 140 c 0,29,30
 24 205 24 205 50 288 c 0,31,32
 58 315 58 315 68 336.5 c 128,-1,33
 78 358 78 358 89 375 c 0,34,35
 115 413 115 413 147 430.5 c 128,-1,36
 179 448 179 448 222 448 c 0,37,38
 282 448 282 448 311 412 c 128,-1,39
 340 376 340 376 340 301 c 0,19,20
268 561 m 1,40,-1
 315 482 l 1,41,-1
 276 482 l 1,42,-1
 235 535 l 1,43,-1
 173 482 l 1,44,-1
 128 482 l 1,45,-1
 205 561 l 1,46,-1
 268 561 l 1,40,-1
EndSplineSet
EndChar
StartChar: Ograve
Encoding: 210 210 210
Width: 364
Flags: W
Fore
148 40 m 0,0,1
 173 40 173 40 194.5 54.5 c 128,-1,2
 216 69 216 69 230 98 c 0,3,4
 241 120 241 120 249.5 145.5 c 128,-1,5
 258 171 258 171 265 201 c 0,6,7
 278 260 278 260 278 318 c 0,8,9
 278 400 278 400 215 400 c 0,10,11
 190 400 190 400 169 385 c 128,-1,12
 148 370 148 370 134 342 c 0,13,14
 112 299 112 299 98 238 c 0,15,16
 85 180 85 180 85 122 c 0,17,18
 85 40 85 40 148 40 c 0,0,1
340 301 m 0,19,20
 340 269 340 269 333 231 c 128,-1,21
 326 193 326 193 314 152 c 0,22,23
 297 100 297 100 274 65 c 0,24,25
 248 27 248 27 216 9 c 128,-1,26
 184 -9 184 -9 141 -9 c 0,27,28
 24 -9 24 -9 24 140 c 0,29,30
 24 205 24 205 50 288 c 0,31,32
 58 315 58 315 68 336.5 c 128,-1,33
 78 358 78 358 89 375 c 0,34,35
 115 413 115 413 147 430.5 c 128,-1,36
 179 448 179 448 222 448 c 0,37,38
 282 448 282 448 311 412 c 128,-1,39
 340 376 340 376 340 301 c 0,19,20
257 482 m 1,40,-1
 216 482 l 1,41,-1
 160 560 l 1,42,-1
 214 560 l 1,43,-1
 257 482 l 1,40,-1
EndSplineSet
EndChar
StartChar: Uacute
Encoding: 218 218 211
Width: 364
Flags: W
Fore
86 440 m 1,0,-1
 146 440 l 1,1,-1
 94 169 l 1,2,3
 93 167 93 167 92.5 164.5 c 128,-1,4
 92 162 92 162 91 157 c 0,5,6
 82 112 82 112 82 94 c 0,7,8
 82 40 82 40 147 40 c 0,9,10
 173 40 173 40 191 48 c 128,-1,11
 209 56 209 56 223 75 c 0,12,13
 230 84 230 84 236.5 106 c 128,-1,14
 243 128 243 128 251 169 c 2,15,-1
 303 440 l 1,16,-1
 363 440 l 1,17,-1
 311 169 l 2,18,19
 304 137 304 137 298 113 c 128,-1,20
 292 89 292 89 284 74 c 0,21,22
 271 44 271 44 247 25 c 0,23,24
 204 -9 204 -9 141 -9 c 0,25,26
 84 -9 84 -9 54 17.5 c 128,-1,27
 24 44 24 44 24 94 c 0,28,29
 24 116 24 116 34 169 c 2,30,-1
 86 440 l 1,0,-1
324 560 m 1,31,-1
 233 482 l 1,32,-1
 186 482 l 1,33,-1
 262 560 l 1,34,-1
 324 560 l 1,31,-1
EndSplineSet
EndChar
StartChar: Ucircumflex
Encoding: 219 219 212
Width: 364
Flags: W
Fore
86 440 m 1,0,-1
 146 440 l 1,1,-1
 94 169 l 1,2,3
 93 167 93 167 92.5 164.5 c 128,-1,4
 92 162 92 162 91 157 c 0,5,6
 82 112 82 112 82 94 c 0,7,8
 82 40 82 40 147 40 c 0,9,10
 173 40 173 40 191 48 c 128,-1,11
 209 56 209 56 223 75 c 0,12,13
 230 84 230 84 236.5 106 c 128,-1,14
 243 128 243 128 251 169 c 2,15,-1
 303 440 l 1,16,-1
 363 440 l 1,17,-1
 311 169 l 2,18,19
 304 137 304 137 298 113 c 128,-1,20
 292 89 292 89 284 74 c 0,21,22
 271 44 271 44 247 25 c 0,23,24
 204 -9 204 -9 141 -9 c 0,25,26
 84 -9 84 -9 54 17.5 c 128,-1,27
 24 44 24 44 24 94 c 0,28,29
 24 116 24 116 34 169 c 2,30,-1
 86 440 l 1,0,-1
272 561 m 1,31,-1
 318 482 l 1,32,-1
 279 482 l 1,33,-1
 238 535 l 1,34,-1
 176 482 l 1,35,-1
 132 482 l 1,36,-1
 209 561 l 1,37,-1
 272 561 l 1,31,-1
EndSplineSet
EndChar
StartChar: Ugrave
Encoding: 217 217 213
Width: 364
Flags: W
Fore
86 440 m 1,0,-1
 146 440 l 1,1,-1
 94 169 l 1,2,3
 93 167 93 167 92.5 164.5 c 128,-1,4
 92 162 92 162 91 157 c 0,5,6
 82 112 82 112 82 94 c 0,7,8
 82 40 82 40 147 40 c 0,9,10
 173 40 173 40 191 48 c 128,-1,11
 209 56 209 56 223 75 c 0,12,13
 230 84 230 84 236.5 106 c 128,-1,14
 243 128 243 128 251 169 c 2,15,-1
 303 440 l 1,16,-1
 363 440 l 1,17,-1
 311 169 l 2,18,19
 304 137 304 137 298 113 c 128,-1,20
 292 89 292 89 284 74 c 0,21,22
 271 44 271 44 247 25 c 0,23,24
 204 -9 204 -9 141 -9 c 0,25,26
 84 -9 84 -9 54 17.5 c 128,-1,27
 24 44 24 44 24 94 c 0,28,29
 24 116 24 116 34 169 c 2,30,-1
 86 440 l 1,0,-1
261 482 m 1,31,-1
 220 482 l 1,32,-1
 164 560 l 1,33,-1
 217 560 l 1,34,-1
 261 482 l 1,31,-1
EndSplineSet
EndChar
StartChar: dotlessi
Encoding: 305 305 214
Width: 364
Flags: W
Fore
245 330 m 1,0,-1
 189 42 l 1,1,-1
 296 42 l 1,2,-1
 288 0 l 1,3,-1
 18 0 l 1,4,-1
 27 42 l 1,5,-1
 134 42 l 1,6,-1
 182 288 l 1,7,-1
 97 288 l 1,8,-1
 106 330 l 1,9,-1
 245 330 l 1,0,-1
EndSplineSet
EndChar
StartChar: circumflex
Encoding: 710 710 215
Width: 364
Flags: W
Fore
255 483 m 1,0,-1
 303 372 l 1,1,-1
 264 372 l 1,2,-1
 230 443 l 1,3,-1
 163 372 l 1,4,-1
 117 372 l 1,5,-1
 212 483 l 1,6,-1
 255 483 l 1,0,-1
EndSplineSet
EndChar
StartChar: tilde
Encoding: 732 732 216
Width: 364
Flags: W
Fore
205 420 m 2,0,1
 194 431 194 431 184 431 c 0,2,3
 159 431 159 431 155 386 c 1,4,-1
 118 386 l 1,5,6
 129 469 129 469 183 469 c 0,7,8
 196 469 196 469 206 464.5 c 128,-1,9
 216 460 216 460 227 449 c 2,10,-1
 241 435 l 2,11,12
 252 424 252 424 262 424 c 0,13,14
 285 424 285 424 291 469 c 1,15,-1
 327 469 l 1,16,17
 318 386 318 386 263 386 c 0,18,19
 249 386 249 386 239.5 390 c 128,-1,20
 230 394 230 394 219 406 c 2,21,-1
 205 420 l 2,0,1
EndSplineSet
EndChar
StartChar: macron
Encoding: 175 175 217
Width: 364
Flags: W
Fore
315 450 m 1,0,-1
 306 407 l 1,1,-1
 130 407 l 1,2,-1
 138 450 l 1,3,-1
 315 450 l 1,0,-1
EndSplineSet
EndChar
StartChar: breve
Encoding: 728 728 218
Width: 364
Flags: W
Fore
175 474 m 1,0,-1
 175 469 l 2,1,2
 175 430 175 430 225 430 c 0,3,4
 271 430 271 430 289 474 c 1,5,-1
 324 474 l 1,6,7
 304 390 304 390 221 390 c 0,8,9
 181 390 181 390 159.5 408.5 c 128,-1,10
 138 427 138 427 138 462 c 0,11,12
 138 471 138 471 139 474 c 1,13,-1
 175 474 l 1,0,-1
EndSplineSet
EndChar
StartChar: dotaccent
Encoding: 729 729 219
Width: 364
Flags: W
Fore
259 458 m 1,0,-1
 247 398 l 1,1,-1
 186 398 l 1,2,-1
 198 458 l 1,3,-1
 259 458 l 1,0,-1
EndSplineSet
EndChar
StartChar: ring
Encoding: 730 730 220
Width: 364
Flags: W
Fore
274 471 m 256,0,1
 274 490 274 490 261 502 c 0,2,3
 249 515 249 515 230 515 c 0,4,5
 210 515 210 515 198 502 c 0,6,7
 185 490 185 490 185 471 c 0,8,9
 185 451 185 451 198 439 c 0,10,11
 210 426 210 426 230 426 c 0,12,13
 249 426 249 426 261 439 c 0,14,15
 274 452 274 452 274 471 c 256,0,1
311 471 m 0,16,17
 311 437 311 437 287 413 c 0,18,19
 264 390 264 390 230 390 c 0,20,21
 195 390 195 390 172 413 c 256,22,23
 149 436 149 436 149 471 c 0,24,25
 149 505 149 505 172 528 c 0,26,27
 196 552 196 552 230 552 c 0,28,29
 263 552 263 552 287 528 c 256,30,31
 311 504 311 504 311 471 c 0,16,17
EndSplineSet
EndChar
StartChar: cedilla
Encoding: 184 184 221
Width: 364
Flags: W
Fore
164 0 m 1,0,1
 185 -38 185 -38 185 -57 c 0,2,3
 185 -85 185 -85 164 -100 c 0,4,5
 142 -117 142 -117 108 -117 c 0,6,7
 81 -117 81 -117 54 -108 c 1,8,-1
 61 -70 l 1,9,10
 86 -81 86 -81 104 -81 c 0,11,12
 124 -81 124 -81 135 -72 c 128,-1,13
 146 -63 146 -63 146 -47 c 0,14,15
 146 -32 146 -32 129 0 c 1,16,-1
 164 0 l 1,17,-1
 164 0 l 1,0,1
EndSplineSet
EndChar
StartChar: hungarumlaut
Encoding: 733 733 222
Width: 364
Flags: W
Fore
259 483 m 1,0,-1
 170 372 l 1,1,-1
 130 372 l 1,2,-1
 203 483 l 1,3,-1
 259 483 l 1,0,-1
361 483 m 1,4,-1
 266 372 l 1,5,-1
 226 372 l 1,6,-1
 303 483 l 1,7,-1
 361 483 l 1,4,-1
EndSplineSet
EndChar
StartChar: ogonek
Encoding: 731 731 223
Width: 364
Flags: W
Fore
148 0 m 1,0,1
 111 -35 111 -35 111 -58 c 0,2,3
 111 -80 111 -80 138 -80 c 0,4,5
 158 -80 158 -80 177 -71 c 1,6,-1
 170 -111 l 1,7,8
 159 -113 159 -113 149 -115 c 128,-1,9
 139 -117 139 -117 129 -117 c 0,10,11
 100 -117 100 -117 84 -105 c 128,-1,12
 68 -93 68 -93 68 -72 c 0,13,14
 68 -41 68 -41 113 0 c 1,15,-1
 148 0 l 1,0,1
EndSplineSet
EndChar
StartChar: caron
Encoding: 711 711 224
Width: 364
Flags: W
Fore
187 372 m 1,0,-1
 139 483 l 1,1,-1
 178 483 l 1,2,-1
 213 412 l 1,3,-1
 279 483 l 1,4,-1
 325 483 l 1,5,-1
 231 372 l 1,6,-1
 187 372 l 1,0,-1
EndSplineSet
EndChar
StartChar: Lslash
Encoding: 321 321 225
Width: 364
Flags: W
Fore
169 440 m 1,0,-1
 135 265 l 1,1,-1
 223 327 l 1,2,-1
 245 297 l 1,3,-1
 127 215 l 1,4,-1
 94 50 l 1,5,-1
 306 50 l 1,6,-1
 297 0 l 1,7,-1
 24 0 l 1,8,-1
 58 166 l 1,9,-1
 13 135 l 1,10,-1
 -9 165 l 1,11,-1
 68 218 l 1,12,-1
 109 440 l 1,13,-1
 169 440 l 1,0,-1
EndSplineSet
EndChar
StartChar: lslash
Encoding: 322 322 226
Width: 364
Flags: W
Fore
177 120 m 1,0,1
 175 109 175 109 174 101.5 c 128,-1,2
 173 94 173 94 173 89 c 0,3,4
 173 46 173 46 226 46 c 2,5,-1
 288 46 l 1,6,-1
 279 0 l 1,7,-1
 218 0 l 2,8,9
 117 0 117 0 117 76 c 0,10,11
 117 98 117 98 123 122 c 2,12,-1
 140 206 l 1,13,-1
 48 141 l 1,14,-1
 26 171 l 1,15,-1
 151 257 l 1,16,-1
 185 420 l 1,17,-1
 92 420 l 1,18,-1
 100 462 l 1,19,-1
 248 462 l 1,20,-1
 214 299 l 1,21,-1
 307 363 l 1,22,-1
 329 334 l 1,23,-1
 204 248 l 1,24,-1
 177 120 l 1,25,-1
 177 120 l 1,0,1
EndSplineSet
EndChar
StartChar: Scaron
Encoding: 352 352 227
Width: 364
Flags: W
Fore
327 365 m 1,0,1
 278 400 278 400 224 400 c 0,2,3
 175 400 175 400 145 376 c 0,4,5
 114 352 114 352 114 314 c 0,6,7
 114 294 114 294 129 280 c 0,8,9
 144 267 144 267 181 255 c 2,10,-1
 217 244 l 2,11,12
 265 229 265 229 287 204.5 c 128,-1,13
 309 180 309 180 309 142 c 0,14,15
 309 72 309 72 260 32 c 0,16,17
 211 -9 211 -9 127 -9 c 0,18,19
 67 -9 67 -9 7 18 c 1,20,-1
 19 80 l 1,21,22
 77 40 77 40 141 40 c 0,23,24
 190 40 190 40 220 66 c 256,25,26
 250 92 250 92 250 132 c 0,27,28
 250 156 250 156 237 169 c 0,29,30
 226 181 226 181 185 194 c 2,31,-1
 155 204 l 2,32,33
 128 213 128 213 109 222.5 c 128,-1,34
 90 232 90 232 79 243 c 0,35,36
 58 264 58 264 58 300 c 0,37,38
 58 365 58 365 106 407 c 0,39,40
 154 448 154 448 233 448 c 0,41,42
 281 448 281 448 338 425 c 1,43,-1
 327 365 l 1,0,1
194 482 m 1,44,-1
 147 561 l 1,45,-1
 187 561 l 1,46,-1
 228 508 l 1,47,-1
 290 561 l 1,48,-1
 335 561 l 1,49,-1
 257 482 l 1,50,-1
 194 482 l 1,44,-1
EndSplineSet
EndChar
StartChar: scaron
Encoding: 353 353 228
Width: 364
Flags: W
Fore
307 266 m 1,0,1
 263 293 263 293 217 293 c 0,2,3
 176 293 176 293 154 278 c 128,-1,4
 132 263 132 263 132 236 c 0,5,6
 132 207 132 207 198 190 c 0,7,8
 201 189 201 189 204 189 c 1,9,-1
 225 183 l 2,10,11
 294 165 294 165 294 111 c 256,12,13
 294 57 294 57 252 24 c 0,14,15
 209 -9 209 -9 139 -9 c 0,16,17
 93 -9 93 -9 34 12 c 1,18,-1
 45 68 l 1,19,20
 100 37 100 37 149 37 c 0,21,22
 188 37 188 37 213 54 c 0,23,24
 238 72 238 72 238 99 c 0,25,26
 238 128 238 128 180 144 c 0,27,28
 178 145 178 145 176 145 c 128,-1,29
 174 145 174 145 172 146 c 1,30,-1
 152 151 l 2,31,32
 78 170 78 170 78 229 c 0,33,34
 78 279 78 279 117 309 c 0,35,36
 157 338 157 338 222 338 c 0,37,38
 276 338 276 338 318 319 c 1,39,-1
 307 266 l 1,0,1
187 372 m 1,40,-1
 139 483 l 1,41,-1
 178 483 l 1,42,-1
 213 412 l 1,43,-1
 279 483 l 1,44,-1
 325 483 l 1,45,-1
 231 372 l 1,46,-1
 187 372 l 1,40,-1
EndSplineSet
EndChar
StartChar: Zcaron
Encoding: 381 381 229
Width: 364
Flags: W
Fore
376 440 m 1,0,-1
 367 395 l 1,1,-1
 78 50 l 1,2,-1
 307 50 l 1,3,-1
 297 0 l 1,4,-1
 -2 0 l 1,5,-1
 7 45 l 1,6,-1
 295 390 l 1,7,-1
 80 390 l 1,8,-1
 90 440 l 1,9,-1
 376 440 l 1,0,-1
194 482 m 1,10,-1
 147 561 l 1,11,-1
 187 561 l 1,12,-1
 228 508 l 1,13,-1
 290 561 l 1,14,-1
 335 561 l 1,15,-1
 257 482 l 1,16,-1
 194 482 l 1,10,-1
EndSplineSet
EndChar
StartChar: zcaron
Encoding: 382 382 230
Width: 364
Flags: W
Fore
334 330 m 1,0,-1
 325 281 l 1,1,-1
 93 43 l 1,2,-1
 278 43 l 1,3,-1
 270 0 l 1,4,-1
 23 0 l 1,5,-1
 33 50 l 1,6,-1
 264 287 l 1,7,-1
 86 287 l 1,8,-1
 94 330 l 1,9,-1
 334 330 l 1,0,-1
187 372 m 1,10,-1
 139 483 l 1,11,-1
 178 483 l 1,12,-1
 213 412 l 1,13,-1
 279 483 l 1,14,-1
 325 483 l 1,15,-1
 231 372 l 1,16,-1
 187 372 l 1,10,-1
EndSplineSet
EndChar
StartChar: brokenbar
Encoding: 166 166 231
Width: 364
Flags: W
Fore
207 199 m 1,0,-1
 156 199 l 1,1,-1
 156 422 l 1,2,-1
 207 422 l 1,3,-1
 207 199 l 1,0,-1
207 -103 m 1,4,-1
 156 -103 l 1,5,-1
 156 120 l 1,6,-1
 207 120 l 1,7,-1
 207 -103 l 1,4,-1
EndSplineSet
EndChar
StartChar: Eth
Encoding: 208 208 232
Width: 364
Flags: W
Fore
96 49 m 1,0,1
 150 49 150 49 183 67 c 0,2,3
 217 87 217 87 236 127 c 0,4,5
 244 144 244 144 250.5 164.5 c 128,-1,6
 257 185 257 185 262 208 c 0,7,8
 267 232 267 232 270 253.5 c 128,-1,9
 273 275 273 275 273 295 c 0,10,11
 273 347 273 347 248 369 c 0,12,13
 225 391 225 391 167 391 c 2,14,-1
 134 391 l 1,15,-1
 107 253 l 1,16,-1
 186 253 l 1,17,-1
 177 209 l 1,18,-1
 99 209 l 1,19,-1
 67 49 l 1,20,-1
 96 49 l 1,21,-1
 96 49 l 1,0,1
173 440 m 1,22,23
 333 440 333 440 333 293 c 0,24,25
 333 245 333 245 321 194 c 0,26,27
 315 168 315 168 306.5 146 c 128,-1,28
 298 124 298 124 288 104 c 0,29,30
 256 47 256 47 211 24 c 0,31,32
 166 0 166 0 87 0 c 2,33,-1
 -2 0 l 1,34,-1
 38 209 l 1,35,-1
 1 209 l 1,36,-1
 9 253 l 1,37,-1
 47 253 l 1,38,-1
 83 440 l 1,39,-1
 173 440 l 1,40,-1
 173 440 l 1,22,23
EndSplineSet
EndChar
StartChar: eth
Encoding: 240 240 233
Width: 364
Flags: W
Fore
257 391 m 1,0,1
 294 340 294 340 309 297 c 0,2,3
 318 275 318 275 322 253 c 128,-1,4
 326 231 326 231 326 209 c 0,5,6
 326 124 326 124 283 61 c 0,7,8
 237 -9 237 -9 152 -9 c 0,9,10
 95 -9 95 -9 65 23 c 128,-1,11
 35 55 35 55 35 115 c 0,12,13
 35 152 35 152 46 188 c 128,-1,14
 57 224 57 224 78 255 c 0,15,16
 103 289 103 289 135 306 c 0,17,18
 170 324 170 324 209 324 c 0,19,20
 211 324 211 324 215.5 323.5 c 128,-1,21
 220 323 220 323 228 322 c 2,22,-1
 237 322 l 1,23,24
 227 343 227 343 204 375 c 1,25,-1
 117 348 l 1,26,-1
 108 375 l 1,27,-1
 189 400 l 1,28,-1
 147 459 l 1,29,-1
 210 459 l 1,30,-1
 240 416 l 1,31,-1
 325 442 l 1,32,-1
 333 415 l 1,33,-1
 257 391 l 1,34,-1
 257 391 l 1,0,1
258 268 m 1,35,36
 237 278 237 278 210 278 c 0,37,38
 158 278 158 278 125 232 c 0,39,40
 92 187 92 187 92 112 c 0,41,42
 92 77 92 77 109 57 c 128,-1,43
 126 37 126 37 157 37 c 0,44,45
 207 37 207 37 237 85 c 0,46,47
 269 132 269 132 269 208 c 0,48,49
 269 244 269 244 258 268 c 1,35,36
EndSplineSet
EndChar
StartChar: Yacute
Encoding: 221 221 234
Width: 364
Flags: W
Fore
117 440 m 1,0,-1
 187 248 l 1,1,-1
 333 440 l 1,2,-1
 398 440 l 1,3,-1
 210 198 l 1,4,-1
 172 0 l 1,5,-1
 111 0 l 1,6,-1
 150 198 l 1,7,-1
 58 440 l 1,8,-1
 117 440 l 1,0,-1
324 560 m 1,9,-1
 234 482 l 1,10,-1
 186 482 l 1,11,-1
 263 560 l 1,12,-1
 324 560 l 1,9,-1
EndSplineSet
EndChar
StartChar: yacute
Encoding: 253 253 235
Width: 364
Flags: W
Fore
232 106 m 1,0,1
 223 90 223 90 211 69 c 128,-1,2
 199 48 199 48 183 21 c 0,3,4
 160 -20 160 -20 145 -45 c 128,-1,5
 130 -70 130 -70 122 -81 c 0,6,7
 88 -126 88 -126 32 -126 c 2,8,-1
 -12 -126 l 1,9,-1
 -3 -80 l 1,10,-1
 29 -80 l 2,11,12
 53 -80 53 -80 70 -66 c 0,13,14
 88 -51 88 -51 105 -19 c 2,15,-1
 118 5 l 1,16,-1
 54 330 l 1,17,-1
 108 330 l 1,18,-1
 158 76 l 1,19,-1
 301 330 l 1,20,-1
 361 330 l 1,21,-1
 232 106 l 1,22,-1
 232 106 l 1,0,1
332 483 m 1,23,-1
 216 372 l 1,24,-1
 170 372 l 1,25,-1
 268 483 l 1,26,-1
 332 483 l 1,23,-1
EndSplineSet
EndChar
StartChar: Thorn
Encoding: 222 222 236
Width: 364
Flags: W
Fore
75 0 m 1,0,-1
 15 0 l 1,1,-1
 101 440 l 1,2,-1
 161 440 l 1,3,-1
 146 359 l 1,4,-1
 217 359 l 2,5,6
 278 359 278 359 310 333.5 c 128,-1,7
 342 308 342 308 342 258 c 0,8,9
 342 189 342 189 294 148 c 0,10,11
 248 108 248 108 164 108 c 2,12,-1
 96 108 l 1,13,-1
 75 0 l 1,0,-1
105 154 m 1,14,-1
 174 154 l 2,15,16
 222 154 222 154 252 181 c 0,17,18
 281 208 281 208 281 253 c 0,19,20
 281 312 281 312 206 312 c 2,21,-1
 136 312 l 1,22,-1
 105 154 l 1,14,-1
EndSplineSet
EndChar
StartChar: thorn
Encoding: 254 254 237
Width: 364
Flags: W
Fore
54 -126 m 1,0,-1
 -1 -126 l 1,1,-1
 114 462 l 1,2,-1
 168 462 l 1,3,-1
 134 288 l 1,4,5
 172 338 172 338 232 338 c 0,6,7
 280 338 280 338 306.5 307.5 c 128,-1,8
 333 277 333 277 333 222 c 0,9,10
 333 179 333 179 321 137 c 0,11,12
 315 116 315 116 307.5 97.5 c 128,-1,13
 300 79 300 79 289 62 c 0,14,15
 243 -9 243 -9 171 -9 c 0,16,17
 113 -9 113 -9 86 42 c 1,18,-1
 54 -126 l 1,0,-1
168 37 m 0,19,20
 217 37 217 37 245 89 c 0,21,22
 252 103 252 103 257.5 118 c 128,-1,23
 263 133 263 133 267 150 c 0,24,25
 276 185 276 185 276 217 c 0,26,27
 276 292 276 292 215 292 c 0,28,29
 164 292 164 292 135 240 c 0,30,31
 128 226 128 226 122.5 211.5 c 128,-1,32
 117 197 117 197 113 180 c 0,33,34
 104 147 104 147 104 113 c 0,35,36
 104 77 104 77 120.5 57 c 128,-1,37
 137 37 137 37 168 37 c 0,19,20
EndSplineSet
EndChar
StartChar: minus
Encoding: 8722 8722 238
Width: 364
Flags: W
Fore
338 214 m 1,0,-1
 338 164 l 1,1,-1
 26 164 l 1,2,-1
 26 214 l 1,3,-1
 338 214 l 1,0,-1
EndSplineSet
EndChar
StartChar: multiply
Encoding: 215 215 239
Width: 364
Flags: W
Fore
148 189 m 1,0,-1
 44 292 l 1,1,-1
 78 327 l 1,2,-1
 182 224 l 1,3,-1
 285 327 l 1,4,-1
 319 292 l 1,5,-1
 216 189 l 1,6,-1
 319 86 l 1,7,-1
 285 51 l 1,8,-1
 182 155 l 1,9,-1
 79 51 l 1,10,-1
 44 86 l 1,11,-1
 148 189 l 1,0,-1
EndSplineSet
EndChar
StartChar: onesuperior
Encoding: 185 185 240
Width: 364
Flags: W
Fore
170 230 m 1,0,-1
 204 410 l 1,1,-1
 136 398 l 1,2,-1
 142 432 l 1,3,-1
 213 443 l 1,4,-1
 253 443 l 1,5,-1
 212 230 l 1,6,-1
 272 230 l 1,7,-1
 266 197 l 1,8,-1
 103 197 l 1,9,-1
 109 230 l 1,10,-1
 170 230 l 1,0,-1
EndSplineSet
EndChar
StartChar: twosuperior
Encoding: 178 178 241
Width: 364
Flags: W
Fore
262 231 m 1,0,-1
 255 197 l 1,1,-1
 91 197 l 1,2,-1
 97 230 l 1,3,-1
 147 271 l 1,4,-1
 157 279 l 2,5,6
 249 354 249 354 249 384 c 0,7,8
 249 399 249 399 238 408 c 128,-1,9
 227 417 227 417 209 417 c 0,10,11
 194 417 194 417 176 412 c 128,-1,12
 158 407 158 407 133 394 c 1,13,-1
 140 432 l 1,14,15
 188 448 188 448 217 448 c 0,16,17
 252 448 252 448 272 432 c 128,-1,18
 292 416 292 416 292 388 c 0,19,20
 292 347 292 347 201 275 c 2,21,-1
 195 271 l 1,22,-1
 145 231 l 1,23,-1
 262 231 l 1,0,-1
EndSplineSet
EndChar
StartChar: threesuperior
Encoding: 179 179 242
Width: 364
Flags: W
Fore
228 329 m 1,0,1
 249 326 249 326 260.5 312.5 c 128,-1,2
 272 299 272 299 272 278 c 0,3,4
 272 240 272 240 241 216 c 0,5,6
 212 193 212 193 159 193 c 0,7,8
 120 193 120 193 85 205 c 1,9,-1
 92 240 l 1,10,11
 112 232 112 232 127 228 c 128,-1,12
 142 224 142 224 157 224 c 0,13,14
 190 224 190 224 209 237.5 c 128,-1,15
 228 251 228 251 228 274 c 0,16,17
 228 313 228 313 177 313 c 2,18,-1
 156 313 l 1,19,-1
 162 344 l 1,20,-1
 183 344 l 2,21,22
 212 344 212 344 229.5 356 c 128,-1,23
 247 368 247 368 247 387 c 0,24,25
 247 417 247 417 196 417 c 0,26,27
 171 417 171 417 136 404 c 1,28,-1
 142 438 l 1,29,30
 183 448 183 448 216 448 c 0,31,32
 251 448 251 448 270.5 433.5 c 128,-1,33
 290 419 290 419 290 392 c 0,34,35
 290 369 290 369 273.5 351.5 c 128,-1,36
 257 334 257 334 228 329 c 1,0,1
EndSplineSet
EndChar
StartChar: onequarter
Encoding: 188 188 243
Width: 364
Flags: W
Fore
94 276 m 1,0,-1
 128 456 l 1,1,-1
 60 444 l 1,2,-1
 66 478 l 1,3,-1
 137 489 l 1,4,-1
 177 489 l 1,5,-1
 135 276 l 1,6,-1
 196 276 l 1,7,-1
 190 243 l 1,8,-1
 27 243 l 1,9,-1
 33 276 l 1,10,-1
 94 276 l 1,0,-1
14 181 m 1,11,-1
 326 257 l 1,12,-1
 334 225 l 1,13,-1
 21 149 l 1,14,-1
 14 181 l 1,11,-1
314 167 m 1,15,-1
 283 7 l 1,16,-1
 317 7 l 1,17,-1
 311 -25 l 1,18,-1
 276 -25 l 1,19,-1
 266 -80 l 1,20,-1
 225 -80 l 1,21,-1
 236 -25 l 1,22,-1
 122 -25 l 1,23,-1
 129 10 l 1,24,-1
 266 167 l 1,25,-1
 314 167 l 1,15,-1
164 7 m 1,26,-1
 242 7 l 1,27,-1
 265 123 l 1,28,-1
 164 7 l 1,26,-1
EndSplineSet
Ligature: 0 0 'frac' one fraction four
Ligature: 0 0 'frac' one slash four
EndChar
StartChar: onehalf
Encoding: 189 189 244
Width: 364
Flags: W
Fore
94 276 m 1,0,-1
 128 456 l 1,1,-1
 60 444 l 1,2,-1
 66 478 l 1,3,-1
 137 489 l 1,4,-1
 177 489 l 1,5,-1
 135 276 l 1,6,-1
 196 276 l 1,7,-1
 190 243 l 1,8,-1
 27 243 l 1,9,-1
 33 276 l 1,10,-1
 94 276 l 1,0,-1
14 181 m 1,11,-1
 326 257 l 1,12,-1
 334 225 l 1,13,-1
 21 149 l 1,14,-1
 14 181 l 1,11,-1
307 -46 m 1,15,-1
 300 -80 l 1,16,-1
 136 -80 l 1,17,-1
 142 -47 l 1,18,-1
 192 -6 l 1,19,-1
 202 2 l 2,20,21
 294 76 294 76 294 108 c 0,22,23
 294 123 294 123 283.5 132 c 128,-1,24
 273 141 273 141 254 141 c 0,25,26
 225 141 225 141 178 118 c 1,27,-1
 186 155 l 1,28,29
 233 172 233 172 263 172 c 0,30,31
 298 172 298 172 318 155.5 c 128,-1,32
 338 139 338 139 338 111 c 0,33,34
 338 70 338 70 247 -1 c 2,35,-1
 241 -6 l 1,36,-1
 191 -46 l 1,37,-1
 307 -46 l 1,15,-1
EndSplineSet
Ligature: 0 0 'frac' one fraction two
Ligature: 0 0 'frac' one slash two
EndChar
StartChar: threequarters
Encoding: 190 190 245
Width: 364
Flags: W
Fore
161 375 m 1,0,1
 182 372 182 372 193.5 358.5 c 128,-1,2
 205 345 205 345 205 324 c 0,3,4
 205 286 205 286 174 262 c 0,5,6
 145 239 145 239 92 239 c 0,7,8
 53 239 53 239 18 251 c 1,9,-1
 25 286 l 1,10,11
 45 278 45 278 60 274 c 128,-1,12
 75 270 75 270 90 270 c 0,13,14
 123 270 123 270 142 283.5 c 128,-1,15
 161 297 161 297 161 320 c 0,16,17
 161 359 161 359 110 359 c 2,18,-1
 89 359 l 1,19,-1
 95 390 l 1,20,-1
 116 390 l 2,21,22
 145 390 145 390 162.5 402 c 128,-1,23
 180 414 180 414 180 433 c 0,24,25
 180 463 180 463 129 463 c 0,26,27
 104 463 104 463 69 450 c 1,28,-1
 76 484 l 1,29,30
 116 494 116 494 149 494 c 0,31,32
 184 494 184 494 203.5 479.5 c 128,-1,33
 223 465 223 465 223 438 c 0,34,35
 223 415 223 415 206.5 397.5 c 128,-1,36
 190 380 190 380 161 375 c 1,0,1
14 181 m 1,37,-1
 326 257 l 1,38,-1
 334 225 l 1,39,-1
 21 149 l 1,40,-1
 14 181 l 1,37,-1
314 167 m 1,41,-1
 283 7 l 1,42,-1
 317 7 l 1,43,-1
 311 -25 l 1,44,-1
 276 -25 l 1,45,-1
 266 -80 l 1,46,-1
 225 -80 l 1,47,-1
 236 -25 l 1,48,-1
 122 -25 l 1,49,-1
 129 10 l 1,50,-1
 266 167 l 1,51,-1
 314 167 l 1,41,-1
164 7 m 1,52,-1
 242 7 l 1,53,-1
 265 123 l 1,54,-1
 164 7 l 1,52,-1
EndSplineSet
Ligature: 0 0 'frac' three fraction four
Ligature: 0 0 'frac' three slash four
EndChar
StartChar: dcroat
Encoding: 273 273 255
Width: 364
Flags: W
Fore
202 292 m 0,0,1
 150 292 150 292 123 241 c 0,2,3
 109 215 109 215 101 181 c 128,-1,4
 93 147 93 147 93 113 c 0,5,6
 93 37 93 37 153 37 c 0,7,8
 205 37 205 37 232 90 c 0,9,10
 248 117 248 117 255 150 c 0,11,12
 260 167 260 167 261.5 183.5 c 128,-1,13
 263 200 263 200 263 217 c 0,14,15
 263 253 263 253 247 272.5 c 128,-1,16
 231 292 231 292 202 292 c 0,0,1
300 379 m 1,17,-1
 202 379 l 1,18,-1
 209 415 l 1,19,-1
 306 415 l 1,20,-1
 315 459 l 1,21,-1
 370 459 l 1,22,-1
 361 415 l 1,23,-1
 417 415 l 1,24,-1
 411 379 l 1,25,-1
 354 379 l 1,26,-1
 280 0 l 1,27,-1
 226 0 l 1,28,-1
 234 42 l 1,29,30
 194 -9 194 -9 137 -9 c 0,31,32
 90 -9 90 -9 62 22 c 0,33,34
 35 54 35 54 35 109 c 0,35,36
 35 151 35 151 47 194 c 0,37,38
 53 215 53 215 60.5 233.5 c 128,-1,39
 68 252 68 252 79 268 c 0,40,41
 125 338 125 338 198 338 c 0,42,43
 257 338 257 338 281 288 c 1,44,-1
 300 379 l 1,17,-1
EndSplineSet
EndChar
StartChar: sfthyphen
Encoding: 173 173 256
Width: 364
Flags: W
Fore
253 190 m 1,0,-1
 243 141 l 1,1,-1
 89 141 l 1,2,-1
 99 190 l 1,3,-1
 253 190 l 1,0,-1
EndSplineSet
EndChar
StartChar: periodcentered
Encoding: 8729 8729 257
Width: 364
Flags: W
Fore
224 255 m 1,0,-1
 207 165 l 1,1,-1
 132 165 l 1,2,-1
 150 255 l 1,3,-1
 224 255 l 1,0,-1
EndSplineSet
EndChar
StartChar: Euro
Encoding: 8364 8364 258
Width: 364
Flags: W
Fore
70 280 m 1,0,1
 126 448 126 448 264 448 c 0,2,3
 309 448 309 448 352 424 c 1,4,-1
 340 363 l 1,5,6
 320 383 320 383 300.5 391.5 c 128,-1,7
 281 400 281 400 260 400 c 0,8,9
 219 400 219 400 186 369 c 128,-1,10
 153 338 153 338 132 280 c 1,11,-1
 272 280 l 1,12,-1
 257 248 l 1,13,-1
 123 248 l 1,14,15
 115 222 115 222 111 193 c 1,16,-1
 232 193 l 1,17,-1
 219 160 l 1,18,-1
 108 160 l 1,19,-1
 108 144 l 2,20,21
 108 93 108 93 129 66.5 c 128,-1,22
 150 40 150 40 190 40 c 0,23,24
 237 40 237 40 288 77 c 1,25,-1
 277 16 l 1,26,27
 230 -9 230 -9 181 -9 c 0,28,29
 115 -9 115 -9 81.5 30.5 c 128,-1,30
 48 70 48 70 48 147 c 2,31,-1
 48 160 l 1,32,-1
 -3 160 l 1,33,-1
 12 193 l 1,34,-1
 51 193 l 1,35,36
 53 210 53 210 55.5 223 c 128,-1,37
 58 236 58 236 61 248 c 1,38,-1
 14 248 l 1,39,-1
 29 280 l 1,40,-1
 70 280 l 1,41,-1
 70 280 l 1,0,1
EndSplineSet
EndChar
StartChar: c6459
Encoding: 65539 -1 259
Width: 364
Flags: W
Fore
309 442 m 1,0,-1
 298 382 l 1,1,-1
 238 382 l 1,2,-1
 250 442 l 1,3,-1
 309 442 l 1,0,-1
194 442 m 1,4,-1
 182 382 l 1,5,-1
 123 382 l 1,6,-1
 134 442 l 1,7,-1
 194 442 l 1,4,-1
EndSplineSet
EndChar
StartChar: c6460
Encoding: 65540 -1 260
Width: 364
Flags: W
Fore
307 450 m 1,0,-1
 217 372 l 1,1,-1
 170 372 l 1,2,-1
 246 450 l 1,3,-1
 307 450 l 1,0,-1
EndSplineSet
EndChar
StartChar: c6461
Encoding: 65541 -1 261
Width: 364
Flags: W
Fore
208 402 m 1,0,-1
 207 402 l 1,1,2
 194 412 194 412 184 412 c 0,3,4
 165 412 165 412 152 382 c 1,5,-1
 115 382 l 1,6,7
 136 446 136 446 187 446 c 0,8,9
 206 446 206 446 226 432 c 2,10,-1
 236 425 l 2,11,12
 245 417 245 417 258 417 c 0,13,14
 283 417 283 417 289 446 c 1,15,-1
 326 446 l 1,16,17
 308 382 308 382 253 382 c 0,18,19
 236 382 236 382 218 394 c 2,20,-1
 208 402 l 1,0,-1
EndSplineSet
EndChar
StartChar: c6468
Encoding: 65542 -1 262
Width: 364
Flags: W
Fore
245 372 m 1,0,-1
 204 372 l 1,1,-1
 148 450 l 1,2,-1
 201 450 l 1,3,-1
 245 372 l 1,0,-1
EndSplineSet
EndChar
StartChar: c6470
Encoding: 65543 -1 263
Width: 364
Flags: W
Fore
255 451 m 1,0,-1
 302 372 l 1,1,-1
 263 372 l 1,2,-1
 222 425 l 1,3,-1
 160 372 l 1,4,-1
 115 372 l 1,5,-1
 193 451 l 1,6,-1
 255 451 l 1,0,-1
EndSplineSet
EndChar
StartChar: c6472
Encoding: 65544 -1 264
Width: 364
Flags: W
Fore
177 372 m 1,0,-1
 130 451 l 1,1,-1
 171 451 l 1,2,-1
 212 398 l 1,3,-1
 273 451 l 1,4,-1
 318 451 l 1,5,-1
 240 372 l 1,6,-1
 177 372 l 1,0,-1
EndSplineSet
EndChar
StartChar: c6477
Encoding: 65545 -1 265
Width: 364
Flags: W
Fore
14 181 m 1,0,-1
 326 257 l 1,1,-1
 334 225 l 1,2,-1
 21 149 l 1,3,-1
 14 181 l 1,0,-1
EndSplineSet
EndChar
StartChar: c6478
Encoding: 65546 -1 266
Width: 364
Flags: W
Fore
273 443 m 1,0,-1
 242 284 l 1,1,-1
 277 284 l 1,2,-1
 271 251 l 1,3,-1
 236 251 l 1,4,-1
 226 197 l 1,5,-1
 185 197 l 1,6,-1
 195 251 l 1,7,-1
 81 251 l 1,8,-1
 88 287 l 1,9,-1
 225 443 l 1,10,-1
 273 443 l 1,0,-1
123 284 m 1,11,-1
 202 284 l 1,12,-1
 224 399 l 1,13,-1
 123 284 l 1,11,-1
EndSplineSet
EndChar
StartChar: c6475
Encoding: 65547 -1 267
Width: 364
Flags: W
Fore
167 451 m 1,0,1
 172 433 172 433 183 425 c 128,-1,2
 194 417 194 417 217 417 c 0,3,4
 266 417 266 417 282 451 c 1,5,-1
 318 451 l 1,6,7
 307 417 307 417 281 398 c 0,8,9
 253 379 253 379 216 379 c 0,10,11
 144 379 144 379 133 451 c 1,12,-1
 167 451 l 1,0,1
EndSplineSet
EndChar
StartChar: c6476
Encoding: 65548 -1 268
Width: 364
Flags: W
Fore
255 442 m 1,0,-1
 243 382 l 1,1,-1
 183 382 l 1,2,-1
 195 442 l 1,3,-1
 255 442 l 1,0,-1
EndSplineSet
EndChar
StartChar: uni0E01
Encoding: 3585 3585 270
Width: 364
Flags: W
Fore
204 352 m 2,0,1
 171 352 171 352 140.5 335.5 c 128,-1,2
 110 319 110 319 86 294 c 1,3,-1
 158 294 l 1,4,-1
 151 259 l 1,5,6
 131 253 131 253 119.5 235.5 c 128,-1,7
 108 218 108 218 104 200 c 2,8,-1
 65 0 l 1,9,-1
 19 0 l 1,10,-1
 58 202 l 2,11,12
 62 222 62 222 71.5 234.5 c 128,-1,13
 81 247 81 247 98 259 c 1,14,-1
 39 259 l 1,15,-1
 50 316 l 1,16,17
 91 350 91 350 128.5 370 c 128,-1,18
 166 390 166 390 216 390 c 0,19,20
 240 390 240 390 263 385 c 128,-1,21
 286 380 286 380 303.5 368.5 c 128,-1,22
 321 357 321 357 332 339.5 c 128,-1,23
 343 322 343 322 343 298 c 0,24,25
 343 293 343 293 342.5 287 c 128,-1,26
 342 281 342 281 341 276 c 2,27,-1
 287 0 l 1,28,-1
 243 0 l 1,29,-1
 293 259 l 2,30,31
 295 267 295 267 295.5 275 c 128,-1,32
 296 283 296 283 296 289 c 0,33,34
 296 326 296 326 273 339 c 128,-1,35
 250 352 250 352 206 352 c 2,36,-1
 204 352 l 2,0,1
EndSplineSet
EndChar
StartChar: uni0E02
Encoding: 3586 3586 271
Width: 364
Flags: W
Fore
114 129 m 2,0,1
 119 155 119 155 136 177 c 128,-1,2
 153 199 153 199 171 220.5 c 128,-1,3
 189 242 189 242 203 264.5 c 128,-1,4
 217 287 217 287 217 313 c 0,5,6
 217 333 217 333 205 344.5 c 128,-1,7
 193 356 193 356 173 356 c 0,8,9
 144 356 144 356 126 331 c 1,10,11
 130 333 130 333 134 333 c 128,-1,12
 142 333 l 0,13,14
 161 333 161 333 171 322 c 128,-1,15
 181 311 181 311 181 294 c 0,16,17
 181 263 181 263 160 244 c 128,-1,18
 139 225 139 225 110 225 c 0,19,20
 88 225 88 225 73 237 c 128,-1,21
 58 249 58 249 58 271 c 0,22,23
 58 295 58 295 68 316.5 c 128,-1,24
 78 338 78 338 94.5 354.5 c 128,-1,25
 111 371 111 371 133 380.5 c 128,-1,26
 155 390 155 390 178 390 c 0,27,28
 216 390 216 390 237.5 371 c 128,-1,29
 259 352 259 352 259 317 c 0,30,31
 259 291 259 291 244.5 265.5 c 128,-1,32
 230 240 230 240 212 217 c 128,-1,33
 194 194 194 194 177.5 173.5 c 128,-1,34
 161 153 161 153 158 137 c 2,35,-1
 137 38 l 1,36,-1
 235 38 l 1,37,-1
 304 386 l 1,38,-1
 348 386 l 1,39,-1
 273 0 l 1,40,-1
 88 0 l 1,41,-1
 114 129 l 2,0,1
148 283 m 0,42,43
 148 284 148 284 148.5 285 c 128,-1,44
 149 286 149 286 149 288 c 0,45,46
 149 296 149 296 144.5 301 c 128,-1,47
 140 306 140 306 131 306 c 0,48,49
 118 306 118 306 107.5 297 c 128,-1,50
 97 288 97 288 97 274 c 0,51,52
 97 252 97 252 119 252 c 0,53,54
 130 252 130 252 138 262 c 128,-1,55
 146 272 146 272 148 283 c 0,42,43
EndSplineSet
EndChar
StartChar: uni0E03
Encoding: 3587 3587 272
Width: 364
Flags: W
Fore
112 121 m 2,0,1
 115 146 115 146 133.5 172 c 128,-1,2
 152 198 152 198 173 223.5 c 128,-1,3
 194 249 194 249 210.5 274.5 c 128,-1,4
 227 300 227 300 227 324 c 0,5,6
 227 331 227 331 223 337.5 c 128,-1,7
 219 344 219 344 212 344 c 256,8,9
 205 344 205 344 199.5 340.5 c 128,-1,10
 194 337 194 337 189.5 333.5 c 128,-1,11
 185 330 185 330 179.5 326.5 c 128,-1,12
 174 323 174 323 166 323 c 0,13,14
 150 323 150 323 141 333.5 c 128,-1,15
 132 344 132 344 126 344 c 0,16,17
 114 344 114 344 109 335.5 c 128,-1,18
 104 327 104 327 100 308 c 1,19,20
 116 316 116 316 131 316 c 0,21,22
 151 316 151 316 161 304.5 c 128,-1,23
 171 293 171 293 171 276 c 0,24,25
 171 247 171 247 150.5 227.5 c 128,-1,26
 130 208 130 208 103 208 c 256,27,28
 76 208 76 208 66 227 c 128,-1,29
 56 246 56 246 56 270 c 0,30,31
 56 284 56 284 60 304 c 128,-1,32
 64 324 64 324 72.5 342 c 128,-1,33
 81 360 81 360 95 373 c 128,-1,34
 109 386 109 386 129 386 c 0,35,36
 137 386 137 386 144 382 c 128,-1,37
 151 378 151 378 157 373.5 c 128,-1,38
 163 369 163 369 168 365 c 128,-1,39
 173 361 173 361 176 361 c 0,40,41
 181 361 181 361 186 365 c 128,-1,42
 191 369 191 369 196 374.5 c 128,-1,43
 201 380 201 380 207.5 384 c 128,-1,44
 214 388 214 388 223 388 c 0,45,46
 247 388 247 388 257.5 372.5 c 128,-1,47
 268 357 268 357 268 336 c 0,48,49
 268 306 268 306 252 278 c 128,-1,50
 236 250 236 250 216 223.5 c 128,-1,51
 196 197 196 197 178 173.5 c 128,-1,52
 160 150 160 150 156 130 c 2,53,-1
 139 38 l 1,54,-1
 239 38 l 1,55,-1
 307 386 l 1,56,-1
 351 386 l 1,57,-1
 276 0 l 1,58,-1
 88 0 l 1,59,-1
 112 121 l 2,0,1
136 262 m 2,60,61
 137 263 137 263 137 267 c 0,62,63
 137 283 137 283 121 283 c 0,64,65
 110 283 110 283 102 276 c 128,-1,66
 94 269 94 269 94 258 c 0,67,68
 94 250 94 250 98 244.5 c 128,-1,69
 102 239 102 239 109 239 c 0,70,71
 119 239 119 239 126.5 245.5 c 128,-1,72
 134 252 134 252 136 262 c 2,60,61
EndSplineSet
EndChar
StartChar: uni0E04
Encoding: 3588 3588 273
Width: 364
Flags: W
Fore
205 347 m 0,0,1
 149 347 149 347 117.5 322 c 128,-1,2
 86 297 86 297 75 241 c 0,3,4
 70 218 70 218 68.5 196.5 c 128,-1,5
 67 175 67 175 67 154 c 0,6,7
 67 140 67 140 67.5 126 c 128,-1,8
 68 112 68 112 69 98 c 1,9,10
 75 114 75 114 83.5 136 c 128,-1,11
 92 158 92 158 101.5 181 c 128,-1,12
 111 204 111 204 121.5 224.5 c 128,-1,13
 132 245 132 245 142 258 c 0,14,15
 153 271 153 271 167.5 276 c 128,-1,16
 182 281 182 281 196 281 c 0,17,18
 248 281 248 281 248 235 c 0,19,20
 248 220 248 220 242 205 c 128,-1,21
 236 190 236 190 226 178 c 128,-1,22
 216 166 216 166 202 158.5 c 128,-1,23
 188 151 188 151 172 151 c 0,24,25
 161 151 161 151 151 155 c 128,-1,26
 141 159 141 159 135 166 c 1,27,28
 128 151 128 151 118.5 130.5 c 128,-1,29
 109 110 109 110 100.5 88 c 128,-1,30
 92 66 92 66 84.5 44.5 c 128,-1,31
 77 23 77 23 74 7 c 0,32,33
 74 5 74 5 73.5 3.5 c 128,-1,34
 73 2 73 2 73 0 c 1,35,-1
 26 0 l 1,36,37
 27 15 27 15 27 30 c 128,-1,38
 27 60 l 0,39,40
 27 71 27 71 27 82.5 c 128,-1,41
 27 94 27 94 26 105 c 0,42,43
 25 119 25 119 25 132.5 c 128,-1,44
 25 146 25 146 25 160 c 0,45,46
 25 180 25 180 26 201 c 128,-1,47
 27 222 27 222 32 243 c 0,48,49
 46 317 46 317 94 350.5 c 128,-1,50
 142 384 142 384 209 384 c 0,51,52
 234 384 234 384 256.5 379 c 128,-1,53
 279 374 279 374 296.5 363.5 c 128,-1,54
 314 353 314 353 324 336 c 128,-1,55
 334 319 334 319 334 294 c 0,56,57
 334 291 334 291 333 284 c 128,-1,58
 332 277 332 277 327 248.5 c 128,-1,59
 322 220 322 220 310.5 162 c 128,-1,60
 299 104 299 104 279 0 c 1,61,-1
 235 0 l 1,62,63
 248 68 248 68 257 115 c 128,-1,64
 266 162 266 162 272 193.5 c 128,-1,65
 278 225 278 225 281 242.5 c 128,-1,66
 284 260 284 260 285.5 269.5 c 128,-1,67
 287 279 287 279 287.5 282 c 128,-1,68
 288 285 288 285 288 287 c 0,69,70
 288 320 288 320 266.5 333.5 c 128,-1,71
 245 347 245 347 205 347 c 0,0,1
211 215 m 0,72,73
 212 219 212 219 212 226 c 0,74,75
 212 235 212 235 207 241 c 128,-1,76
 202 247 202 247 190 247 c 0,77,78
 176 247 176 247 166 233.5 c 128,-1,79
 156 220 156 220 156 207 c 0,80,81
 156 185 156 185 180 185 c 0,82,83
 192 185 192 185 200.5 194.5 c 128,-1,84
 209 204 209 204 211 215 c 0,72,73
EndSplineSet
EndChar
StartChar: uni0E05
Encoding: 3589 3589 274
Width: 364
Flags: W
Fore
215 315 m 1,0,1
 205 315 205 315 197.5 319.5 c 128,-1,2
 190 324 190 324 183 329.5 c 128,-1,3
 176 335 176 335 169 339.5 c 128,-1,4
 162 344 162 344 152 344 c 0,5,6
 137 344 137 344 125 334 c 128,-1,7
 113 324 113 324 103 309.5 c 128,-1,8
 93 295 93 295 87 279 c 128,-1,9
 81 263 81 263 78 251 c 0,10,11
 75 235 75 235 74 219.5 c 128,-1,12
 73 204 73 204 73 189 c 0,13,14
 73 167 73 167 75 145.5 c 128,-1,15
 77 124 77 124 80 103 c 1,16,17
 90 127 90 127 99.5 151.5 c 128,-1,18
 109 176 109 176 119 200 c 0,19,20
 124 214 124 214 131 228 c 128,-1,21
 138 242 138 242 148 253 c 128,-1,22
 158 264 158 264 171.5 271 c 128,-1,23
 185 278 185 278 203 278 c 0,24,25
 227 278 227 278 242 267 c 128,-1,26
 257 256 257 256 257 233 c 0,27,28
 257 217 257 217 250.5 202 c 128,-1,29
 244 187 244 187 232.5 175.5 c 128,-1,30
 221 164 221 164 206.5 157 c 128,-1,31
 192 150 192 150 176 150 c 0,32,33
 155 150 155 150 146 165 c 1,34,-1
 77 0 l 1,35,-1
 34 0 l 1,36,37
 35 12 35 12 35.5 24 c 128,-1,38
 36 36 36 36 36 47 c 0,39,40
 36 61 36 61 35 74 c 128,-1,41
 34 87 34 87 32 101 c 0,42,43
 26 143 26 143 26 178 c 256,44,45
 26 213 26 213 33 251 c 0,46,47
 38 274 38 274 49.5 298 c 128,-1,48
 61 322 61 322 78 342 c 128,-1,49
 95 362 95 362 117.5 375 c 128,-1,50
 140 388 140 388 166 388 c 0,51,52
 175 388 175 388 180.5 383 c 128,-1,53
 186 378 186 378 191.5 371.5 c 128,-1,54
 197 365 197 365 203.5 360 c 128,-1,55
 210 355 210 355 221 355 c 256,56,57
 232 355 232 355 242.5 360 c 128,-1,58
 253 365 253 365 262 371.5 c 128,-1,59
 271 378 271 378 277.5 383 c 128,-1,60
 284 388 284 388 288 388 c 0,61,62
 295 388 295 388 299.5 385 c 128,-1,63
 304 382 304 382 308 378 c 1,64,-1
 309 378 l 1,65,-1
 308 378 l 1,66,67
 328 361 328 361 337.5 342 c 128,-1,68
 347 323 347 323 347 299 c 0,69,70
 347 285 347 285 344 268 c 2,71,-1
 292 0 l 1,72,-1
 248 0 l 1,73,-1
 299 263 l 2,74,75
 300 271 300 271 301 280 c 128,-1,76
 302 289 302 289 302 300 c 0,77,78
 302 317 302 317 297 330 c 128,-1,79
 292 343 292 343 276 343 c 1,80,-1
 215 315 l 1,0,1
217 215 m 2,81,82
 218 217 218 217 218 222 c 0,83,84
 218 242 218 242 198 242 c 0,85,86
 184 242 184 242 174 231.5 c 128,-1,87
 164 221 164 221 164 208 c 0,88,89
 164 187 164 187 187 187 c 0,90,91
 198 187 198 187 206.5 195.5 c 128,-1,92
 215 204 215 204 217 215 c 2,81,82
EndSplineSet
EndChar
StartChar: uni0E06
Encoding: 3590 3590 275
Width: 364
Flags: W
Fore
248 0 m 1,0,1
 225 28 225 28 202.5 59.5 c 128,-1,2
 180 91 180 91 153 118 c 1,3,-1
 137 32 l 2,4,5
 134 20 134 20 127 12 c 128,-1,6
 120 4 120 4 110.5 -0.5 c 128,-1,7
 101 -5 101 -5 90.5 -7 c 128,-1,8
 80 -9 80 -9 70 -9 c 0,9,10
 41 -9 41 -9 28.5 12 c 128,-1,11
 16 33 16 33 16 59 c 0,12,13
 16 79 16 79 24.5 98 c 128,-1,14
 33 117 33 117 47.5 132.5 c 128,-1,15
 62 148 62 148 80.5 157.5 c 128,-1,16
 99 167 99 167 119 167 c 1,17,18
 121 175 121 175 122 180 c 128,-1,19
 123 185 123 185 127 193 c 0,20,21
 136 211 136 211 151.5 226.5 c 128,-1,22
 167 242 167 242 181.5 258 c 128,-1,23
 196 274 196 274 207 291.5 c 128,-1,24
 218 309 218 309 218 331 c 0,25,26
 218 336 218 336 215 340.5 c 128,-1,27
 212 345 212 345 204 345 c 0,28,29
 198 345 198 345 192 341.5 c 128,-1,30
 186 338 186 338 180.5 334 c 128,-1,31
 175 330 175 330 170 326.5 c 128,-1,32
 165 323 165 323 162 323 c 0,33,34
 153 323 153 323 146 327 c 128,-1,35
 139 331 139 331 133 335.5 c 128,-1,36
 127 340 127 340 122 343.5 c 128,-1,37
 117 347 117 347 112 347 c 0,38,39
 101 347 101 347 96.5 334 c 128,-1,40
 92 321 92 321 90 313 c 1,41,42
 104 321 104 321 119 321 c 0,43,44
 138 321 138 321 146.5 309.5 c 128,-1,45
 155 298 155 298 155 281 c 0,46,47
 155 251 155 251 135 233.5 c 128,-1,48
 115 216 115 216 87 216 c 0,49,50
 61 216 61 216 51 235.5 c 128,-1,51
 41 255 41 255 41 278 c 0,52,53
 41 288 41 288 45 306.5 c 128,-1,54
 49 325 49 325 56.5 343.5 c 128,-1,55
 64 362 64 362 75.5 375.5 c 128,-1,56
 87 389 87 389 102 389 c 0,57,58
 114 389 114 389 123 384.5 c 128,-1,59
 132 380 132 380 138.5 374 c 128,-1,60
 145 368 145 368 151 363.5 c 128,-1,61
 157 359 157 359 163 359 c 0,62,63
 171 359 171 359 177 364 c 128,-1,64
 183 369 183 369 189.5 374.5 c 128,-1,65
 196 380 196 380 203 385 c 128,-1,66
 210 390 210 390 218 390 c 0,67,68
 241 390 241 390 249.5 374.5 c 128,-1,69
 258 359 258 359 258 340 c 0,70,71
 258 312 258 312 245 289.5 c 128,-1,72
 232 267 232 267 215.5 247.5 c 128,-1,73
 199 228 199 228 184 210 c 128,-1,74
 169 192 169 192 165 173 c 1,75,76
 165 171 165 171 164.5 168.5 c 128,-1,77
 164 166 164 166 164 164 c 1,78,79
 192 137 192 137 214.5 112.5 c 128,-1,80
 237 88 237 88 259 60 c 1,81,-1
 323 387 l 1,82,-1
 367 387 l 1,83,-1
 292 0 l 1,84,-1
 248 0 l 1,85,-1
 248 0 l 1,0,1
122 272 m 2,86,87
 122 279 122 279 118 284.5 c 128,-1,88
 114 290 114 290 106 290 c 0,89,90
 96 290 96 290 87 282.5 c 128,-1,91
 78 275 78 275 78 264 c 0,92,93
 78 256 78 256 83 250 c 128,-1,94
 88 244 88 244 95 244 c 0,95,96
 105 244 105 244 112.5 251.5 c 128,-1,97
 120 259 120 259 122 268 c 1,98,-1
 122 272 l 2,86,87
110 128 m 1,99,100
 85 123 85 123 72.5 102 c 128,-1,101
 60 81 60 81 60 58 c 0,102,103
 60 47 60 47 63.5 37.5 c 128,-1,104
 67 28 67 28 77 28 c 0,105,106
 85 28 85 28 89.5 38.5 c 128,-1,107
 94 49 94 49 95 54 c 2,108,-1
 110 128 l 1,109,-1
 110 128 l 1,99,100
EndSplineSet
EndChar
StartChar: uni0E07
Encoding: 3591 3591 276
Width: 364
Flags: W
Fore
269 262 m 1,0,1
 254 257 254 257 243 257 c 0,2,3
 217 257 217 257 198.5 271.5 c 128,-1,4
 180 286 180 286 180 311 c 0,5,6
 180 329 180 329 187.5 344 c 128,-1,7
 195 359 195 359 207 370 c 128,-1,8
 219 381 219 381 235 387 c 128,-1,9
 251 393 251 393 267 393 c 0,10,11
 293 393 293 393 310 378.5 c 128,-1,12
 327 364 327 364 327 339 c 0,13,14
 327 338 327 338 326.5 335 c 128,-1,15
 326 332 326 332 324 322 c 128,-1,16
 322 312 322 312 318.5 291.5 c 128,-1,17
 315 271 315 271 307.5 233.5 c 128,-1,18
 300 196 300 196 289 139.5 c 128,-1,19
 278 83 278 83 262 0 c 1,20,-1
 193 0 l 1,21,-1
 68 186 l 1,22,-1
 112 186 l 1,23,-1
 224 31 l 1,24,-1
 269 262 l 1,25,-1
 269 262 l 1,0,1
281 323 m 0,26,27
 281 325 281 325 281.5 327.5 c 128,-1,28
 282 330 282 330 282 332 c 0,29,30
 282 342 282 342 276.5 349 c 128,-1,31
 271 356 271 356 260 356 c 0,32,33
 243 356 243 356 235 342 c 128,-1,34
 227 328 227 328 227 314 c 0,35,36
 227 291 227 291 252 291 c 0,37,38
 265 291 265 291 272 301 c 128,-1,39
 279 311 279 311 281 323 c 0,26,27
EndSplineSet
EndChar
StartChar: uni0E08
Encoding: 3592 3592 277
Width: 364
Flags: W
Fore
327 248 m 2,0,1
 327 246 327 246 325.5 240 c 128,-1,2
 324 234 324 234 318 210 c 128,-1,3
 312 186 312 186 300 137 c 128,-1,4
 288 88 288 88 266 0 c 1,5,-1
 160 0 l 1,6,-1
 165 142 l 1,7,8
 146 129 146 129 126 129 c 0,9,10
 99 129 99 129 84 146.5 c 128,-1,11
 69 164 69 164 69 188 c 0,12,13
 69 206 69 206 76.5 220.5 c 128,-1,14
 84 235 84 235 96 244.5 c 128,-1,15
 108 254 108 254 123.5 259.5 c 128,-1,16
 139 265 139 265 155 265 c 0,17,18
 173 265 173 265 184 259 c 128,-1,19
 195 253 195 253 201 243 c 128,-1,20
 207 233 207 233 209 220 c 128,-1,21
 211 207 211 207 211 193 c 0,22,23
 211 191 211 191 211 186.5 c 128,-1,24
 211 182 211 182 210 167 c 128,-1,25
 209 152 209 152 208 122 c 128,-1,26
 207 92 207 92 204 38 c 1,27,-1
 236 38 l 1,28,29
 249 92 249 92 260 143.5 c 128,-1,30
 271 195 271 195 282 247 c 0,31,32
 284 257 284 257 285 266 c 128,-1,33
 286 275 286 275 286 283 c 0,34,35
 286 315 286 315 268.5 331.5 c 128,-1,36
 251 348 251 348 209 348 c 256,37,38
 167 348 167 348 124.5 329 c 128,-1,39
 82 310 82 310 50 278 c 1,40,-1
 60 332 l 1,41,42
 92 364 92 364 136.5 377 c 128,-1,43
 181 390 181 390 219 390 c 0,44,45
 279 390 279 390 305.5 366 c 128,-1,46
 332 342 332 342 332 294 c 0,47,48
 332 283 332 283 331 272 c 128,-1,49
 330 261 330 261 327 248 c 2,0,1
166 197 m 2,50,51
 167 199 167 199 167 203 c 0,52,53
 167 212 167 212 161.5 219.5 c 128,-1,54
 156 227 156 227 145 227 c 0,55,56
 130 227 130 227 120 217.5 c 128,-1,57
 110 208 110 208 110 192 c 0,58,59
 110 182 110 182 116.5 174.5 c 128,-1,60
 123 167 123 167 134 167 c 256,61,62
 145 167 145 167 154.5 176.5 c 128,-1,63
 164 186 164 186 166 197 c 2,50,51
EndSplineSet
EndChar
StartChar: uni0E09
Encoding: 3593 3593 278
Width: 364
Flags: W
Fore
320 58 m 0,0,1
 315 30 315 30 293 10.5 c 128,-1,2
 271 -9 271 -9 243 -9 c 0,3,4
 220 -9 220 -9 207 4 c 128,-1,5
 194 17 194 17 194 38 c 0,6,7
 194 60 194 60 207 81 c 1,8,9
 180 67 180 67 157.5 46 c 128,-1,10
 135 25 135 25 118 0 c 1,11,-1
 73 0 l 1,12,-1
 97 123 l 1,13,14
 82 117 82 117 68 117 c 0,15,16
 45 117 45 117 30 129 c 128,-1,17
 15 141 15 141 15 163 c 0,18,19
 15 180 15 180 22 195 c 128,-1,20
 29 210 29 210 40.5 220.5 c 128,-1,21
 52 231 52 231 67 237 c 128,-1,22
 82 243 82 243 98 243 c 0,23,24
 127 243 127 243 139.5 228 c 128,-1,25
 152 213 152 213 152 190 c 0,26,27
 152 187 152 187 151.5 182.5 c 128,-1,28
 151 178 151 178 149 165 c 128,-1,29
 147 152 147 152 142.5 128.5 c 128,-1,30
 138 105 138 105 130 64 c 1,31,32
 154 86 154 86 172.5 95.5 c 128,-1,33
 191 105 191 105 207 111.5 c 128,-1,34
 223 118 223 118 236.5 128 c 128,-1,35
 250 138 250 138 265 160 c 1,36,37
 273 200 273 200 277 223.5 c 128,-1,38
 281 247 281 247 283.5 260.5 c 128,-1,39
 286 274 286 274 286.5 279.5 c 128,-1,40
 287 285 287 285 287 288 c 0,41,42
 287 323 287 323 266 337.5 c 128,-1,43
 245 352 245 352 203 352 c 0,44,45
 182 352 182 352 157.5 345 c 128,-1,46
 133 338 133 338 108.5 327 c 128,-1,47
 84 316 84 316 60.5 302.5 c 128,-1,48
 37 289 37 289 19 275 c 1,49,-1
 30 333 l 1,50,51
 47 346 47 346 69 356.5 c 128,-1,52
 91 367 91 367 114.5 374.5 c 128,-1,53
 138 382 138 382 161.5 386.5 c 128,-1,54
 185 391 185 391 204 391 c 0,55,56
 229 391 229 391 252 386 c 128,-1,57
 275 381 275 381 293 370 c 128,-1,58
 311 359 311 359 321.5 341 c 128,-1,59
 332 323 332 323 332 297 c 0,60,61
 332 294 332 294 331.5 289 c 128,-1,62
 331 284 331 284 328.5 270 c 128,-1,63
 326 256 326 256 321 229 c 128,-1,64
 316 202 316 202 307 155 c 0,65,66
 305 144 305 144 299 134.5 c 128,-1,67
 293 125 293 125 283 118 c 1,68,69
 301 113 301 113 311 100.5 c 128,-1,70
 321 88 321 88 321 70 c 0,71,72
 321 62 321 62 320 58 c 0,0,1
281 55 m 0,73,74
 281 57 281 57 281.5 59.5 c 128,-1,75
 282 62 282 62 282 65 c 0,76,77
 282 73 282 73 278.5 79.5 c 128,-1,78
 275 86 275 86 265 86 c 0,79,80
 248 86 248 86 240 73 c 128,-1,81
 232 60 232 60 232 45 c 0,82,83
 232 37 232 37 236 29.5 c 128,-1,84
 240 22 240 22 251 22 c 0,85,86
 264 22 264 22 271.5 33 c 128,-1,87
 279 44 279 44 281 55 c 0,73,74
112 186 m 2,88,89
 112 206 112 206 89 206 c 0,90,91
 76 206 76 206 66.5 196 c 128,-1,92
 57 186 57 186 57 173 c 0,93,94
 57 164 57 164 62.5 158 c 128,-1,95
 68 152 68 152 78 152 c 0,96,97
 89 152 89 152 99.5 159.5 c 128,-1,98
 110 167 110 167 112 179 c 1,99,-1
 112 186 l 2,88,89
EndSplineSet
EndChar
StartChar: uni0E0A
Encoding: 3594 3594 279
Width: 364
Flags: W
Fore
88 131 m 2,0,1
 93 157 93 157 110.5 179 c 128,-1,2
 128 201 128 201 147 222.5 c 128,-1,3
 166 244 166 244 181 267 c 128,-1,4
 196 290 196 290 196 317 c 0,5,6
 196 355 196 355 157 355 c 0,7,8
 137 355 137 355 123 347.5 c 128,-1,9
 109 340 109 340 95 324 c 1,10,11
 107 327 107 327 111 327.5 c 128,-1,12
 115 328 115 328 122 328 c 0,13,14
 139 328 139 328 148 315.5 c 128,-1,15
 157 303 157 303 157 286 c 0,16,17
 157 257 157 257 137 238.5 c 128,-1,18
 117 220 117 220 90 220 c 256,19,20
 63 220 63 220 51 234 c 128,-1,21
 39 248 39 248 39 271 c 0,22,23
 39 297 39 297 49 319 c 128,-1,24
 59 341 59 341 76 356.5 c 128,-1,25
 93 372 93 372 115.5 381 c 128,-1,26
 138 390 138 390 162 390 c 0,27,28
 202 390 202 390 220 376 c 128,-1,29
 238 362 238 362 238 330 c 0,30,31
 238 295 238 295 224.5 268.5 c 128,-1,32
 211 242 211 242 193 220 c 128,-1,33
 175 198 175 198 157.5 177 c 128,-1,34
 140 156 140 156 132 131 c 0,35,36
 127 103 127 103 122.5 82 c 128,-1,37
 118 61 118 61 113 38 c 1,38,-1
 230 38 l 1,39,40
 244 108 244 108 251.5 147 c 128,-1,41
 259 186 259 186 263 205.5 c 128,-1,42
 267 225 267 225 268 230.5 c 128,-1,43
 269 236 269 236 269 240 c 0,44,45
 269 255 269 255 263 267 c 128,-1,46
 257 279 257 279 240 281 c 1,47,-1
 247 314 l 1,48,49
 280 328 280 328 299.5 348.5 c 128,-1,50
 319 369 319 369 326 404 c 1,51,-1
 376 404 l 1,52,53
 375 390 375 390 366 373 c 128,-1,54
 357 356 357 356 343 340 c 128,-1,55
 329 324 329 324 313 312 c 128,-1,56
 297 300 297 300 283 297 c 1,57,58
 299 290 299 290 306 273.5 c 128,-1,59
 313 257 313 257 313 239 c 0,60,61
 313 236 313 236 312 230 c 128,-1,62
 311 224 311 224 307 201 c 128,-1,63
 303 178 303 178 294 131 c 128,-1,64
 285 84 285 84 269 0 c 1,65,-1
 63 0 l 1,66,-1
 88 131 l 2,0,1
124 277 m 2,67,68
 124 285 124 285 118.5 291 c 128,-1,69
 113 297 113 297 105 297 c 0,70,71
 95 297 95 297 86.5 289.5 c 128,-1,72
 78 282 78 282 78 271 c 0,73,74
 78 263 78 263 83 257 c 128,-1,75
 88 251 88 251 96 251 c 0,76,77
 106 251 106 251 114 257.5 c 128,-1,78
 122 264 122 264 124 273 c 1,79,-1
 124 277 l 2,67,68
EndSplineSet
EndChar
StartChar: uni0E0B
Encoding: 3595 3595 280
Width: 364
Flags: W
Fore
230 299 m 0,0,1
 226 275 226 275 211.5 254 c 128,-1,2
 197 233 197 233 181 213 c 128,-1,3
 165 193 165 193 151 172.5 c 128,-1,4
 137 152 137 152 132 129 c 2,5,-1
 114 38 l 1,6,-1
 231 38 l 1,7,8
 245 108 245 108 252 147 c 128,-1,9
 259 186 259 186 263 206 c 128,-1,10
 267 226 267 226 267.5 232 c 128,-1,11
 268 238 268 238 268 242 c 0,12,13
 268 258 268 258 262.5 270 c 128,-1,14
 257 282 257 282 239 282 c 1,15,-1
 244 314 l 1,16,17
 277 328 277 328 298 348.5 c 128,-1,18
 319 369 319 369 326 404 c 1,19,-1
 376 404 l 1,20,21
 376 390 376 390 366.5 373 c 128,-1,22
 357 356 357 356 343.5 341 c 128,-1,23
 330 326 330 326 314 314.5 c 128,-1,24
 298 303 298 303 283 299 c 1,25,26
 299 292 299 292 306 275 c 128,-1,27
 313 258 313 258 313 240 c 0,28,29
 313 237 313 237 312 231 c 128,-1,30
 311 225 311 225 307 202 c 128,-1,31
 303 179 303 179 294 132 c 128,-1,32
 285 85 285 85 268 0 c 1,33,-1
 62 0 l 1,34,-1
 88 132 l 2,35,36
 93 158 93 158 110.5 181.5 c 128,-1,37
 128 205 128 205 147 228 c 128,-1,38
 166 251 166 251 181 275 c 128,-1,39
 196 299 196 299 196 327 c 0,40,41
 196 335 196 335 192.5 340 c 128,-1,42
 189 345 189 345 181 345 c 0,43,44
 175 345 175 345 171.5 341.5 c 128,-1,45
 168 338 168 338 164 333.5 c 128,-1,46
 160 329 160 329 155.5 325.5 c 128,-1,47
 151 322 151 322 145 322 c 0,48,49
 138 322 138 322 133.5 326 c 128,-1,50
 129 330 129 330 125 334.5 c 128,-1,51
 121 339 121 339 117.5 343 c 128,-1,52
 114 347 114 347 109 347 c 0,53,54
 94 347 94 347 88 334.5 c 128,-1,55
 82 322 82 322 80 309 c 1,56,57
 98 319 98 319 114 319 c 0,58,59
 132 319 132 319 141.5 308.5 c 128,-1,60
 151 298 151 298 151 281 c 0,61,62
 151 254 151 254 131 234 c 128,-1,63
 111 214 111 214 85 214 c 256,64,65
 59 214 59 214 48 234 c 128,-1,66
 37 254 37 254 37 278 c 0,67,68
 37 292 37 292 41 311 c 128,-1,69
 45 330 45 330 54 347.5 c 128,-1,70
 63 365 63 365 76.5 377 c 128,-1,71
 90 389 90 389 108 389 c 0,72,73
 117 389 117 389 122 384 c 128,-1,74
 127 379 127 379 131 373.5 c 128,-1,75
 135 368 135 368 139.5 363 c 128,-1,76
 144 358 144 358 151 358 c 0,77,78
 157 358 157 358 161.5 363 c 128,-1,79
 166 368 166 368 171 373.5 c 128,-1,80
 176 379 176 379 182 384 c 128,-1,81
 188 389 188 389 197 389 c 0,82,83
 220 389 220 389 227.5 375 c 128,-1,84
 235 361 235 361 235 342 c 0,85,86
 235 321 235 321 230 299 c 0,0,1
120 267 m 1,87,-1
 120 271 l 2,88,89
 120 278 120 278 115 283.5 c 128,-1,90
 110 289 110 289 102 289 c 0,91,92
 91 289 91 289 83.5 281 c 128,-1,93
 76 273 76 273 76 262 c 0,94,95
 76 254 76 254 81 249 c 128,-1,96
 86 244 86 244 94 244 c 0,97,98
 104 244 104 244 111 251 c 128,-1,99
 118 258 118 258 120 267 c 1,87,-1
EndSplineSet
EndChar
StartChar: uni0E0C
Encoding: 3596 3596 281
Width: 364
Flags: W
Fore
270 25 m 1,0,1
 270 30 270 30 268.5 33.5 c 128,-1,2
 267 37 267 37 262.5 43.5 c 128,-1,3
 258 50 258 50 249.5 60.5 c 128,-1,4
 241 71 241 71 227 88 c 1,5,-1
 218 42 l 2,6,7
 215 23 215 23 203 7 c 128,-1,8
 191 -9 191 -9 172 -9 c 0,9,10
 148 -9 148 -9 138 4.5 c 128,-1,11
 128 18 128 18 128 38 c 0,12,13
 128 72 128 72 146 98 c 128,-1,14
 164 124 164 124 196 126 c 1,15,16
 208 187 208 187 214.5 221.5 c 128,-1,17
 221 256 221 256 224 273.5 c 128,-1,18
 227 291 227 291 228 296 c 128,-1,19
 229 301 229 301 229 303 c 0,20,21
 229 358 229 358 170 358 c 0,22,23
 151 358 151 358 136 354.5 c 128,-1,24
 121 351 121 351 108.5 344.5 c 128,-1,25
 96 338 96 338 84 327.5 c 128,-1,26
 72 317 72 317 58 303 c 1,27,-1
 112 303 l 1,28,-1
 107 274 l 1,29,30
 90 270 90 270 79 254.5 c 128,-1,31
 68 239 68 239 65 222 c 2,32,-1
 43 113 l 1,33,34
 60 122 60 122 77 122 c 0,35,36
 100 122 100 122 111 111 c 128,-1,37
 122 100 122 100 122 80 c 0,38,39
 122 65 122 65 116 49 c 128,-1,40
 110 33 110 33 100 20 c 128,-1,41
 90 7 90 7 76 -1 c 128,-1,42
 62 -9 62 -9 46 -9 c 0,43,44
 17 -9 17 -9 5 9 c 128,-1,45
 -7 27 -7 27 -7 53 c 0,46,47
 -7 55 -7 55 -6.5 59.5 c 128,-1,48
 -6 64 -6 64 -3.5 78.5 c 128,-1,49
 -1 93 -1 93 4.5 121.5 c 128,-1,50
 10 150 10 150 20 201 c 0,51,52
 23 214 23 214 25 223 c 128,-1,53
 27 232 27 232 31 240 c 128,-1,54
 35 248 35 248 41.5 256 c 128,-1,55
 48 264 48 264 59 273 c 1,56,-1
 22 273 l 1,57,-1
 30 313 l 1,58,59
 63 345 63 345 95.5 367 c 128,-1,60
 128 389 128 389 175 389 c 0,61,62
 213 389 213 389 240.5 367.5 c 128,-1,63
 268 346 268 346 268 305 c 0,64,65
 268 302 268 302 267.5 297.5 c 128,-1,66
 267 293 267 293 264 275.5 c 128,-1,67
 261 258 261 258 254 222.5 c 128,-1,68
 247 187 247 187 234 122 c 1,69,70
 243 114 243 114 248 109.5 c 128,-1,71
 253 105 253 105 257 101 c 128,-1,72
 261 97 261 97 266 93 c 128,-1,73
 271 89 271 89 278 81 c 1,74,-1
 338 387 l 1,75,-1
 382 387 l 1,76,-1
 307 0 l 1,77,-1
 266 0 l 1,78,-1
 270 25 l 1,0,1
191 99 m 1,79,80
 176 93 176 93 169.5 83 c 128,-1,81
 163 73 163 73 160 57 c 1,82,-1
 160 56 l 1,83,84
 159 54 159 54 159 50.5 c 128,-1,85
 159 47 159 47 159 44 c 0,86,87
 159 35 159 35 160.5 27.5 c 128,-1,88
 162 20 162 20 172 20 c 0,89,90
 174 20 174 20 177 29 c 128,-1,91
 180 38 180 38 180 40 c 2,92,-1
 191 99 l 1,79,80
88 72 m 2,93,94
 88 92 88 92 64 92 c 0,95,96
 46 92 46 92 38.5 78.5 c 128,-1,97
 31 65 31 65 31 48 c 0,98,99
 31 38 31 38 35.5 30.5 c 128,-1,100
 40 23 40 23 52 23 c 0,101,102
 67 23 67 23 75.5 36 c 128,-1,103
 84 49 84 49 87 62 c 2,104,-1
 88 72 l 2,93,94
EndSplineSet
EndChar
StartChar: uni0E0D
Encoding: 3597 3597 282
Width: 364
Flags: W
Fore
165 361 m 0,0,1
 146 361 146 361 132 358 c 128,-1,2
 118 355 118 355 107 348 c 128,-1,3
 96 341 96 341 85.5 330 c 128,-1,4
 75 319 75 319 64 303 c 1,5,-1
 120 303 l 1,6,-1
 114 276 l 1,7,8
 98 272 98 272 86.5 257 c 128,-1,9
 75 242 75 242 71 226 c 2,10,-1
 50 115 l 1,11,12
 58 121 58 121 67.5 123 c 128,-1,13
 77 125 77 125 86 125 c 0,14,15
 109 125 109 125 120 114 c 128,-1,16
 131 103 131 103 131 83 c 0,17,18
 131 67 131 67 125.5 50.5 c 128,-1,19
 120 34 120 34 109.5 21 c 128,-1,20
 99 8 99 8 85 -0.5 c 128,-1,21
 71 -9 71 -9 53 -9 c 0,22,23
 24 -9 24 -9 12.5 11 c 128,-1,24
 1 31 1 31 1 57 c 0,25,26
 1 60 1 60 1.5 65 c 128,-1,27
 2 70 2 70 4.5 84.5 c 128,-1,28
 7 99 7 99 12 127.5 c 128,-1,29
 17 156 17 156 27 206 c 0,30,31
 29 218 29 218 31.5 227 c 128,-1,32
 34 236 34 236 37.5 243.5 c 128,-1,33
 41 251 41 251 47.5 258 c 128,-1,34
 54 265 54 265 64 274 c 1,35,-1
 25 274 l 1,36,-1
 33 318 l 1,37,38
 54 340 54 340 67 354.5 c 128,-1,39
 80 369 80 369 93 377.5 c 128,-1,40
 106 386 106 386 123.5 389.5 c 128,-1,41
 141 393 141 393 170 393 c 0,42,43
 214 393 214 393 231.5 373.5 c 128,-1,44
 249 354 249 354 249 319 c 0,45,46
 249 313 249 313 248 304 c 128,-1,47
 247 295 247 295 242 267 c 128,-1,48
 237 239 237 239 227 185.5 c 128,-1,49
 217 132 217 132 199 38 c 1,50,-1
 267 38 l 1,51,-1
 335 384 l 1,52,-1
 379 384 l 1,53,-1
 304 0 l 1,54,-1
 147 0 l 1,55,56
 161 72 161 72 170.5 122.5 c 128,-1,57
 180 173 180 173 186.5 207 c 128,-1,58
 193 241 193 241 197 261.5 c 128,-1,59
 201 282 201 282 202.5 293 c 128,-1,60
 204 304 204 304 204.5 309 c 128,-1,61
 205 314 205 314 205 317 c 0,62,63
 205 337 205 337 197.5 349 c 128,-1,64
 190 361 190 361 165 361 c 0,0,1
295 -47 m 2,65,66
 291 -71 291 -71 277.5 -88 c 128,-1,67
 264 -105 264 -105 246 -116 c 128,-1,68
 228 -127 228 -127 206.5 -132 c 128,-1,69
 185 -137 185 -137 165 -137 c 0,70,71
 143 -137 143 -137 122 -125.5 c 128,-1,72
 101 -114 101 -114 101 -91 c 0,73,74
 101 -66 101 -66 118 -47.5 c 128,-1,75
 135 -29 135 -29 159 -29 c 0,76,77
 178 -29 178 -29 192 -37 c 128,-1,78
 206 -45 206 -45 206 -63 c 0,79,80
 206 -65 206 -65 205.5 -67.5 c 128,-1,81
 205 -70 205 -70 205 -73 c 0,82,83
 203 -83 203 -83 196.5 -91 c 128,-1,84
 190 -99 190 -99 182 -107 c 1,85,86
 198 -107 198 -107 214 -99 c 128,-1,87
 230 -91 230 -91 239 -76 c 0,88,89
 244 -67 244 -67 246 -57.5 c 128,-1,90
 248 -48 248 -48 250 -39 c 1,91,-1
 296 -39 l 1,92,-1
 295 -47 l 2,65,66
172 -76 m 0,93,94
 173 -73 173 -73 173 -68 c 0,95,96
 173 -52 173 -52 157 -52 c 0,97,98
 145 -52 145 -52 138.5 -62.5 c 128,-1,99
 132 -73 132 -73 132 -83 c 0,100,101
 132 -100 132 -100 148 -100 c 0,102,103
 158 -100 158 -100 164 -92.5 c 128,-1,104
 170 -85 170 -85 172 -76 c 0,93,94
94 60 m 0,105,106
 96 68 96 68 96 71 c 0,107,108
 96 81 96 81 91 88 c 128,-1,109
 86 95 86 95 73 95 c 0,110,111
 56 95 56 95 47 80.5 c 128,-1,112
 38 66 38 66 38 50 c 0,113,114
 38 39 38 39 42.5 29 c 128,-1,115
 47 19 47 19 60 19 c 0,116,117
 67 19 67 19 72.5 23.5 c 128,-1,118
 78 28 78 28 82.5 34 c 128,-1,119
 87 40 87 40 90 47 c 128,-1,120
 93 54 93 54 94 60 c 0,105,106
EndSplineSet
Substitution: 0 65534 'L019' uni0E0D.alt1
Substitution: 0 65534 'L019' uni0E0D.alt1
EndChar
StartChar: uni0E0E
Encoding: 3598 3598 283
Width: 364
Flags: W
Fore
269 -166 m 1,0,-1
 225 -166 l 1,1,2
 207 -152 207 -152 196 -140 c 128,-1,3
 185 -128 185 -128 166 -115 c 1,4,5
 152 -145 152 -145 130 -158.5 c 128,-1,6
 108 -172 108 -172 77 -172 c 0,7,8
 53 -172 53 -172 34 -160.5 c 128,-1,9
 15 -149 15 -149 15 -124 c 0,10,11
 15 -106 15 -106 22.5 -92 c 128,-1,12
 30 -78 30 -78 42.5 -68.5 c 128,-1,13
 55 -59 55 -59 70.5 -53.5 c 128,-1,14
 86 -48 86 -48 101 -48 c 0,15,16
 111 -48 111 -48 119 -50.5 c 128,-1,17
 127 -53 127 -53 138 -58 c 1,18,-1
 147 -14 l 1,19,-1
 191 -14 l 1,20,-1
 179 -75 l 1,21,22
 196 -87 196 -87 207.5 -97 c 128,-1,23
 219 -107 219 -107 235 -119 c 1,24,25
 254 -23 254 -23 267 43.5 c 128,-1,26
 280 110 280 110 288 154.5 c 128,-1,27
 296 199 296 199 301 224.5 c 128,-1,28
 306 250 306 250 308 263 c 128,-1,29
 310 276 310 276 310.5 281 c 128,-1,30
 311 286 311 286 311 289 c 0,31,32
 311 319 311 319 296 336 c 128,-1,33
 281 353 281 353 243 353 c 0,34,35
 209 353 209 353 177.5 344 c 128,-1,36
 146 335 146 335 119 306 c 1,37,-1
 200 306 l 1,38,-1
 193 271 l 1,39,-1
 192 271 l 1,40,41
 170 263 170 263 157.5 242.5 c 128,-1,42
 145 222 145 222 143 201 c 2,43,-1
 124 102 l 2,44,45
 120 84 120 84 115 64 c 128,-1,46
 110 44 110 44 100 28 c 128,-1,47
 90 12 90 12 74.5 1.5 c 128,-1,48
 59 -9 59 -9 35 -9 c 0,49,50
 9 -9 9 -9 -4 8 c 128,-1,51
 -17 25 -17 25 -17 48 c 0,52,53
 -17 79 -17 79 5 101.5 c 128,-1,54
 27 124 27 124 58 124 c 0,55,56
 74 124 74 124 82 113 c 1,57,-1
 101 214 l 2,58,59
 106 235 106 235 115.5 246.5 c 128,-1,60
 125 258 125 258 142 273 c 1,61,-1
 77 273 l 1,62,-1
 86 319 l 1,63,64
 118 355 118 355 158.5 372.5 c 128,-1,65
 199 390 199 390 241 390 c 0,66,67
 299 390 299 390 327.5 367.5 c 128,-1,68
 356 345 356 345 356 296 c 0,69,70
 356 277 356 277 352 254 c 2,71,-1
 269 -166 l 1,0,-1
78 66 m 2,72,73
 78 76 78 76 71 82.5 c 128,-1,74
 64 89 64 89 53 89 c 0,75,76
 38 89 38 89 29.5 76 c 128,-1,77
 21 63 21 63 21 49 c 0,78,79
 21 38 21 38 26 29.5 c 128,-1,80
 31 21 31 21 43 21 c 0,81,82
 60 21 60 21 67.5 34 c 128,-1,83
 75 47 75 47 78 61 c 1,84,-1
 78 66 l 2,72,73
132 -94 m 1,85,86
 122 -88 122 -88 111.5 -84 c 128,-1,87
 101 -80 101 -80 89 -80 c 0,88,89
 78 -80 78 -80 67 -91.5 c 128,-1,90
 56 -103 56 -103 56 -114 c 0,91,92
 56 -124 56 -124 65 -131 c 128,-1,93
 74 -138 74 -138 84 -138 c 0,94,95
 99 -138 99 -138 112.5 -129.5 c 128,-1,96
 126 -121 126 -121 130 -104 c 2,97,-1
 132 -94 l 1,98,-1
 132 -94 l 1,85,86
EndSplineSet
Substitution: 0 65534 'L019' uni0E0E.alt1
Substitution: 0 65534 'L019' uni0E0E.alt1
EndChar
StartChar: uni0E0F
Encoding: 3599 3599 284
Width: 364
Flags: W
Fore
268 -169 m 1,0,-1
 215 -169 l 1,1,-1
 186 -124 l 1,2,-1
 150 -167 l 1,3,-1
 128 -167 l 1,4,-1
 109 -134 l 1,5,6
 86 -155 86 -155 69.5 -163.5 c 128,-1,7
 53 -172 53 -172 24 -172 c 0,8,9
 1 -172 1 -172 -17.5 -158 c 128,-1,10
 -36 -144 -36 -144 -36 -121 c 0,11,12
 -36 -106 -36 -106 -28.5 -93.5 c 128,-1,13
 -21 -81 -21 -81 -9.5 -72 c 128,-1,14
 2 -63 2 -63 16.5 -58 c 128,-1,15
 31 -53 31 -53 44 -53 c 0,16,17
 61 -53 61 -53 76.5 -59 c 128,-1,18
 92 -65 92 -65 106 -74 c 1,19,-1
 116 -20 l 1,20,-1
 160 -20 l 1,21,22
 153 -55 153 -55 148.5 -71 c 128,-1,23
 144 -87 144 -87 137 -98 c 1,24,25
 141 -103 141 -103 144 -108.5 c 128,-1,26
 147 -114 147 -114 150 -119 c 1,27,-1
 198 -70 l 1,28,-1
 233 -122 l 1,29,30
 252 -22 252 -22 265.5 46.5 c 128,-1,31
 279 115 279 115 287.5 160.5 c 128,-1,32
 296 206 296 206 301 231.5 c 128,-1,33
 306 257 306 257 308 270 c 128,-1,34
 310 283 310 283 310.5 287 c 128,-1,35
 311 291 311 291 311 293 c 0,36,37
 311 326 311 326 290.5 340.5 c 128,-1,38
 270 355 270 355 233 355 c 0,39,40
 200 355 200 355 174.5 345 c 128,-1,41
 149 335 149 335 123 307 c 1,42,-1
 201 307 l 1,43,-1
 194 271 l 1,44,45
 178 264 178 264 163.5 247 c 128,-1,46
 149 230 149 230 146 213 c 2,47,-1
 122 93 l 2,48,49
 119 74 119 74 113.5 56 c 128,-1,50
 108 38 108 38 98 23.5 c 128,-1,51
 88 9 88 9 73 0 c 128,-1,52
 58 -9 58 -9 35 -9 c 0,53,54
 9 -9 9 -9 -3.5 7.5 c 128,-1,55
 -16 24 -16 24 -16 47 c 0,56,57
 -16 78 -16 78 4.5 102 c 128,-1,58
 25 126 25 126 57 126 c 0,59,60
 71 126 71 126 83 119 c 1,61,-1
 101 213 l 2,62,63
 106 233 106 233 115 245.5 c 128,-1,64
 124 258 124 258 141 271 c 1,65,-1
 78 271 l 1,66,-1
 88 326 l 1,67,68
 119 359 119 359 158 376 c 128,-1,69
 197 393 197 393 238 393 c 0,70,71
 260 393 260 393 281 388.5 c 128,-1,72
 302 384 302 384 318.5 373.5 c 128,-1,73
 335 363 335 363 345 347 c 128,-1,74
 355 331 355 331 355 307 c 0,75,76
 355 287 355 287 351 262.5 c 128,-1,77
 347 238 347 238 345 224 c 2,78,-1
 268 -169 l 1,0,-1
75 56 m 0,79,80
 76 59 76 59 76 65 c 0,81,82
 76 76 76 76 70.5 83.5 c 128,-1,83
 65 91 65 91 53 91 c 0,84,85
 46 91 46 91 41 86.5 c 128,-1,86
 36 82 36 82 32 75.5 c 128,-1,87
 28 69 28 69 26 61.5 c 128,-1,88
 24 54 24 54 24 49 c 0,89,90
 24 39 24 39 28.5 30.5 c 128,-1,91
 33 22 33 22 42 22 c 0,92,93
 59 22 59 22 66 32 c 128,-1,94
 73 42 73 42 75 56 c 0,79,80
89 -109 m 1,95,96
 81 -101 81 -101 66 -94 c 128,-1,97
 51 -87 51 -87 38 -87 c 0,98,99
 26 -87 26 -87 16 -96 c 128,-1,100
 6 -105 6 -105 6 -118 c 0,101,102
 6 -129 6 -129 17 -133 c 128,-1,103
 28 -137 28 -137 37 -137 c 0,104,105
 51 -137 51 -137 65 -128.5 c 128,-1,106
 79 -120 79 -120 89 -109 c 1,95,96
EndSplineSet
Substitution: 0 65534 'L019' uni0E0F.alt1
Substitution: 0 65534 'L019' uni0E0F.alt1
EndChar
StartChar: uni0E10
Encoding: 3600 3600 285
Width: 364
Flags: W
Fore
357 322 m 1,0,1
 349 318 349 318 339.5 317.5 c 128,-1,2
 330 317 330 317 322 317 c 2,3,-1
 311 317 l 2,4,5
 292 317 292 317 275.5 322.5 c 128,-1,6
 259 328 259 328 243.5 334.5 c 128,-1,7
 228 341 228 341 211.5 346.5 c 128,-1,8
 195 352 195 352 177 352 c 0,9,10
 152 352 152 352 135 337.5 c 128,-1,11
 118 323 118 323 103 303 c 1,12,-1
 174 303 l 2,13,14
 199 303 199 303 224.5 300 c 128,-1,15
 250 297 250 297 271 288.5 c 128,-1,16
 292 280 292 280 305.5 264.5 c 128,-1,17
 319 249 319 249 319 223 c 0,18,19
 319 206 319 206 317 198 c 128,-1,20
 315 190 315 190 307.5 172 c 128,-1,21
 300 154 300 154 285.5 115.5 c 128,-1,22
 271 77 271 77 246 0 c 1,23,-1
 173 0 l 1,24,-1
 158 132 l 1,25,26
 148 124 148 124 138.5 119 c 128,-1,27
 129 114 129 114 116 114 c 0,28,29
 93 114 93 114 77 126.5 c 128,-1,30
 61 139 61 139 61 161 c 0,31,32
 61 197 61 197 85.5 215 c 128,-1,33
 110 233 110 233 142 233 c 0,34,35
 156 233 156 233 165 225.5 c 128,-1,36
 174 218 174 218 179.5 206.5 c 128,-1,37
 185 195 185 195 188.5 182 c 128,-1,38
 192 169 192 169 193 158 c 2,39,-1
 209 37 l 1,40,-1
 219 37 l 1,41,42
 229 71 229 71 245 112.5 c 128,-1,43
 261 154 261 154 269 191 c 0,44,45
 272 205 272 205 272 217 c 0,46,47
 272 225 272 225 270 232 c 128,-1,48
 268 239 268 239 262 245 c 0,49,50
 256 252 256 252 241.5 256 c 128,-1,51
 227 260 227 260 207.5 262.5 c 128,-1,52
 188 265 188 265 165.5 265.5 c 128,-1,53
 143 266 143 266 119 266 c 0,54,55
 109 266 109 266 99.5 265.5 c 128,-1,56
 90 265 90 265 79 260 c 1,57,-1
 35 260 l 1,58,59
 44 280 44 280 56 300.5 c 128,-1,60
 68 321 68 321 83 339 c 128,-1,61
 98 357 98 357 117 370 c 128,-1,62
 136 383 136 383 159 387 c 0,63,64
 169 389 169 389 178.5 389.5 c 128,-1,65
 188 390 188 390 198 390 c 0,66,67
 213 390 213 390 226 386.5 c 128,-1,68
 239 383 239 383 251.5 378.5 c 128,-1,69
 264 374 264 374 277 370 c 128,-1,70
 290 366 290 366 304 366 c 0,71,72
 321 366 321 366 336.5 367.5 c 128,-1,73
 352 369 352 369 367 378 c 1,74,-1
 357 322 l 1,75,-1
 357 322 l 1,0,1
234 -125 m 0,76,77
 229 -148 229 -148 214.5 -158 c 128,-1,78
 200 -168 200 -168 178 -168 c 2,79,-1
 124 -168 l 1,80,-1
 102 -139 l 1,81,-1
 67 -171 l 1,82,83
 62 -163 62 -163 58 -155 c 128,-1,84
 54 -147 54 -147 49 -139 c 1,85,-1
 46 -142 l 2,86,87
 32 -153 32 -153 18.5 -161.5 c 128,-1,88
 5 -170 5 -170 -12 -170 c 0,89,90
 -37 -170 -37 -170 -49 -158 c 128,-1,91
 -61 -146 -61 -146 -61 -125 c 0,92,93
 -61 -99 -61 -99 -42.5 -76.5 c 128,-1,94
 -24 -54 -24 -54 5 -54 c 0,95,96
 32 -54 32 -54 50 -74 c 1,97,-1
 56 -26 l 1,98,-1
 101 -26 l 1,99,-1
 101 -28 l 2,100,101
 101 -35 101 -35 100 -40 c 0,102,103
 94 -69 94 -69 80 -97 c 1,104,-1
 89 -112 l 1,105,-1
 117 -85 l 1,106,-1
 151 -129 l 2,107,108
 155 -135 155 -135 167 -135 c 0,109,110
 173 -135 173 -135 182.5 -132.5 c 128,-1,111
 192 -130 192 -130 194 -122 c 2,112,-1
 195 -115 l 1,113,114
 176 -115 176 -115 163 -106 c 128,-1,115
 150 -97 150 -97 150 -79 c 0,116,117
 150 -56 150 -56 166.5 -40.5 c 128,-1,118
 183 -25 183 -25 206 -25 c 0,119,120
 225 -25 225 -25 235 -34.5 c 128,-1,121
 245 -44 245 -44 245 -61 c 0,122,123
 245 -65 l 128,-1,124
 245 -67 245 -67 244 -73.5 c 128,-1,125
 243 -80 243 -80 240.5 -92 c 128,-1,126
 238 -104 238 -104 234 -125 c 0,76,77
149 178 m 2,127,128
 149 198 149 198 127 198 c 0,129,130
 116 198 116 198 107 189 c 128,-1,131
 98 180 98 180 98 169 c 0,132,133
 98 161 98 161 104.5 153.5 c 128,-1,134
 111 146 111 146 120 146 c 256,135,136
 129 146 129 146 138 154 c 128,-1,137
 147 162 147 162 149 173 c 1,138,-1
 149 178 l 2,127,128
211 -72 m 2,139,140
 212 -71 212 -71 212 -68 c 0,141,142
 212 -63 212 -63 209.5 -59 c 128,-1,143
 207 -55 207 -55 202 -55 c 0,144,145
 194 -55 194 -55 189 -61 c 128,-1,146
 184 -67 184 -67 184 -75 c 0,147,148
 184 -86 184 -86 196 -86 c 0,149,150
 202 -86 202 -86 206 -81.5 c 128,-1,151
 210 -77 210 -77 211 -72 c 2,139,140
30 -113 m 1,152,153
 25 -103 25 -103 20 -96.5 c 128,-1,154
 15 -90 15 -90 1 -90 c 0,155,156
 -10 -90 -10 -90 -18 -97.5 c 128,-1,157
 -26 -105 -26 -105 -26 -117 c 0,158,159
 -26 -136 -26 -136 -7 -136 c 0,160,161
 2 -136 2 -136 13.5 -128.5 c 128,-1,162
 25 -121 25 -121 30 -113 c 1,152,153
EndSplineSet
Substitution: 0 65534 'L019' uni0E10.alt1
Substitution: 0 65534 'L019' uni0E10.alt1
EndChar
StartChar: uni0E11
Encoding: 3601 3601 286
Width: 364
Flags: W
Fore
68 0 m 1,0,-1
 101 169 l 2,1,2
 105 192 105 192 118 212 c 128,-1,3
 131 232 131 232 145 251.5 c 128,-1,4
 159 271 159 271 170 291.5 c 128,-1,5
 181 312 181 312 181 335 c 0,6,7
 181 347 181 347 169 347 c 0,8,9
 162 347 162 347 157 342.5 c 128,-1,10
 152 338 152 338 147.5 332.5 c 128,-1,11
 143 327 143 327 137.5 322.5 c 128,-1,12
 132 318 132 318 124 318 c 0,13,14
 117 318 117 318 112.5 322 c 128,-1,15
 108 326 108 326 104.5 331.5 c 128,-1,16
 101 337 101 337 97.5 341 c 128,-1,17
 94 345 94 345 89 345 c 0,18,19
 81 345 81 345 78 335 c 128,-1,20
 75 325 75 325 73 319 c 0,21,22
 72 314 72 314 72 308 c 128,-1,23
 72 302 72 302 71 297 c 1,24,25
 83 309 83 309 101 309 c 256,26,27
 119 309 119 309 127 299.5 c 128,-1,28
 135 290 135 290 135 276 c 0,29,30
 135 252 135 252 119 232 c 128,-1,31
 103 212 103 212 77 212 c 0,32,33
 49 212 49 212 40 230 c 128,-1,34
 31 248 31 248 31 271 c 0,35,36
 31 286 31 286 34 304.5 c 128,-1,37
 37 323 37 323 44 340 c 128,-1,38
 51 357 51 357 62.5 369 c 128,-1,39
 74 381 74 381 91 383 c 1,40,-1
 90 383 l 1,41,42
 96 383 96 383 101 377.5 c 128,-1,43
 106 372 106 372 110 366 c 128,-1,44
 114 360 114 360 118.5 354.5 c 128,-1,45
 123 349 123 349 128 349 c 1,46,-1
 128 350 l 1,47,48
 134 350 134 350 138.5 355.5 c 128,-1,49
 143 361 143 361 148.5 367 c 128,-1,50
 154 373 154 373 160 378.5 c 128,-1,51
 166 384 166 384 175 384 c 0,52,53
 213 384 213 384 213 345 c 0,54,55
 213 322 213 322 203 301 c 128,-1,56
 193 280 193 280 180.5 260 c 128,-1,57
 168 240 168 240 156.5 220 c 128,-1,58
 145 200 145 200 142 179 c 1,59,-1
 142 178 l 1,60,-1
 139 161 l 1,61,62
 158 188 158 188 176 214 c 0,63,64
 206 258 l 128,-1,65
 221 280 221 280 229 292 c 0,66,67
 241 310 241 310 252.5 327.5 c 128,-1,68
 264 345 264 345 275.5 358.5 c 128,-1,69
 287 372 287 372 299.5 380.5 c 128,-1,70
 312 389 312 389 327 389 c 0,71,72
 348 389 348 389 355.5 380 c 128,-1,73
 363 371 363 371 363 355 c 0,74,75
 363 353 363 353 362.5 348.5 c 128,-1,76
 362 344 362 344 360 332.5 c 128,-1,77
 358 321 358 321 353.5 299 c 128,-1,78
 349 277 349 277 341.5 238.5 c 128,-1,79
 334 200 334 200 323 142 c 128,-1,80
 312 84 312 84 296 0 c 1,81,-1
 252 0 l 1,82,83
 267 77 267 77 277 129 c 128,-1,84
 287 181 287 181 293.5 215 c 128,-1,85
 300 249 300 249 303.5 267 c 128,-1,86
 307 285 307 285 309 294.5 c 128,-1,87
 311 304 311 304 311.5 307 c 128,-1,88
 312 310 312 310 313 314 c 0,89,90
 314 320 314 320 315.5 327.5 c 128,-1,91
 317 335 317 335 317 342 c 0,92,93
 317 350 317 350 312 350 c 0,94,95
 308 350 308 350 298.5 338.5 c 128,-1,96
 289 327 289 327 277 310 c 128,-1,97
 265 293 265 293 251.5 273 c 128,-1,98
 238 253 238 253 227 236 c 0,99,100
 220 225 220 225 204 201.5 c 128,-1,101
 188 178 188 178 171 155 c 0,102,103
 152 128 152 128 130 96 c 1,104,-1
 112 0 l 1,105,-1
 68 0 l 1,0,-1
105 259 m 2,106,107
 106 261 106 261 106 265 c 0,108,109
 106 271 106 271 102.5 276 c 128,-1,110
 99 281 99 281 91 281 c 0,111,112
 82 281 82 281 75 272 c 128,-1,113
 68 263 68 263 68 255 c 256,114,115
 68 247 68 247 71.5 241.5 c 128,-1,116
 75 236 75 236 83 236 c 256,117,118
 91 236 91 236 97.5 244 c 128,-1,119
 104 252 104 252 105 259 c 2,106,107
EndSplineSet
EndChar
StartChar: uni0E12
Encoding: 3602 3602 287
Width: 364
Flags: W
Fore
230 45 m 2,0,1
 225 19 225 19 213.5 5 c 128,-1,2
 202 -9 202 -9 174 -9 c 0,3,4
 151 -9 151 -9 141 6 c 128,-1,5
 131 21 131 21 131 41 c 0,6,7
 131 74 131 74 153.5 102 c 128,-1,8
 176 130 176 130 209 137 c 1,9,10
 221 201 221 201 228 236.5 c 128,-1,11
 235 272 235 272 238 289 c 128,-1,12
 241 306 241 306 241.5 311 c 128,-1,13
 242 316 242 316 242 318 c 0,14,15
 242 329 242 329 237.5 338.5 c 128,-1,16
 233 348 233 348 220 348 c 0,17,18
 213 348 213 348 207 343 c 128,-1,19
 201 338 201 338 194.5 331.5 c 128,-1,20
 188 325 188 325 180.5 320 c 128,-1,21
 173 315 173 315 164 315 c 256,22,23
 155 315 155 315 149 320 c 128,-1,24
 143 325 143 325 138 331 c 128,-1,25
 133 337 133 337 127.5 342 c 128,-1,26
 122 347 122 347 116 347 c 0,27,28
 97 347 97 347 84.5 330.5 c 128,-1,29
 72 314 72 314 65 291.5 c 128,-1,30
 58 269 58 269 55 246 c 128,-1,31
 52 223 52 223 52 210 c 0,32,33
 52 201 52 201 54 182.5 c 128,-1,34
 56 164 56 164 59 142 c 128,-1,35
 62 120 62 120 64 100 c 128,-1,36
 66 80 66 80 66 68 c 0,37,38
 66 63 66 63 65.5 59.5 c 128,-1,39
 65 56 65 56 65 49 c 1,40,-1
 133 158 l 1,41,42
 114 158 114 158 97 171 c 128,-1,43
 80 184 80 184 80 207 c 0,44,45
 80 224 80 224 86.5 237.5 c 128,-1,46
 93 251 93 251 104 260 c 128,-1,47
 115 269 115 269 129 274 c 128,-1,48
 143 279 143 279 158 279 c 0,49,50
 202 279 202 279 202 237 c 0,51,52
 202 233 202 233 200 223 c 0,53,54
 197 209 197 209 190.5 194.5 c 128,-1,55
 184 180 184 180 169.5 156.5 c 128,-1,56
 155 133 155 133 131 96 c 128,-1,57
 107 59 107 59 71 0 c 1,58,-1
 21 0 l 1,59,60
 22 10 22 10 22 19 c 128,-1,61
 22 28 22 28 22 38 c 0,62,63
 22 56 22 56 20.5 74 c 128,-1,64
 19 92 19 92 17 110 c 0,65,66
 13 150 l 128,-1,67
 11 170 11 170 11 191 c 0,68,69
 11 215 11 215 16.5 248.5 c 128,-1,70
 22 282 22 282 35.5 312.5 c 128,-1,71
 49 343 49 343 70.5 365 c 128,-1,72
 92 387 92 387 124 387 c 0,73,74
 134 387 134 387 140 381.5 c 128,-1,75
 146 376 146 376 150.5 369.5 c 128,-1,76
 155 363 155 363 159 357.5 c 128,-1,77
 163 352 163 352 170 352 c 0,78,79
 186 352 186 352 197 366 c 128,-1,80
 208 380 208 380 219 389 c 1,81,82
 253 387 253 387 267.5 366.5 c 128,-1,83
 282 346 282 346 282 317 c 0,84,85
 282 314 282 314 281.5 309 c 128,-1,86
 281 304 281 304 277.5 286.5 c 128,-1,87
 274 269 274 269 267.5 233.5 c 128,-1,88
 261 198 261 198 249 135 c 1,89,90
 252 127 252 127 255.5 121 c 128,-1,91
 259 115 259 115 262.5 108.5 c 128,-1,92
 266 102 266 102 270.5 93.5 c 128,-1,93
 275 85 275 85 281 72 c 1,94,-1
 342 386 l 1,95,-1
 386 386 l 1,96,-1
 311 0 l 1,97,-1
 276 0 l 1,98,-1
 238 87 l 1,99,-1
 230 45 l 2,0,1
168 228 m 2,100,101
 168 237 168 237 164 243.5 c 128,-1,102
 160 250 160 250 150 250 c 0,103,104
 136 250 136 250 126 239.5 c 128,-1,105
 116 229 116 229 116 215 c 0,106,107
 116 205 116 205 121.5 197.5 c 128,-1,108
 127 190 127 190 138 190 c 0,109,110
 150 190 150 190 158 200 c 128,-1,111
 166 210 166 210 168 221 c 1,112,-1
 168 228 l 2,100,101
201 105 m 1,113,114
 181 98 181 98 173.5 82.5 c 128,-1,115
 166 67 166 67 166 48 c 0,116,117
 166 38 166 38 169 27.5 c 128,-1,118
 172 17 172 17 186 16 c 1,119,-1
 203 105 l 1,120,-1
 201 105 l 1,113,114
EndSplineSet
EndChar
